G04 EAGLE Gerber RS-274X export*
G75*
%MOMM*%
%FSLAX34Y34*%
%LPD*%
%INBottom Copper*%
%IPPOS*%
%AMOC8*
5,1,8,0,0,1.08239X$1,22.5*%
G01*
%ADD10R,1.524000X1.524000*%
%ADD11P,1.649562X8X22.500000*%
%ADD12C,0.904800*%
%ADD13C,1.400000*%
%ADD14C,3.220000*%
%ADD15C,0.609600*%
%ADD16C,0.654800*%
%ADD17C,0.914400*%
%ADD18C,0.254000*%

G36*
X655946Y3318D02*
X655946Y3318D01*
X656065Y3325D01*
X656103Y3338D01*
X656144Y3343D01*
X656254Y3386D01*
X656367Y3423D01*
X656402Y3445D01*
X656439Y3460D01*
X656535Y3529D01*
X656636Y3593D01*
X656664Y3623D01*
X656697Y3646D01*
X656773Y3738D01*
X656854Y3825D01*
X656874Y3860D01*
X656899Y3891D01*
X656950Y3999D01*
X657008Y4103D01*
X657018Y4143D01*
X657035Y4179D01*
X657057Y4296D01*
X657087Y4411D01*
X657091Y4471D01*
X657095Y4491D01*
X657093Y4512D01*
X657097Y4572D01*
X657097Y401828D01*
X657082Y401946D01*
X657075Y402065D01*
X657062Y402103D01*
X657057Y402144D01*
X657014Y402254D01*
X656977Y402367D01*
X656955Y402402D01*
X656940Y402439D01*
X656871Y402535D01*
X656807Y402636D01*
X656777Y402664D01*
X656754Y402697D01*
X656662Y402773D01*
X656575Y402854D01*
X656540Y402874D01*
X656509Y402899D01*
X656401Y402950D01*
X656297Y403008D01*
X656257Y403018D01*
X656221Y403035D01*
X656104Y403057D01*
X655989Y403087D01*
X655929Y403091D01*
X655909Y403095D01*
X655888Y403093D01*
X655828Y403097D01*
X4572Y403097D01*
X4454Y403082D01*
X4335Y403075D01*
X4297Y403062D01*
X4256Y403057D01*
X4146Y403014D01*
X4033Y402977D01*
X3998Y402955D01*
X3961Y402940D01*
X3865Y402871D01*
X3764Y402807D01*
X3736Y402777D01*
X3703Y402754D01*
X3627Y402662D01*
X3546Y402575D01*
X3526Y402540D01*
X3501Y402509D01*
X3450Y402401D01*
X3392Y402297D01*
X3382Y402257D01*
X3365Y402221D01*
X3343Y402104D01*
X3313Y401989D01*
X3309Y401929D01*
X3305Y401909D01*
X3307Y401888D01*
X3303Y401828D01*
X3303Y4572D01*
X3318Y4454D01*
X3325Y4335D01*
X3338Y4297D01*
X3343Y4256D01*
X3386Y4146D01*
X3423Y4033D01*
X3445Y3998D01*
X3460Y3961D01*
X3529Y3865D01*
X3593Y3764D01*
X3623Y3736D01*
X3646Y3703D01*
X3738Y3627D01*
X3825Y3546D01*
X3860Y3526D01*
X3891Y3501D01*
X3999Y3450D01*
X4103Y3392D01*
X4143Y3382D01*
X4179Y3365D01*
X4296Y3343D01*
X4411Y3313D01*
X4471Y3309D01*
X4491Y3305D01*
X4512Y3307D01*
X4572Y3303D01*
X655828Y3303D01*
X655946Y3318D01*
G37*
%LPC*%
G36*
X166062Y44449D02*
X166062Y44449D01*
X163458Y47053D01*
X159219Y51291D01*
X159125Y51364D01*
X159036Y51443D01*
X159000Y51461D01*
X158968Y51486D01*
X158859Y51534D01*
X158753Y51588D01*
X158714Y51597D01*
X158676Y51613D01*
X158559Y51631D01*
X158443Y51657D01*
X158402Y51656D01*
X158362Y51662D01*
X158244Y51651D01*
X158125Y51648D01*
X158086Y51636D01*
X158046Y51633D01*
X157934Y51592D01*
X157819Y51559D01*
X157784Y51539D01*
X157746Y51525D01*
X157648Y51458D01*
X157545Y51398D01*
X157500Y51358D01*
X157483Y51346D01*
X157470Y51331D01*
X157424Y51291D01*
X156672Y50539D01*
X139328Y50539D01*
X137839Y52028D01*
X137839Y69372D01*
X139328Y70861D01*
X154940Y70861D01*
X155058Y70876D01*
X155177Y70883D01*
X155215Y70896D01*
X155256Y70901D01*
X155366Y70944D01*
X155479Y70981D01*
X155514Y71003D01*
X155551Y71018D01*
X155647Y71087D01*
X155748Y71151D01*
X155776Y71181D01*
X155809Y71204D01*
X155885Y71296D01*
X155966Y71383D01*
X155986Y71418D01*
X156011Y71449D01*
X156062Y71557D01*
X156120Y71661D01*
X156130Y71701D01*
X156147Y71737D01*
X156169Y71854D01*
X156199Y71969D01*
X156203Y72029D01*
X156207Y72049D01*
X156205Y72070D01*
X156209Y72130D01*
X156209Y76876D01*
X156192Y77013D01*
X156179Y77152D01*
X156172Y77171D01*
X156169Y77191D01*
X156118Y77320D01*
X156071Y77451D01*
X156060Y77468D01*
X156052Y77487D01*
X155971Y77599D01*
X155893Y77714D01*
X155877Y77728D01*
X155866Y77744D01*
X155758Y77833D01*
X155654Y77925D01*
X155636Y77934D01*
X155621Y77947D01*
X155495Y78006D01*
X155371Y78069D01*
X155351Y78074D01*
X155333Y78083D01*
X155197Y78109D01*
X155061Y78139D01*
X155040Y78138D01*
X155021Y78142D01*
X154882Y78134D01*
X154743Y78129D01*
X154723Y78124D01*
X154703Y78123D01*
X154571Y78080D01*
X154437Y78041D01*
X154420Y78031D01*
X154401Y78025D01*
X154283Y77950D01*
X154163Y77879D01*
X154142Y77861D01*
X154132Y77854D01*
X154118Y77839D01*
X154043Y77773D01*
X152209Y75939D01*
X143791Y75939D01*
X137839Y81891D01*
X137839Y90309D01*
X143791Y96261D01*
X152209Y96261D01*
X154043Y94427D01*
X154152Y94342D01*
X154259Y94253D01*
X154278Y94244D01*
X154294Y94232D01*
X154422Y94177D01*
X154547Y94117D01*
X154567Y94114D01*
X154586Y94106D01*
X154724Y94084D01*
X154860Y94058D01*
X154880Y94059D01*
X154900Y94056D01*
X155039Y94069D01*
X155177Y94077D01*
X155196Y94084D01*
X155216Y94086D01*
X155348Y94133D01*
X155479Y94175D01*
X155497Y94186D01*
X155516Y94193D01*
X155631Y94271D01*
X155748Y94346D01*
X155762Y94360D01*
X155779Y94372D01*
X155871Y94476D01*
X155966Y94577D01*
X155976Y94595D01*
X155989Y94610D01*
X156053Y94734D01*
X156120Y94856D01*
X156125Y94875D01*
X156134Y94893D01*
X156164Y95029D01*
X156199Y95164D01*
X156201Y95192D01*
X156204Y95204D01*
X156203Y95224D01*
X156209Y95324D01*
X156209Y99496D01*
X156197Y99594D01*
X156194Y99693D01*
X156177Y99751D01*
X156169Y99811D01*
X156133Y99903D01*
X156105Y99999D01*
X156075Y100051D01*
X156052Y100107D01*
X155994Y100187D01*
X155944Y100272D01*
X155878Y100348D01*
X155866Y100364D01*
X155856Y100372D01*
X155838Y100393D01*
X146875Y109356D01*
X146742Y109488D01*
X146648Y109561D01*
X146559Y109640D01*
X146523Y109659D01*
X146491Y109683D01*
X146382Y109731D01*
X146276Y109785D01*
X146236Y109794D01*
X146199Y109810D01*
X146082Y109828D01*
X145965Y109854D01*
X145925Y109853D01*
X145885Y109860D01*
X145767Y109848D01*
X145648Y109845D01*
X145609Y109834D01*
X145569Y109830D01*
X145457Y109790D01*
X145342Y109756D01*
X145307Y109736D01*
X145269Y109722D01*
X145171Y109655D01*
X145068Y109595D01*
X145023Y109555D01*
X145006Y109544D01*
X144993Y109528D01*
X144947Y109488D01*
X143729Y108270D01*
X141115Y107187D01*
X138285Y107187D01*
X135671Y108270D01*
X133670Y110271D01*
X132587Y112885D01*
X132587Y115715D01*
X133670Y118329D01*
X135671Y120330D01*
X138285Y121413D01*
X141115Y121413D01*
X142516Y120832D01*
X142564Y120819D01*
X142609Y120798D01*
X142717Y120777D01*
X142823Y120748D01*
X142873Y120747D01*
X142922Y120738D01*
X143031Y120745D01*
X143141Y120743D01*
X143189Y120755D01*
X143239Y120758D01*
X143343Y120792D01*
X143450Y120817D01*
X143494Y120841D01*
X143541Y120856D01*
X143634Y120915D01*
X143731Y120966D01*
X143768Y120999D01*
X143810Y121026D01*
X143885Y121106D01*
X143967Y121180D01*
X143994Y121221D01*
X144028Y121258D01*
X144081Y121354D01*
X144141Y121446D01*
X144158Y121493D01*
X144182Y121536D01*
X144209Y121642D01*
X144245Y121746D01*
X144249Y121796D01*
X144261Y121844D01*
X144271Y122005D01*
X144271Y130970D01*
X144259Y131068D01*
X144256Y131167D01*
X144239Y131225D01*
X144231Y131285D01*
X144195Y131377D01*
X144167Y131473D01*
X144137Y131525D01*
X144114Y131581D01*
X144056Y131661D01*
X144006Y131746D01*
X143940Y131822D01*
X143928Y131838D01*
X143918Y131846D01*
X143900Y131867D01*
X136306Y139460D01*
X136197Y139546D01*
X136090Y139634D01*
X136071Y139643D01*
X136055Y139655D01*
X135927Y139711D01*
X135802Y139770D01*
X135782Y139774D01*
X135763Y139782D01*
X135625Y139804D01*
X135489Y139830D01*
X135469Y139828D01*
X135449Y139831D01*
X135310Y139818D01*
X135172Y139810D01*
X135153Y139804D01*
X135133Y139802D01*
X135001Y139754D01*
X134870Y139712D01*
X134852Y139701D01*
X134833Y139694D01*
X134718Y139616D01*
X134601Y139542D01*
X134587Y139527D01*
X134570Y139515D01*
X134478Y139411D01*
X134383Y139310D01*
X134373Y139292D01*
X134360Y139277D01*
X134296Y139153D01*
X134229Y139031D01*
X134224Y139012D01*
X134215Y138994D01*
X134185Y138858D01*
X134150Y138724D01*
X134148Y138695D01*
X134145Y138684D01*
X134146Y138663D01*
X134140Y138563D01*
X134140Y133792D01*
X131302Y126941D01*
X126058Y121697D01*
X119207Y118859D01*
X111791Y118859D01*
X104940Y121697D01*
X99696Y126941D01*
X96858Y133792D01*
X96858Y141208D01*
X99696Y148059D01*
X104940Y153303D01*
X111791Y156141D01*
X119380Y156141D01*
X119498Y156156D01*
X119617Y156163D01*
X119655Y156176D01*
X119696Y156181D01*
X119806Y156224D01*
X119919Y156261D01*
X119954Y156283D01*
X119991Y156298D01*
X120087Y156367D01*
X120188Y156431D01*
X120216Y156461D01*
X120249Y156484D01*
X120325Y156576D01*
X120406Y156663D01*
X120426Y156698D01*
X120451Y156729D01*
X120502Y156837D01*
X120560Y156941D01*
X120570Y156981D01*
X120587Y157017D01*
X120609Y157134D01*
X120639Y157249D01*
X120643Y157309D01*
X120647Y157329D01*
X120645Y157350D01*
X120649Y157410D01*
X120649Y196638D01*
X123253Y199242D01*
X133120Y209109D01*
X133138Y209132D01*
X133160Y209151D01*
X133235Y209257D01*
X133315Y209360D01*
X133326Y209387D01*
X133343Y209411D01*
X133389Y209533D01*
X133441Y209652D01*
X133446Y209681D01*
X133456Y209709D01*
X133470Y209838D01*
X133491Y209966D01*
X133488Y209996D01*
X133491Y210025D01*
X133473Y210153D01*
X133461Y210283D01*
X133451Y210311D01*
X133447Y210340D01*
X133395Y210492D01*
X133059Y211302D01*
X133059Y215098D01*
X134512Y218604D01*
X137196Y221288D01*
X140702Y222741D01*
X144498Y222741D01*
X148004Y221288D01*
X150688Y218604D01*
X151024Y217794D01*
X151038Y217769D01*
X151048Y217741D01*
X151117Y217631D01*
X151181Y217518D01*
X151202Y217497D01*
X151218Y217472D01*
X151313Y217383D01*
X151403Y217290D01*
X151428Y217274D01*
X151449Y217254D01*
X151563Y217191D01*
X151674Y217123D01*
X151702Y217115D01*
X151728Y217100D01*
X151854Y217068D01*
X151978Y217030D01*
X152007Y217028D01*
X152036Y217021D01*
X152196Y217011D01*
X241282Y217011D01*
X241380Y217023D01*
X241479Y217026D01*
X241537Y217043D01*
X241597Y217051D01*
X241689Y217087D01*
X241784Y217115D01*
X241837Y217145D01*
X241893Y217168D01*
X241973Y217226D01*
X242058Y217276D01*
X242134Y217342D01*
X242150Y217354D01*
X242158Y217364D01*
X242179Y217382D01*
X243086Y218290D01*
X245223Y219175D01*
X247537Y219175D01*
X249674Y218290D01*
X251310Y216654D01*
X252195Y214517D01*
X252195Y212203D01*
X251310Y210066D01*
X249674Y208430D01*
X247537Y207545D01*
X245223Y207545D01*
X243086Y208430D01*
X242499Y209018D01*
X242421Y209078D01*
X242349Y209146D01*
X242296Y209175D01*
X242248Y209212D01*
X242157Y209252D01*
X242070Y209300D01*
X242012Y209315D01*
X241956Y209339D01*
X241858Y209354D01*
X241762Y209379D01*
X241662Y209385D01*
X241642Y209389D01*
X241630Y209387D01*
X241602Y209389D01*
X152196Y209389D01*
X152167Y209386D01*
X152138Y209388D01*
X152010Y209366D01*
X151881Y209349D01*
X151854Y209339D01*
X151824Y209334D01*
X151706Y209280D01*
X151585Y209232D01*
X151561Y209215D01*
X151534Y209203D01*
X151433Y209122D01*
X151328Y209046D01*
X151309Y209023D01*
X151286Y209004D01*
X151208Y208901D01*
X151125Y208801D01*
X151113Y208774D01*
X151095Y208750D01*
X151024Y208606D01*
X150688Y207796D01*
X148004Y205112D01*
X146220Y204373D01*
X146100Y204304D01*
X145976Y204239D01*
X145961Y204225D01*
X145944Y204215D01*
X145844Y204119D01*
X145741Y204025D01*
X145730Y204008D01*
X145715Y203994D01*
X145643Y203875D01*
X145566Y203759D01*
X145560Y203740D01*
X145549Y203723D01*
X145508Y203590D01*
X145463Y203458D01*
X145461Y203438D01*
X145455Y203419D01*
X145449Y203280D01*
X145438Y203141D01*
X145441Y203121D01*
X145440Y203101D01*
X145468Y202965D01*
X145492Y202828D01*
X145501Y202809D01*
X145505Y202790D01*
X145566Y202665D01*
X145623Y202538D01*
X145635Y202522D01*
X145644Y202504D01*
X145735Y202398D01*
X145821Y202290D01*
X145838Y202277D01*
X145851Y202262D01*
X145964Y202182D01*
X146075Y202098D01*
X146101Y202086D01*
X146111Y202079D01*
X146130Y202072D01*
X146220Y202027D01*
X148004Y201288D01*
X150688Y198604D01*
X151024Y197794D01*
X151038Y197769D01*
X151048Y197741D01*
X151117Y197631D01*
X151181Y197518D01*
X151202Y197497D01*
X151218Y197472D01*
X151312Y197383D01*
X151403Y197290D01*
X151428Y197274D01*
X151449Y197254D01*
X151563Y197191D01*
X151674Y197123D01*
X151702Y197115D01*
X151728Y197100D01*
X151853Y197068D01*
X151978Y197030D01*
X152007Y197028D01*
X152036Y197021D01*
X152196Y197011D01*
X239062Y197011D01*
X239160Y197023D01*
X239259Y197026D01*
X239317Y197043D01*
X239377Y197051D01*
X239469Y197087D01*
X239564Y197115D01*
X239617Y197145D01*
X239673Y197168D01*
X239753Y197226D01*
X239838Y197276D01*
X239914Y197342D01*
X239930Y197354D01*
X239938Y197364D01*
X239959Y197382D01*
X240546Y197970D01*
X242683Y198855D01*
X244997Y198855D01*
X247134Y197970D01*
X248770Y196334D01*
X249655Y194197D01*
X249655Y191883D01*
X248770Y189746D01*
X247134Y188110D01*
X244997Y187225D01*
X242683Y187225D01*
X240546Y188110D01*
X239639Y189018D01*
X239561Y189078D01*
X239489Y189146D01*
X239436Y189175D01*
X239388Y189212D01*
X239297Y189252D01*
X239210Y189300D01*
X239152Y189315D01*
X239096Y189339D01*
X238998Y189354D01*
X238902Y189379D01*
X238802Y189385D01*
X238782Y189389D01*
X238770Y189387D01*
X238742Y189389D01*
X152196Y189389D01*
X152167Y189386D01*
X152138Y189388D01*
X152010Y189366D01*
X151881Y189349D01*
X151853Y189339D01*
X151824Y189334D01*
X151706Y189280D01*
X151585Y189232D01*
X151561Y189215D01*
X151534Y189203D01*
X151433Y189122D01*
X151328Y189046D01*
X151309Y189023D01*
X151286Y189004D01*
X151208Y188901D01*
X151125Y188801D01*
X151112Y188774D01*
X151095Y188750D01*
X151024Y188606D01*
X150688Y187796D01*
X148004Y185112D01*
X144498Y183659D01*
X140702Y183659D01*
X139892Y183995D01*
X139864Y184003D01*
X139837Y184016D01*
X139711Y184045D01*
X139585Y184079D01*
X139556Y184079D01*
X139527Y184086D01*
X139397Y184082D01*
X139267Y184084D01*
X139239Y184077D01*
X139209Y184076D01*
X139085Y184040D01*
X138958Y184010D01*
X138932Y183996D01*
X138904Y183988D01*
X138792Y183922D01*
X138677Y183861D01*
X138655Y183841D01*
X138630Y183826D01*
X138509Y183720D01*
X133722Y178933D01*
X133662Y178855D01*
X133594Y178783D01*
X133565Y178730D01*
X133528Y178682D01*
X133488Y178591D01*
X133440Y178504D01*
X133425Y178446D01*
X133401Y178390D01*
X133386Y178292D01*
X133361Y178196D01*
X133355Y178096D01*
X133351Y178076D01*
X133353Y178064D01*
X133351Y178036D01*
X133351Y175508D01*
X133368Y175370D01*
X133381Y175231D01*
X133388Y175212D01*
X133391Y175192D01*
X133442Y175063D01*
X133489Y174932D01*
X133500Y174915D01*
X133508Y174896D01*
X133589Y174784D01*
X133667Y174669D01*
X133683Y174655D01*
X133694Y174639D01*
X133802Y174550D01*
X133906Y174458D01*
X133924Y174449D01*
X133939Y174436D01*
X134065Y174377D01*
X134189Y174314D01*
X134209Y174309D01*
X134227Y174301D01*
X134364Y174275D01*
X134499Y174244D01*
X134520Y174245D01*
X134539Y174241D01*
X134678Y174250D01*
X134817Y174254D01*
X134837Y174259D01*
X134857Y174261D01*
X134989Y174303D01*
X135123Y174342D01*
X135140Y174352D01*
X135159Y174359D01*
X135277Y174433D01*
X135397Y174504D01*
X135418Y174522D01*
X135428Y174529D01*
X135442Y174544D01*
X135517Y174610D01*
X137196Y176288D01*
X140702Y177741D01*
X144498Y177741D01*
X148004Y176288D01*
X150688Y173604D01*
X152141Y170098D01*
X152141Y166302D01*
X150688Y162796D01*
X148004Y160112D01*
X144498Y158659D01*
X140702Y158659D01*
X136983Y160200D01*
X136916Y160218D01*
X136852Y160246D01*
X136763Y160260D01*
X136676Y160284D01*
X136606Y160285D01*
X136537Y160296D01*
X136448Y160287D01*
X136358Y160289D01*
X136290Y160273D01*
X136221Y160266D01*
X136136Y160236D01*
X136049Y160215D01*
X135987Y160182D01*
X135922Y160158D01*
X135847Y160108D01*
X135768Y160066D01*
X135716Y160019D01*
X135658Y159980D01*
X135599Y159913D01*
X135532Y159852D01*
X135494Y159794D01*
X135448Y159741D01*
X135407Y159662D01*
X135358Y159586D01*
X135335Y159520D01*
X135303Y159458D01*
X135284Y159371D01*
X135254Y159286D01*
X135249Y159216D01*
X135234Y159148D01*
X135236Y159058D01*
X135229Y158969D01*
X135241Y158900D01*
X135243Y158830D01*
X135268Y158744D01*
X135284Y158655D01*
X135312Y158592D01*
X135332Y158525D01*
X135377Y158447D01*
X135414Y158365D01*
X135458Y158311D01*
X135493Y158251D01*
X135600Y158130D01*
X189231Y104499D01*
X189231Y93964D01*
X189248Y93827D01*
X189261Y93688D01*
X189268Y93669D01*
X189271Y93649D01*
X189322Y93520D01*
X189369Y93389D01*
X189380Y93372D01*
X189388Y93353D01*
X189469Y93241D01*
X189547Y93126D01*
X189563Y93112D01*
X189574Y93096D01*
X189682Y93007D01*
X189786Y92915D01*
X189804Y92906D01*
X189819Y92893D01*
X189945Y92834D01*
X190069Y92771D01*
X190089Y92766D01*
X190107Y92757D01*
X190243Y92731D01*
X190379Y92701D01*
X190400Y92702D01*
X190419Y92698D01*
X190558Y92706D01*
X190697Y92711D01*
X190717Y92716D01*
X190737Y92717D01*
X190869Y92760D01*
X191003Y92799D01*
X191020Y92809D01*
X191039Y92815D01*
X191157Y92890D01*
X191277Y92961D01*
X191298Y92979D01*
X191308Y92986D01*
X191322Y93001D01*
X191397Y93067D01*
X194591Y96261D01*
X203009Y96261D01*
X208961Y90309D01*
X208961Y81891D01*
X205177Y78107D01*
X205092Y77998D01*
X205003Y77891D01*
X204994Y77872D01*
X204982Y77856D01*
X204927Y77728D01*
X204867Y77603D01*
X204864Y77583D01*
X204856Y77564D01*
X204834Y77426D01*
X204808Y77290D01*
X204809Y77270D01*
X204806Y77250D01*
X204819Y77111D01*
X204827Y76973D01*
X204834Y76954D01*
X204836Y76934D01*
X204883Y76802D01*
X204925Y76671D01*
X204936Y76653D01*
X204943Y76634D01*
X205021Y76519D01*
X205096Y76402D01*
X205110Y76388D01*
X205122Y76371D01*
X205226Y76279D01*
X205327Y76184D01*
X205345Y76174D01*
X205360Y76161D01*
X205484Y76097D01*
X205606Y76030D01*
X205625Y76025D01*
X205643Y76016D01*
X205779Y75986D01*
X205914Y75951D01*
X205942Y75949D01*
X205954Y75946D01*
X205974Y75947D01*
X206074Y75941D01*
X216926Y75941D01*
X217063Y75958D01*
X217202Y75971D01*
X217221Y75978D01*
X217241Y75981D01*
X217370Y76032D01*
X217501Y76079D01*
X217518Y76090D01*
X217537Y76098D01*
X217649Y76179D01*
X217764Y76257D01*
X217778Y76273D01*
X217794Y76284D01*
X217883Y76392D01*
X217975Y76496D01*
X217984Y76514D01*
X217997Y76529D01*
X218056Y76655D01*
X218119Y76779D01*
X218124Y76799D01*
X218133Y76817D01*
X218159Y76953D01*
X218189Y77089D01*
X218188Y77110D01*
X218192Y77129D01*
X218184Y77268D01*
X218179Y77407D01*
X218174Y77427D01*
X218173Y77447D01*
X218130Y77579D01*
X218091Y77713D01*
X218081Y77730D01*
X218075Y77749D01*
X218000Y77867D01*
X217929Y77987D01*
X217911Y78008D01*
X217904Y78018D01*
X217889Y78032D01*
X217823Y78107D01*
X214039Y81891D01*
X214039Y90309D01*
X219991Y96261D01*
X228409Y96261D01*
X234361Y90309D01*
X234361Y81891D01*
X230359Y77890D01*
X230286Y77795D01*
X230207Y77706D01*
X230189Y77670D01*
X230164Y77638D01*
X230117Y77529D01*
X230063Y77423D01*
X230054Y77384D01*
X230038Y77347D01*
X230019Y77229D01*
X229993Y77113D01*
X229994Y77072D01*
X229988Y77032D01*
X229999Y76914D01*
X230003Y76795D01*
X230014Y76756D01*
X230018Y76716D01*
X230058Y76604D01*
X230091Y76489D01*
X230112Y76455D01*
X230125Y76417D01*
X230192Y76318D01*
X230253Y76215D01*
X230293Y76170D01*
X230304Y76153D01*
X230319Y76140D01*
X230359Y76095D01*
X239595Y66859D01*
X239689Y66786D01*
X239778Y66707D01*
X239814Y66689D01*
X239846Y66664D01*
X239955Y66617D01*
X240061Y66563D01*
X240101Y66554D01*
X240138Y66538D01*
X240256Y66519D01*
X240371Y66493D01*
X240412Y66494D01*
X240452Y66488D01*
X240570Y66499D01*
X240689Y66503D01*
X240728Y66514D01*
X240768Y66518D01*
X240881Y66558D01*
X240995Y66591D01*
X241030Y66612D01*
X241068Y66625D01*
X241166Y66692D01*
X241269Y66753D01*
X241314Y66792D01*
X241331Y66804D01*
X241344Y66819D01*
X241390Y66859D01*
X245391Y70861D01*
X253809Y70861D01*
X259761Y64909D01*
X259761Y56491D01*
X257507Y54237D01*
X257422Y54128D01*
X257333Y54021D01*
X257324Y54002D01*
X257312Y53986D01*
X257257Y53858D01*
X257197Y53733D01*
X257194Y53713D01*
X257186Y53694D01*
X257164Y53556D01*
X257138Y53420D01*
X257139Y53400D01*
X257136Y53380D01*
X257149Y53241D01*
X257157Y53103D01*
X257164Y53084D01*
X257166Y53064D01*
X257213Y52932D01*
X257255Y52801D01*
X257266Y52783D01*
X257273Y52764D01*
X257351Y52649D01*
X257426Y52532D01*
X257440Y52518D01*
X257452Y52501D01*
X257556Y52409D01*
X257657Y52314D01*
X257675Y52304D01*
X257690Y52291D01*
X257814Y52227D01*
X257936Y52160D01*
X257955Y52155D01*
X257973Y52146D01*
X258109Y52116D01*
X258244Y52081D01*
X258272Y52079D01*
X258284Y52076D01*
X258304Y52077D01*
X258404Y52071D01*
X260456Y52071D01*
X260554Y52083D01*
X260653Y52086D01*
X260711Y52103D01*
X260771Y52111D01*
X260863Y52147D01*
X260959Y52175D01*
X261011Y52205D01*
X261067Y52228D01*
X261147Y52286D01*
X261232Y52336D01*
X261308Y52402D01*
X261324Y52414D01*
X261332Y52424D01*
X261353Y52442D01*
X264468Y55557D01*
X264528Y55635D01*
X264596Y55707D01*
X264625Y55760D01*
X264662Y55808D01*
X264702Y55899D01*
X264750Y55986D01*
X264765Y56044D01*
X264789Y56100D01*
X264804Y56198D01*
X264829Y56294D01*
X264835Y56394D01*
X264839Y56414D01*
X264837Y56426D01*
X264839Y56454D01*
X264839Y64909D01*
X270791Y70861D01*
X279209Y70861D01*
X285161Y64909D01*
X285161Y56491D01*
X279209Y50539D01*
X270754Y50539D01*
X270656Y50527D01*
X270557Y50524D01*
X270499Y50507D01*
X270439Y50499D01*
X270347Y50463D01*
X270251Y50435D01*
X270199Y50405D01*
X270143Y50382D01*
X270063Y50324D01*
X269978Y50274D01*
X269902Y50208D01*
X269886Y50196D01*
X269878Y50186D01*
X269857Y50168D01*
X264138Y44449D01*
X166062Y44449D01*
G37*
%LPD*%
%LPC*%
G36*
X111791Y250259D02*
X111791Y250259D01*
X104940Y253097D01*
X99696Y258341D01*
X96858Y265192D01*
X96858Y272608D01*
X99696Y279459D01*
X104940Y284703D01*
X111791Y287541D01*
X119207Y287541D01*
X126058Y284703D01*
X131302Y279459D01*
X134140Y272608D01*
X134140Y265192D01*
X131302Y258341D01*
X126058Y253097D01*
X119207Y250259D01*
X111791Y250259D01*
G37*
%LPD*%
%LPC*%
G36*
X139328Y304539D02*
X139328Y304539D01*
X137839Y306028D01*
X137839Y323372D01*
X139328Y324861D01*
X156672Y324861D01*
X158161Y323372D01*
X158161Y306028D01*
X156672Y304539D01*
X139328Y304539D01*
G37*
%LPD*%
%LPC*%
G36*
X550191Y329939D02*
X550191Y329939D01*
X544239Y335891D01*
X544239Y344309D01*
X550191Y350261D01*
X558609Y350261D01*
X564561Y344309D01*
X564561Y335891D01*
X558609Y329939D01*
X550191Y329939D01*
G37*
%LPD*%
%LPC*%
G36*
X524791Y329939D02*
X524791Y329939D01*
X518839Y335891D01*
X518839Y344309D01*
X524791Y350261D01*
X533209Y350261D01*
X539161Y344309D01*
X539161Y335891D01*
X533209Y329939D01*
X524791Y329939D01*
G37*
%LPD*%
%LPC*%
G36*
X499391Y329939D02*
X499391Y329939D01*
X493439Y335891D01*
X493439Y344309D01*
X499391Y350261D01*
X507809Y350261D01*
X513761Y344309D01*
X513761Y335891D01*
X507809Y329939D01*
X499391Y329939D01*
G37*
%LPD*%
%LPC*%
G36*
X473991Y329939D02*
X473991Y329939D01*
X468039Y335891D01*
X468039Y344309D01*
X473991Y350261D01*
X482409Y350261D01*
X488361Y344309D01*
X488361Y335891D01*
X482409Y329939D01*
X473991Y329939D01*
G37*
%LPD*%
%LPC*%
G36*
X448591Y329939D02*
X448591Y329939D01*
X442639Y335891D01*
X442639Y344309D01*
X448591Y350261D01*
X457009Y350261D01*
X462961Y344309D01*
X462961Y335891D01*
X457009Y329939D01*
X448591Y329939D01*
G37*
%LPD*%
%LPC*%
G36*
X423191Y329939D02*
X423191Y329939D01*
X417239Y335891D01*
X417239Y344309D01*
X423191Y350261D01*
X431609Y350261D01*
X437561Y344309D01*
X437561Y335891D01*
X431609Y329939D01*
X423191Y329939D01*
G37*
%LPD*%
%LPC*%
G36*
X397791Y329939D02*
X397791Y329939D01*
X391839Y335891D01*
X391839Y344309D01*
X397791Y350261D01*
X406209Y350261D01*
X412161Y344309D01*
X412161Y335891D01*
X406209Y329939D01*
X397791Y329939D01*
G37*
%LPD*%
%LPC*%
G36*
X372391Y329939D02*
X372391Y329939D01*
X366439Y335891D01*
X366439Y344309D01*
X372391Y350261D01*
X380809Y350261D01*
X386761Y344309D01*
X386761Y335891D01*
X380809Y329939D01*
X372391Y329939D01*
G37*
%LPD*%
%LPC*%
G36*
X346991Y329939D02*
X346991Y329939D01*
X341039Y335891D01*
X341039Y344309D01*
X346991Y350261D01*
X355409Y350261D01*
X361361Y344309D01*
X361361Y335891D01*
X355409Y329939D01*
X346991Y329939D01*
G37*
%LPD*%
%LPC*%
G36*
X321591Y329939D02*
X321591Y329939D01*
X315639Y335891D01*
X315639Y344309D01*
X321591Y350261D01*
X330009Y350261D01*
X335961Y344309D01*
X335961Y335891D01*
X330009Y329939D01*
X321591Y329939D01*
G37*
%LPD*%
%LPC*%
G36*
X296191Y329939D02*
X296191Y329939D01*
X290239Y335891D01*
X290239Y344309D01*
X296191Y350261D01*
X304609Y350261D01*
X310561Y344309D01*
X310561Y335891D01*
X304609Y329939D01*
X296191Y329939D01*
G37*
%LPD*%
%LPC*%
G36*
X270791Y329939D02*
X270791Y329939D01*
X264839Y335891D01*
X264839Y344309D01*
X270791Y350261D01*
X279209Y350261D01*
X285161Y344309D01*
X285161Y335891D01*
X279209Y329939D01*
X270791Y329939D01*
G37*
%LPD*%
%LPC*%
G36*
X245391Y329939D02*
X245391Y329939D01*
X239439Y335891D01*
X239439Y344309D01*
X245391Y350261D01*
X253809Y350261D01*
X259761Y344309D01*
X259761Y335891D01*
X253809Y329939D01*
X245391Y329939D01*
G37*
%LPD*%
%LPC*%
G36*
X219991Y329939D02*
X219991Y329939D01*
X214039Y335891D01*
X214039Y344309D01*
X219991Y350261D01*
X228409Y350261D01*
X234361Y344309D01*
X234361Y335891D01*
X228409Y329939D01*
X219991Y329939D01*
G37*
%LPD*%
%LPC*%
G36*
X194591Y329939D02*
X194591Y329939D01*
X188639Y335891D01*
X188639Y344309D01*
X194591Y350261D01*
X203009Y350261D01*
X208961Y344309D01*
X208961Y335891D01*
X203009Y329939D01*
X194591Y329939D01*
G37*
%LPD*%
%LPC*%
G36*
X245391Y304539D02*
X245391Y304539D01*
X239439Y310491D01*
X239439Y318909D01*
X245391Y324861D01*
X253809Y324861D01*
X259761Y318909D01*
X259761Y310491D01*
X253809Y304539D01*
X245391Y304539D01*
G37*
%LPD*%
%LPC*%
G36*
X169191Y304539D02*
X169191Y304539D01*
X163239Y310491D01*
X163239Y318909D01*
X169191Y324861D01*
X177609Y324861D01*
X183561Y318909D01*
X183561Y310491D01*
X177609Y304539D01*
X169191Y304539D01*
G37*
%LPD*%
%LPC*%
G36*
X575591Y304539D02*
X575591Y304539D01*
X569639Y310491D01*
X569639Y318909D01*
X575591Y324861D01*
X584009Y324861D01*
X589961Y318909D01*
X589961Y310491D01*
X584009Y304539D01*
X575591Y304539D01*
G37*
%LPD*%
%LPC*%
G36*
X550191Y304539D02*
X550191Y304539D01*
X544239Y310491D01*
X544239Y318909D01*
X550191Y324861D01*
X558609Y324861D01*
X564561Y318909D01*
X564561Y310491D01*
X558609Y304539D01*
X550191Y304539D01*
G37*
%LPD*%
%LPC*%
G36*
X524791Y304539D02*
X524791Y304539D01*
X518839Y310491D01*
X518839Y318909D01*
X524791Y324861D01*
X533209Y324861D01*
X539161Y318909D01*
X539161Y310491D01*
X533209Y304539D01*
X524791Y304539D01*
G37*
%LPD*%
%LPC*%
G36*
X499391Y304539D02*
X499391Y304539D01*
X493439Y310491D01*
X493439Y318909D01*
X499391Y324861D01*
X507809Y324861D01*
X513761Y318909D01*
X513761Y310491D01*
X507809Y304539D01*
X499391Y304539D01*
G37*
%LPD*%
%LPC*%
G36*
X473991Y304539D02*
X473991Y304539D01*
X468039Y310491D01*
X468039Y318909D01*
X473991Y324861D01*
X482409Y324861D01*
X488361Y318909D01*
X488361Y310491D01*
X482409Y304539D01*
X473991Y304539D01*
G37*
%LPD*%
%LPC*%
G36*
X448591Y304539D02*
X448591Y304539D01*
X442639Y310491D01*
X442639Y318909D01*
X448591Y324861D01*
X457009Y324861D01*
X462961Y318909D01*
X462961Y310491D01*
X457009Y304539D01*
X448591Y304539D01*
G37*
%LPD*%
%LPC*%
G36*
X423191Y304539D02*
X423191Y304539D01*
X417239Y310491D01*
X417239Y318909D01*
X423191Y324861D01*
X431609Y324861D01*
X437561Y318909D01*
X437561Y310491D01*
X431609Y304539D01*
X423191Y304539D01*
G37*
%LPD*%
%LPC*%
G36*
X372391Y50539D02*
X372391Y50539D01*
X366439Y56491D01*
X366439Y64909D01*
X372391Y70861D01*
X380809Y70861D01*
X386761Y64909D01*
X386761Y56491D01*
X380809Y50539D01*
X372391Y50539D01*
G37*
%LPD*%
%LPC*%
G36*
X397791Y50539D02*
X397791Y50539D01*
X391839Y56491D01*
X391839Y64909D01*
X397791Y70861D01*
X406209Y70861D01*
X412161Y64909D01*
X412161Y56491D01*
X406209Y50539D01*
X397791Y50539D01*
G37*
%LPD*%
%LPC*%
G36*
X372391Y304539D02*
X372391Y304539D01*
X366439Y310491D01*
X366439Y318909D01*
X372391Y324861D01*
X380809Y324861D01*
X386761Y318909D01*
X386761Y310491D01*
X380809Y304539D01*
X372391Y304539D01*
G37*
%LPD*%
%LPC*%
G36*
X346991Y304539D02*
X346991Y304539D01*
X341039Y310491D01*
X341039Y318909D01*
X346991Y324861D01*
X355409Y324861D01*
X361361Y318909D01*
X361361Y310491D01*
X355409Y304539D01*
X346991Y304539D01*
G37*
%LPD*%
%LPC*%
G36*
X423191Y50539D02*
X423191Y50539D01*
X417239Y56491D01*
X417239Y64909D01*
X423191Y70861D01*
X431609Y70861D01*
X437561Y64909D01*
X437561Y56491D01*
X431609Y50539D01*
X423191Y50539D01*
G37*
%LPD*%
%LPC*%
G36*
X448591Y50539D02*
X448591Y50539D01*
X442639Y56491D01*
X442639Y64909D01*
X448591Y70861D01*
X457009Y70861D01*
X462961Y64909D01*
X462961Y56491D01*
X457009Y50539D01*
X448591Y50539D01*
G37*
%LPD*%
%LPC*%
G36*
X296191Y304539D02*
X296191Y304539D01*
X290239Y310491D01*
X290239Y318909D01*
X296191Y324861D01*
X304609Y324861D01*
X310561Y318909D01*
X310561Y310491D01*
X304609Y304539D01*
X296191Y304539D01*
G37*
%LPD*%
%LPC*%
G36*
X270791Y304539D02*
X270791Y304539D01*
X264839Y310491D01*
X264839Y318909D01*
X270791Y324861D01*
X279209Y324861D01*
X285161Y318909D01*
X285161Y310491D01*
X279209Y304539D01*
X270791Y304539D01*
G37*
%LPD*%
%LPC*%
G36*
X219991Y304539D02*
X219991Y304539D01*
X214039Y310491D01*
X214039Y318909D01*
X219991Y324861D01*
X228409Y324861D01*
X234361Y318909D01*
X234361Y310491D01*
X228409Y304539D01*
X219991Y304539D01*
G37*
%LPD*%
%LPC*%
G36*
X194591Y304539D02*
X194591Y304539D01*
X188639Y310491D01*
X188639Y318909D01*
X194591Y324861D01*
X203009Y324861D01*
X208961Y318909D01*
X208961Y310491D01*
X203009Y304539D01*
X194591Y304539D01*
G37*
%LPD*%
%LPC*%
G36*
X575591Y329939D02*
X575591Y329939D01*
X569639Y335891D01*
X569639Y344309D01*
X575591Y350261D01*
X584009Y350261D01*
X589961Y344309D01*
X589961Y335891D01*
X584009Y329939D01*
X575591Y329939D01*
G37*
%LPD*%
%LPC*%
G36*
X473991Y50539D02*
X473991Y50539D01*
X468039Y56491D01*
X468039Y64909D01*
X473991Y70861D01*
X482409Y70861D01*
X488361Y64909D01*
X488361Y56491D01*
X482409Y50539D01*
X473991Y50539D01*
G37*
%LPD*%
%LPC*%
G36*
X499391Y50539D02*
X499391Y50539D01*
X493439Y56491D01*
X493439Y64909D01*
X499391Y70861D01*
X507809Y70861D01*
X513761Y64909D01*
X513761Y56491D01*
X507809Y50539D01*
X499391Y50539D01*
G37*
%LPD*%
%LPC*%
G36*
X524791Y50539D02*
X524791Y50539D01*
X518839Y56491D01*
X518839Y64909D01*
X524791Y70861D01*
X533209Y70861D01*
X539161Y64909D01*
X539161Y56491D01*
X533209Y50539D01*
X524791Y50539D01*
G37*
%LPD*%
%LPC*%
G36*
X550191Y50539D02*
X550191Y50539D01*
X544239Y56491D01*
X544239Y64909D01*
X550191Y70861D01*
X558609Y70861D01*
X564561Y64909D01*
X564561Y56491D01*
X558609Y50539D01*
X550191Y50539D01*
G37*
%LPD*%
%LPC*%
G36*
X143791Y329939D02*
X143791Y329939D01*
X137839Y335891D01*
X137839Y344309D01*
X143791Y350261D01*
X152209Y350261D01*
X158161Y344309D01*
X158161Y335891D01*
X152209Y329939D01*
X143791Y329939D01*
G37*
%LPD*%
%LPC*%
G36*
X575591Y50539D02*
X575591Y50539D01*
X569639Y56491D01*
X569639Y64909D01*
X575591Y70861D01*
X584009Y70861D01*
X589961Y64909D01*
X589961Y56491D01*
X584009Y50539D01*
X575591Y50539D01*
G37*
%LPD*%
%LPC*%
G36*
X346991Y50539D02*
X346991Y50539D01*
X341039Y56491D01*
X341039Y64909D01*
X346991Y70861D01*
X355409Y70861D01*
X361361Y64909D01*
X361361Y56491D01*
X355409Y50539D01*
X346991Y50539D01*
G37*
%LPD*%
%LPC*%
G36*
X296191Y50539D02*
X296191Y50539D01*
X290239Y56491D01*
X290239Y64909D01*
X296191Y70861D01*
X304609Y70861D01*
X310561Y64909D01*
X310561Y56491D01*
X304609Y50539D01*
X296191Y50539D01*
G37*
%LPD*%
%LPC*%
G36*
X296191Y75939D02*
X296191Y75939D01*
X290239Y81891D01*
X290239Y90309D01*
X296191Y96261D01*
X304609Y96261D01*
X310561Y90309D01*
X310561Y81891D01*
X304609Y75939D01*
X296191Y75939D01*
G37*
%LPD*%
%LPC*%
G36*
X270791Y75939D02*
X270791Y75939D01*
X264839Y81891D01*
X264839Y90309D01*
X270791Y96261D01*
X279209Y96261D01*
X285161Y90309D01*
X285161Y81891D01*
X279209Y75939D01*
X270791Y75939D01*
G37*
%LPD*%
%LPC*%
G36*
X245391Y75939D02*
X245391Y75939D01*
X239439Y81891D01*
X239439Y90309D01*
X245391Y96261D01*
X253809Y96261D01*
X259761Y90309D01*
X259761Y81891D01*
X253809Y75939D01*
X245391Y75939D01*
G37*
%LPD*%
%LPC*%
G36*
X372391Y75939D02*
X372391Y75939D01*
X366439Y81891D01*
X366439Y90309D01*
X372391Y96261D01*
X380809Y96261D01*
X386761Y90309D01*
X386761Y81891D01*
X380809Y75939D01*
X372391Y75939D01*
G37*
%LPD*%
%LPC*%
G36*
X499391Y75939D02*
X499391Y75939D01*
X493439Y81891D01*
X493439Y90309D01*
X499391Y96261D01*
X507809Y96261D01*
X513761Y90309D01*
X513761Y81891D01*
X507809Y75939D01*
X499391Y75939D01*
G37*
%LPD*%
%LPC*%
G36*
X169191Y329939D02*
X169191Y329939D01*
X163239Y335891D01*
X163239Y344309D01*
X169191Y350261D01*
X177609Y350261D01*
X183561Y344309D01*
X183561Y335891D01*
X177609Y329939D01*
X169191Y329939D01*
G37*
%LPD*%
%LPC*%
G36*
X448591Y75939D02*
X448591Y75939D01*
X442639Y81891D01*
X442639Y90309D01*
X448591Y96261D01*
X457009Y96261D01*
X462961Y90309D01*
X462961Y81891D01*
X457009Y75939D01*
X448591Y75939D01*
G37*
%LPD*%
%LPC*%
G36*
X346991Y75939D02*
X346991Y75939D01*
X341039Y81891D01*
X341039Y90309D01*
X346991Y96261D01*
X355409Y96261D01*
X361361Y90309D01*
X361361Y81891D01*
X355409Y75939D01*
X346991Y75939D01*
G37*
%LPD*%
%LPC*%
G36*
X423191Y75939D02*
X423191Y75939D01*
X417239Y81891D01*
X417239Y90309D01*
X423191Y96261D01*
X431609Y96261D01*
X437561Y90309D01*
X437561Y81891D01*
X431609Y75939D01*
X423191Y75939D01*
G37*
%LPD*%
%LPC*%
G36*
X473991Y75939D02*
X473991Y75939D01*
X468039Y81891D01*
X468039Y90309D01*
X473991Y96261D01*
X482409Y96261D01*
X488361Y90309D01*
X488361Y81891D01*
X482409Y75939D01*
X473991Y75939D01*
G37*
%LPD*%
%LPC*%
G36*
X575591Y75939D02*
X575591Y75939D01*
X569639Y81891D01*
X569639Y90309D01*
X575591Y96261D01*
X584009Y96261D01*
X589961Y90309D01*
X589961Y81891D01*
X584009Y75939D01*
X575591Y75939D01*
G37*
%LPD*%
%LPC*%
G36*
X550191Y75939D02*
X550191Y75939D01*
X544239Y81891D01*
X544239Y90309D01*
X550191Y96261D01*
X558609Y96261D01*
X564561Y90309D01*
X564561Y81891D01*
X558609Y75939D01*
X550191Y75939D01*
G37*
%LPD*%
%LPC*%
G36*
X524791Y75939D02*
X524791Y75939D01*
X518839Y81891D01*
X518839Y90309D01*
X524791Y96261D01*
X533209Y96261D01*
X539161Y90309D01*
X539161Y81891D01*
X533209Y75939D01*
X524791Y75939D01*
G37*
%LPD*%
%LPC*%
G36*
X334355Y162147D02*
X334355Y162147D01*
X331758Y163223D01*
X329771Y165210D01*
X328695Y167807D01*
X328695Y179665D01*
X329771Y182262D01*
X331758Y184249D01*
X334355Y185325D01*
X337165Y185325D01*
X339762Y184249D01*
X341749Y182262D01*
X342825Y179665D01*
X342825Y167807D01*
X341749Y165210D01*
X339762Y163223D01*
X337165Y162147D01*
X334355Y162147D01*
G37*
%LPD*%
%LPC*%
G36*
X359831Y213671D02*
X359831Y213671D01*
X357234Y214747D01*
X355247Y216734D01*
X354171Y219331D01*
X354171Y222141D01*
X355247Y224738D01*
X357234Y226725D01*
X359831Y227801D01*
X371689Y227801D01*
X374286Y226725D01*
X376273Y224738D01*
X377349Y222141D01*
X377349Y219331D01*
X376273Y216734D01*
X374286Y214747D01*
X371689Y213671D01*
X359831Y213671D01*
G37*
%LPD*%
%LPC*%
G36*
X592945Y226567D02*
X592945Y226567D01*
X590331Y227650D01*
X588330Y229651D01*
X587247Y232265D01*
X587247Y235095D01*
X588330Y237709D01*
X590331Y239710D01*
X592945Y240793D01*
X595775Y240793D01*
X598389Y239710D01*
X600390Y237709D01*
X601473Y235095D01*
X601473Y232265D01*
X600390Y229651D01*
X598389Y227650D01*
X595775Y226567D01*
X592945Y226567D01*
G37*
%LPD*%
%LPC*%
G36*
X176385Y132587D02*
X176385Y132587D01*
X173771Y133670D01*
X171770Y135671D01*
X170687Y138285D01*
X170687Y141115D01*
X171770Y143729D01*
X173771Y145730D01*
X176385Y146813D01*
X179215Y146813D01*
X181829Y145730D01*
X183830Y143729D01*
X184913Y141115D01*
X184913Y138285D01*
X183830Y135671D01*
X181829Y133670D01*
X179215Y132587D01*
X176385Y132587D01*
G37*
%LPD*%
%LPC*%
G36*
X491345Y226567D02*
X491345Y226567D01*
X488731Y227650D01*
X486730Y229651D01*
X485647Y232265D01*
X485647Y235095D01*
X486730Y237709D01*
X488731Y239710D01*
X491345Y240793D01*
X494175Y240793D01*
X496789Y239710D01*
X498790Y237709D01*
X499873Y235095D01*
X499873Y232265D01*
X498790Y229651D01*
X496789Y227650D01*
X494175Y226567D01*
X491345Y226567D01*
G37*
%LPD*%
%LPC*%
G36*
X539605Y229107D02*
X539605Y229107D01*
X536991Y230190D01*
X534990Y232191D01*
X533907Y234805D01*
X533907Y237635D01*
X534990Y240249D01*
X536991Y242250D01*
X539605Y243333D01*
X542435Y243333D01*
X545049Y242250D01*
X547050Y240249D01*
X548133Y237635D01*
X548133Y234805D01*
X547050Y232191D01*
X545049Y230190D01*
X542435Y229107D01*
X539605Y229107D01*
G37*
%LPD*%
%LPC*%
G36*
X397259Y175235D02*
X397259Y175235D01*
X397259Y185165D01*
X397821Y185053D01*
X399106Y184521D01*
X400263Y183748D01*
X401248Y182763D01*
X402021Y181606D01*
X402553Y180321D01*
X402825Y178956D01*
X402825Y175235D01*
X397259Y175235D01*
G37*
%LPD*%
%LPC*%
G36*
X397259Y172237D02*
X397259Y172237D01*
X402825Y172237D01*
X402825Y168516D01*
X402553Y167151D01*
X402021Y165866D01*
X401248Y164709D01*
X400263Y163724D01*
X399106Y162951D01*
X397821Y162419D01*
X397259Y162307D01*
X397259Y172237D01*
G37*
%LPD*%
%LPC*%
G36*
X388695Y175235D02*
X388695Y175235D01*
X388695Y178956D01*
X388967Y180321D01*
X389499Y181606D01*
X390272Y182763D01*
X391257Y183748D01*
X392414Y184521D01*
X393699Y185053D01*
X394261Y185165D01*
X394261Y175235D01*
X388695Y175235D01*
G37*
%LPD*%
%LPC*%
G36*
X393699Y162419D02*
X393699Y162419D01*
X392414Y162951D01*
X391257Y163724D01*
X390272Y164709D01*
X389499Y165866D01*
X388967Y167151D01*
X388695Y168516D01*
X388695Y172237D01*
X394261Y172237D01*
X394261Y162307D01*
X393699Y162419D01*
G37*
%LPD*%
%LPC*%
G36*
X404222Y316922D02*
X404222Y316922D01*
X404222Y324861D01*
X406209Y324861D01*
X412161Y318909D01*
X412161Y316922D01*
X404222Y316922D01*
G37*
%LPD*%
%LPC*%
G36*
X328022Y316922D02*
X328022Y316922D01*
X328022Y324861D01*
X330009Y324861D01*
X335961Y318909D01*
X335961Y316922D01*
X328022Y316922D01*
G37*
%LPD*%
%LPC*%
G36*
X404222Y88322D02*
X404222Y88322D01*
X404222Y96261D01*
X406209Y96261D01*
X412161Y90309D01*
X412161Y88322D01*
X404222Y88322D01*
G37*
%LPD*%
%LPC*%
G36*
X328022Y62922D02*
X328022Y62922D01*
X328022Y70861D01*
X330009Y70861D01*
X335961Y64909D01*
X335961Y62922D01*
X328022Y62922D01*
G37*
%LPD*%
%LPC*%
G36*
X328022Y88322D02*
X328022Y88322D01*
X328022Y96261D01*
X330009Y96261D01*
X335961Y90309D01*
X335961Y88322D01*
X328022Y88322D01*
G37*
%LPD*%
%LPC*%
G36*
X328022Y75939D02*
X328022Y75939D01*
X328022Y83878D01*
X335961Y83878D01*
X335961Y81891D01*
X330009Y75939D01*
X328022Y75939D01*
G37*
%LPD*%
%LPC*%
G36*
X404222Y75939D02*
X404222Y75939D01*
X404222Y83878D01*
X412161Y83878D01*
X412161Y81891D01*
X406209Y75939D01*
X404222Y75939D01*
G37*
%LPD*%
%LPC*%
G36*
X328022Y50539D02*
X328022Y50539D01*
X328022Y58478D01*
X335961Y58478D01*
X335961Y56491D01*
X330009Y50539D01*
X328022Y50539D01*
G37*
%LPD*%
%LPC*%
G36*
X391839Y316922D02*
X391839Y316922D01*
X391839Y318909D01*
X397791Y324861D01*
X399778Y324861D01*
X399778Y316922D01*
X391839Y316922D01*
G37*
%LPD*%
%LPC*%
G36*
X315639Y88322D02*
X315639Y88322D01*
X315639Y90309D01*
X321591Y96261D01*
X323578Y96261D01*
X323578Y88322D01*
X315639Y88322D01*
G37*
%LPD*%
%LPC*%
G36*
X315639Y62922D02*
X315639Y62922D01*
X315639Y64909D01*
X321591Y70861D01*
X323578Y70861D01*
X323578Y62922D01*
X315639Y62922D01*
G37*
%LPD*%
%LPC*%
G36*
X391839Y88322D02*
X391839Y88322D01*
X391839Y90309D01*
X397791Y96261D01*
X399778Y96261D01*
X399778Y88322D01*
X391839Y88322D01*
G37*
%LPD*%
%LPC*%
G36*
X315639Y316922D02*
X315639Y316922D01*
X315639Y318909D01*
X321591Y324861D01*
X323578Y324861D01*
X323578Y316922D01*
X315639Y316922D01*
G37*
%LPD*%
%LPC*%
G36*
X404222Y304539D02*
X404222Y304539D01*
X404222Y312478D01*
X412161Y312478D01*
X412161Y310491D01*
X406209Y304539D01*
X404222Y304539D01*
G37*
%LPD*%
%LPC*%
G36*
X328022Y304539D02*
X328022Y304539D01*
X328022Y312478D01*
X335961Y312478D01*
X335961Y310491D01*
X330009Y304539D01*
X328022Y304539D01*
G37*
%LPD*%
%LPC*%
G36*
X321591Y304539D02*
X321591Y304539D01*
X315639Y310491D01*
X315639Y312478D01*
X323578Y312478D01*
X323578Y304539D01*
X321591Y304539D01*
G37*
%LPD*%
%LPC*%
G36*
X397791Y304539D02*
X397791Y304539D01*
X391839Y310491D01*
X391839Y312478D01*
X399778Y312478D01*
X399778Y304539D01*
X397791Y304539D01*
G37*
%LPD*%
%LPC*%
G36*
X321591Y50539D02*
X321591Y50539D01*
X315639Y56491D01*
X315639Y58478D01*
X323578Y58478D01*
X323578Y50539D01*
X321591Y50539D01*
G37*
%LPD*%
%LPC*%
G36*
X321591Y75939D02*
X321591Y75939D01*
X315639Y81891D01*
X315639Y83878D01*
X323578Y83878D01*
X323578Y75939D01*
X321591Y75939D01*
G37*
%LPD*%
%LPC*%
G36*
X397791Y75939D02*
X397791Y75939D01*
X391839Y81891D01*
X391839Y83878D01*
X399778Y83878D01*
X399778Y75939D01*
X397791Y75939D01*
G37*
%LPD*%
%LPC*%
G36*
X145099Y240699D02*
X145099Y240699D01*
X145099Y247420D01*
X146262Y247042D01*
X147601Y246360D01*
X148815Y245477D01*
X149877Y244415D01*
X150760Y243201D01*
X151442Y241862D01*
X151820Y240699D01*
X145099Y240699D01*
G37*
%LPD*%
%LPC*%
G36*
X133380Y240699D02*
X133380Y240699D01*
X133758Y241862D01*
X134440Y243201D01*
X135323Y244415D01*
X136385Y245477D01*
X137599Y246360D01*
X138938Y247042D01*
X140101Y247420D01*
X140101Y240699D01*
X133380Y240699D01*
G37*
%LPD*%
%LPC*%
G36*
X145099Y235701D02*
X145099Y235701D01*
X151820Y235701D01*
X151442Y234538D01*
X150760Y233199D01*
X149877Y231985D01*
X148815Y230923D01*
X147601Y230040D01*
X146262Y229358D01*
X145099Y228980D01*
X145099Y235701D01*
G37*
%LPD*%
%LPC*%
G36*
X138938Y229358D02*
X138938Y229358D01*
X137599Y230040D01*
X136385Y230923D01*
X135323Y231985D01*
X134440Y233199D01*
X133758Y234538D01*
X133380Y235701D01*
X140101Y235701D01*
X140101Y228980D01*
X138938Y229358D01*
G37*
%LPD*%
D10*
X148000Y60700D03*
D11*
X148000Y86100D03*
X173400Y60700D03*
X173400Y86100D03*
X198800Y60700D03*
X198800Y86100D03*
X224200Y60700D03*
X224200Y86100D03*
X249600Y60700D03*
X249600Y86100D03*
X275000Y60700D03*
X275000Y86100D03*
X300400Y60700D03*
X300400Y86100D03*
X325800Y60700D03*
X325800Y86100D03*
X351200Y60700D03*
X351200Y86100D03*
X376600Y60700D03*
X376600Y86100D03*
X402000Y60700D03*
X402000Y86100D03*
X427400Y60700D03*
X427400Y86100D03*
X452800Y60700D03*
X452800Y86100D03*
X478200Y60700D03*
X478200Y86100D03*
X503600Y60700D03*
X503600Y86100D03*
X529000Y60700D03*
X529000Y86100D03*
X554400Y60700D03*
X554400Y86100D03*
X579800Y60700D03*
X579800Y86100D03*
D10*
X148000Y314700D03*
D11*
X148000Y340100D03*
X173400Y314700D03*
X173400Y340100D03*
X198800Y314700D03*
X198800Y340100D03*
X224200Y314700D03*
X224200Y340100D03*
X249600Y314700D03*
X249600Y340100D03*
X275000Y314700D03*
X275000Y340100D03*
X300400Y314700D03*
X300400Y340100D03*
X325800Y314700D03*
X325800Y340100D03*
X351200Y314700D03*
X351200Y340100D03*
X376600Y314700D03*
X376600Y340100D03*
X402000Y314700D03*
X402000Y340100D03*
X427400Y314700D03*
X427400Y340100D03*
X452800Y314700D03*
X452800Y340100D03*
X478200Y314700D03*
X478200Y340100D03*
X503600Y314700D03*
X503600Y340100D03*
X529000Y314700D03*
X529000Y340100D03*
X554400Y314700D03*
X554400Y340100D03*
X579800Y314700D03*
X579800Y340100D03*
D12*
X370284Y220736D02*
X361236Y220736D01*
X335760Y178260D02*
X335760Y169212D01*
X395760Y169212D02*
X395760Y178260D01*
D13*
X142600Y238200D03*
X142600Y213200D03*
X142600Y193200D03*
X142600Y168200D03*
D14*
X115499Y268900D03*
X115499Y137500D03*
D15*
X177800Y254000D03*
X215900Y279400D03*
D16*
X287020Y182880D03*
D17*
X243840Y132080D03*
X139700Y114300D03*
X177800Y139700D03*
D18*
X142600Y193200D02*
X243680Y193200D01*
X243840Y193040D01*
D16*
X243840Y193040D03*
D18*
X142600Y193200D02*
X129540Y180140D01*
X129540Y158800D01*
X185420Y102920D02*
X185420Y76200D01*
X189490Y72130D01*
X240365Y60700D02*
X249600Y60700D01*
X240365Y60700D02*
X228935Y72130D01*
X189490Y72130D01*
X185420Y102920D02*
X129540Y158800D01*
D17*
X594360Y233680D03*
X492760Y233680D03*
X541020Y236220D03*
D18*
X246220Y213200D02*
X142600Y213200D01*
X246220Y213200D02*
X246380Y213360D01*
D16*
X246380Y213360D03*
D18*
X142600Y213200D02*
X124460Y195060D01*
X124460Y156696D02*
X148082Y133074D01*
X124460Y156696D02*
X124460Y195060D01*
X160020Y101600D02*
X160020Y55880D01*
X167640Y48260D01*
X262560Y48260D01*
X275000Y60700D01*
X160020Y101600D02*
X148082Y113538D01*
X148082Y133074D01*
M02*
