G04 EAGLE Gerber RS-274X export*
G75*
%MOMM*%
%FSLAX34Y34*%
%LPD*%
%INEAGLE Copper Layer 2*%
%IPPOS*%
%AMOC8*
5,1,8,0,0,1.08239X$1,22.5*%
G01*
%ADD10C,1.244600*%
%ADD11C,0.904800*%
%ADD12C,1.400000*%
%ADD13C,3.220000*%
%ADD14C,0.609600*%
%ADD15C,0.654800*%
%ADD16C,0.914400*%


D10*
X148000Y60700D03*
X148000Y86100D03*
X173400Y60700D03*
X173400Y86100D03*
X198800Y60700D03*
X198800Y86100D03*
X224200Y60700D03*
X224200Y86100D03*
X249600Y60700D03*
X249600Y86100D03*
X275000Y60700D03*
X275000Y86100D03*
X300400Y60700D03*
X300400Y86100D03*
X325800Y60700D03*
X325800Y86100D03*
X351200Y60700D03*
X351200Y86100D03*
X376600Y60700D03*
X376600Y86100D03*
X402000Y60700D03*
X402000Y86100D03*
X427400Y60700D03*
X427400Y86100D03*
X452800Y60700D03*
X452800Y86100D03*
X478200Y60700D03*
X478200Y86100D03*
X503600Y60700D03*
X503600Y86100D03*
X529000Y60700D03*
X529000Y86100D03*
X554400Y60700D03*
X554400Y86100D03*
X579800Y60700D03*
X579800Y86100D03*
X148000Y314700D03*
X148000Y340100D03*
X173400Y314700D03*
X173400Y340100D03*
X198800Y314700D03*
X198800Y340100D03*
X224200Y314700D03*
X224200Y340100D03*
X249600Y314700D03*
X249600Y340100D03*
X275000Y314700D03*
X275000Y340100D03*
X300400Y314700D03*
X300400Y340100D03*
X325800Y314700D03*
X325800Y340100D03*
X351200Y314700D03*
X351200Y340100D03*
X376600Y314700D03*
X376600Y340100D03*
X402000Y314700D03*
X402000Y340100D03*
X427400Y314700D03*
X427400Y340100D03*
X452800Y314700D03*
X452800Y340100D03*
X478200Y314700D03*
X478200Y340100D03*
X503600Y314700D03*
X503600Y340100D03*
X529000Y314700D03*
X529000Y340100D03*
X554400Y314700D03*
X554400Y340100D03*
X579800Y314700D03*
X579800Y340100D03*
D11*
X365760Y220736D03*
X335760Y173736D03*
X395760Y173736D03*
D12*
X142600Y238200D03*
X142600Y213200D03*
X142600Y193200D03*
X142600Y168200D03*
D13*
X115499Y268900D03*
X115499Y137500D03*
D14*
X177800Y254000D03*
X215900Y279400D03*
D15*
X287020Y182880D03*
D16*
X243840Y132080D03*
X139700Y114300D03*
X177800Y139700D03*
D15*
X243840Y193040D03*
D16*
X594360Y233680D03*
X492760Y233680D03*
X541020Y236220D03*
D15*
X246380Y213360D03*
M02*
