G04 EAGLE Gerber RS-274X export*
G75*
%MOMM*%
%FSLAX34Y34*%
%LPD*%
%INEAGLE Copper Layer 15*%
%IPPOS*%
%AMOC8*
5,1,8,0,0,1.08239X$1,22.5*%
G01*
%ADD10C,1.244600*%
%ADD11C,0.904800*%
%ADD12C,1.400000*%
%ADD13C,3.220000*%
%ADD14C,0.609600*%
%ADD15C,0.654800*%
%ADD16C,0.914400*%

G36*
X655946Y3318D02*
X655946Y3318D01*
X656065Y3325D01*
X656103Y3338D01*
X656144Y3343D01*
X656254Y3386D01*
X656367Y3423D01*
X656402Y3445D01*
X656439Y3460D01*
X656535Y3529D01*
X656636Y3593D01*
X656664Y3623D01*
X656697Y3646D01*
X656773Y3738D01*
X656854Y3825D01*
X656874Y3860D01*
X656899Y3891D01*
X656950Y3999D01*
X657008Y4103D01*
X657018Y4143D01*
X657035Y4179D01*
X657057Y4296D01*
X657087Y4411D01*
X657091Y4471D01*
X657095Y4491D01*
X657093Y4512D01*
X657097Y4572D01*
X657097Y401828D01*
X657082Y401946D01*
X657075Y402065D01*
X657062Y402103D01*
X657057Y402144D01*
X657014Y402254D01*
X656977Y402367D01*
X656955Y402402D01*
X656940Y402439D01*
X656871Y402535D01*
X656807Y402636D01*
X656777Y402664D01*
X656754Y402697D01*
X656662Y402773D01*
X656575Y402854D01*
X656540Y402874D01*
X656509Y402899D01*
X656401Y402950D01*
X656297Y403008D01*
X656257Y403018D01*
X656221Y403035D01*
X656104Y403057D01*
X655989Y403087D01*
X655929Y403091D01*
X655909Y403095D01*
X655888Y403093D01*
X655828Y403097D01*
X4572Y403097D01*
X4454Y403082D01*
X4335Y403075D01*
X4297Y403062D01*
X4256Y403057D01*
X4146Y403014D01*
X4033Y402977D01*
X3998Y402955D01*
X3961Y402940D01*
X3865Y402871D01*
X3764Y402807D01*
X3736Y402777D01*
X3703Y402754D01*
X3627Y402662D01*
X3546Y402575D01*
X3526Y402540D01*
X3501Y402509D01*
X3450Y402401D01*
X3392Y402297D01*
X3382Y402257D01*
X3365Y402221D01*
X3343Y402104D01*
X3313Y401989D01*
X3309Y401929D01*
X3305Y401909D01*
X3307Y401888D01*
X3303Y401828D01*
X3303Y4572D01*
X3318Y4454D01*
X3325Y4335D01*
X3338Y4297D01*
X3343Y4256D01*
X3386Y4146D01*
X3423Y4033D01*
X3445Y3998D01*
X3460Y3961D01*
X3529Y3865D01*
X3593Y3764D01*
X3623Y3736D01*
X3646Y3703D01*
X3738Y3627D01*
X3825Y3546D01*
X3860Y3526D01*
X3891Y3501D01*
X3999Y3450D01*
X4103Y3392D01*
X4143Y3382D01*
X4179Y3365D01*
X4296Y3343D01*
X4411Y3313D01*
X4471Y3309D01*
X4491Y3305D01*
X4512Y3307D01*
X4572Y3303D01*
X655828Y3303D01*
X655946Y3318D01*
G37*
%LPC*%
G36*
X140702Y183659D02*
X140702Y183659D01*
X137196Y185112D01*
X134512Y187796D01*
X133059Y191302D01*
X133059Y195098D01*
X134512Y198604D01*
X137196Y201288D01*
X138980Y202027D01*
X139101Y202096D01*
X139224Y202161D01*
X139239Y202175D01*
X139256Y202185D01*
X139356Y202282D01*
X139459Y202375D01*
X139470Y202392D01*
X139485Y202406D01*
X139558Y202525D01*
X139634Y202641D01*
X139640Y202660D01*
X139651Y202677D01*
X139692Y202810D01*
X139737Y202942D01*
X139739Y202962D01*
X139745Y202981D01*
X139751Y203120D01*
X139762Y203259D01*
X139759Y203279D01*
X139760Y203299D01*
X139732Y203435D01*
X139708Y203572D01*
X139700Y203591D01*
X139695Y203610D01*
X139634Y203736D01*
X139577Y203862D01*
X139565Y203878D01*
X139556Y203896D01*
X139465Y204002D01*
X139379Y204110D01*
X139363Y204123D01*
X139349Y204138D01*
X139235Y204218D01*
X139125Y204302D01*
X139099Y204314D01*
X139089Y204321D01*
X139070Y204328D01*
X138980Y204373D01*
X137196Y205112D01*
X134512Y207796D01*
X133059Y211302D01*
X133059Y215098D01*
X134512Y218604D01*
X137196Y221288D01*
X140702Y222741D01*
X144498Y222741D01*
X148004Y221288D01*
X150688Y218604D01*
X152141Y215098D01*
X152141Y211302D01*
X150688Y207796D01*
X148004Y205112D01*
X146220Y204373D01*
X146099Y204304D01*
X145976Y204239D01*
X145961Y204225D01*
X145944Y204215D01*
X145844Y204118D01*
X145741Y204025D01*
X145730Y204008D01*
X145715Y203994D01*
X145643Y203876D01*
X145566Y203759D01*
X145560Y203740D01*
X145549Y203723D01*
X145508Y203590D01*
X145463Y203458D01*
X145461Y203438D01*
X145455Y203419D01*
X145449Y203280D01*
X145438Y203141D01*
X145441Y203121D01*
X145440Y203101D01*
X145468Y202965D01*
X145492Y202828D01*
X145500Y202809D01*
X145505Y202790D01*
X145566Y202665D01*
X145623Y202538D01*
X145635Y202522D01*
X145644Y202504D01*
X145734Y202398D01*
X145821Y202290D01*
X145838Y202277D01*
X145851Y202262D01*
X145964Y202182D01*
X146075Y202098D01*
X146101Y202086D01*
X146111Y202079D01*
X146130Y202072D01*
X146220Y202027D01*
X148004Y201288D01*
X150688Y198604D01*
X152141Y195098D01*
X152141Y191302D01*
X150688Y187796D01*
X148004Y185112D01*
X144498Y183659D01*
X140702Y183659D01*
G37*
%LPD*%
%LPC*%
G36*
X140702Y158659D02*
X140702Y158659D01*
X137196Y160112D01*
X134512Y162796D01*
X133059Y166302D01*
X133059Y170098D01*
X134512Y173604D01*
X137196Y176288D01*
X140702Y177741D01*
X144498Y177741D01*
X148004Y176288D01*
X150688Y173604D01*
X152141Y170098D01*
X152141Y166302D01*
X150688Y162796D01*
X148004Y160112D01*
X144498Y158659D01*
X140702Y158659D01*
G37*
%LPD*%
%LPC*%
G36*
X140702Y228659D02*
X140702Y228659D01*
X137196Y230112D01*
X134512Y232796D01*
X133059Y236302D01*
X133059Y240098D01*
X134512Y243604D01*
X137196Y246288D01*
X140702Y247741D01*
X144498Y247741D01*
X148004Y246288D01*
X150688Y243604D01*
X152141Y240098D01*
X152141Y236302D01*
X150688Y232796D01*
X148004Y230112D01*
X144498Y228659D01*
X140702Y228659D01*
G37*
%LPD*%
%LPC*%
G36*
X552657Y331336D02*
X552657Y331336D01*
X549436Y332670D01*
X546970Y335136D01*
X545636Y338357D01*
X545636Y341843D01*
X546970Y345064D01*
X549436Y347530D01*
X552657Y348864D01*
X556143Y348864D01*
X559364Y347530D01*
X561830Y345064D01*
X563164Y341843D01*
X563164Y338357D01*
X561830Y335136D01*
X559364Y332670D01*
X556143Y331336D01*
X552657Y331336D01*
G37*
%LPD*%
%LPC*%
G36*
X527257Y331336D02*
X527257Y331336D01*
X524036Y332670D01*
X521570Y335136D01*
X520236Y338357D01*
X520236Y341843D01*
X521570Y345064D01*
X524036Y347530D01*
X527257Y348864D01*
X530743Y348864D01*
X533964Y347530D01*
X536430Y345064D01*
X537764Y341843D01*
X537764Y338357D01*
X536430Y335136D01*
X533964Y332670D01*
X530743Y331336D01*
X527257Y331336D01*
G37*
%LPD*%
%LPC*%
G36*
X501857Y331336D02*
X501857Y331336D01*
X498636Y332670D01*
X496170Y335136D01*
X494836Y338357D01*
X494836Y341843D01*
X496170Y345064D01*
X498636Y347530D01*
X501857Y348864D01*
X505343Y348864D01*
X508564Y347530D01*
X511030Y345064D01*
X512364Y341843D01*
X512364Y338357D01*
X511030Y335136D01*
X508564Y332670D01*
X505343Y331336D01*
X501857Y331336D01*
G37*
%LPD*%
%LPC*%
G36*
X476457Y331336D02*
X476457Y331336D01*
X473236Y332670D01*
X470770Y335136D01*
X469436Y338357D01*
X469436Y341843D01*
X470770Y345064D01*
X473236Y347530D01*
X476457Y348864D01*
X479943Y348864D01*
X483164Y347530D01*
X485630Y345064D01*
X486964Y341843D01*
X486964Y338357D01*
X485630Y335136D01*
X483164Y332670D01*
X479943Y331336D01*
X476457Y331336D01*
G37*
%LPD*%
%LPC*%
G36*
X451057Y331336D02*
X451057Y331336D01*
X447836Y332670D01*
X445370Y335136D01*
X444036Y338357D01*
X444036Y341843D01*
X445370Y345064D01*
X447836Y347530D01*
X451057Y348864D01*
X454543Y348864D01*
X457764Y347530D01*
X460230Y345064D01*
X461564Y341843D01*
X461564Y338357D01*
X460230Y335136D01*
X457764Y332670D01*
X454543Y331336D01*
X451057Y331336D01*
G37*
%LPD*%
%LPC*%
G36*
X425657Y331336D02*
X425657Y331336D01*
X422436Y332670D01*
X419970Y335136D01*
X418636Y338357D01*
X418636Y341843D01*
X419970Y345064D01*
X422436Y347530D01*
X425657Y348864D01*
X429143Y348864D01*
X432364Y347530D01*
X434830Y345064D01*
X436164Y341843D01*
X436164Y338357D01*
X434830Y335136D01*
X432364Y332670D01*
X429143Y331336D01*
X425657Y331336D01*
G37*
%LPD*%
%LPC*%
G36*
X400257Y331336D02*
X400257Y331336D01*
X397036Y332670D01*
X394570Y335136D01*
X393236Y338357D01*
X393236Y341843D01*
X394570Y345064D01*
X397036Y347530D01*
X400257Y348864D01*
X403743Y348864D01*
X406964Y347530D01*
X409430Y345064D01*
X410764Y341843D01*
X410764Y338357D01*
X409430Y335136D01*
X406964Y332670D01*
X403743Y331336D01*
X400257Y331336D01*
G37*
%LPD*%
%LPC*%
G36*
X374857Y331336D02*
X374857Y331336D01*
X371636Y332670D01*
X369170Y335136D01*
X367836Y338357D01*
X367836Y341843D01*
X369170Y345064D01*
X371636Y347530D01*
X374857Y348864D01*
X378343Y348864D01*
X381564Y347530D01*
X384030Y345064D01*
X385364Y341843D01*
X385364Y338357D01*
X384030Y335136D01*
X381564Y332670D01*
X378343Y331336D01*
X374857Y331336D01*
G37*
%LPD*%
%LPC*%
G36*
X349457Y331336D02*
X349457Y331336D01*
X346236Y332670D01*
X343770Y335136D01*
X342436Y338357D01*
X342436Y341843D01*
X343770Y345064D01*
X346236Y347530D01*
X349457Y348864D01*
X352943Y348864D01*
X356164Y347530D01*
X358630Y345064D01*
X359964Y341843D01*
X359964Y338357D01*
X358630Y335136D01*
X356164Y332670D01*
X352943Y331336D01*
X349457Y331336D01*
G37*
%LPD*%
%LPC*%
G36*
X324057Y331336D02*
X324057Y331336D01*
X320836Y332670D01*
X318370Y335136D01*
X317036Y338357D01*
X317036Y341843D01*
X318370Y345064D01*
X320836Y347530D01*
X324057Y348864D01*
X327543Y348864D01*
X330764Y347530D01*
X333230Y345064D01*
X334564Y341843D01*
X334564Y338357D01*
X333230Y335136D01*
X330764Y332670D01*
X327543Y331336D01*
X324057Y331336D01*
G37*
%LPD*%
%LPC*%
G36*
X298657Y331336D02*
X298657Y331336D01*
X295436Y332670D01*
X292970Y335136D01*
X291636Y338357D01*
X291636Y341843D01*
X292970Y345064D01*
X295436Y347530D01*
X298657Y348864D01*
X302143Y348864D01*
X305364Y347530D01*
X307830Y345064D01*
X309164Y341843D01*
X309164Y338357D01*
X307830Y335136D01*
X305364Y332670D01*
X302143Y331336D01*
X298657Y331336D01*
G37*
%LPD*%
%LPC*%
G36*
X273257Y331336D02*
X273257Y331336D01*
X270036Y332670D01*
X267570Y335136D01*
X266236Y338357D01*
X266236Y341843D01*
X267570Y345064D01*
X270036Y347530D01*
X273257Y348864D01*
X276743Y348864D01*
X279964Y347530D01*
X282430Y345064D01*
X283764Y341843D01*
X283764Y338357D01*
X282430Y335136D01*
X279964Y332670D01*
X276743Y331336D01*
X273257Y331336D01*
G37*
%LPD*%
%LPC*%
G36*
X247857Y331336D02*
X247857Y331336D01*
X244636Y332670D01*
X242170Y335136D01*
X240836Y338357D01*
X240836Y341843D01*
X242170Y345064D01*
X244636Y347530D01*
X247857Y348864D01*
X251343Y348864D01*
X254564Y347530D01*
X257030Y345064D01*
X258364Y341843D01*
X258364Y338357D01*
X257030Y335136D01*
X254564Y332670D01*
X251343Y331336D01*
X247857Y331336D01*
G37*
%LPD*%
%LPC*%
G36*
X222457Y331336D02*
X222457Y331336D01*
X219236Y332670D01*
X216770Y335136D01*
X215436Y338357D01*
X215436Y341843D01*
X216770Y345064D01*
X219236Y347530D01*
X222457Y348864D01*
X225943Y348864D01*
X229164Y347530D01*
X231630Y345064D01*
X232964Y341843D01*
X232964Y338357D01*
X231630Y335136D01*
X229164Y332670D01*
X225943Y331336D01*
X222457Y331336D01*
G37*
%LPD*%
%LPC*%
G36*
X197057Y331336D02*
X197057Y331336D01*
X193836Y332670D01*
X191370Y335136D01*
X190036Y338357D01*
X190036Y341843D01*
X191370Y345064D01*
X193836Y347530D01*
X197057Y348864D01*
X200543Y348864D01*
X203764Y347530D01*
X206230Y345064D01*
X207564Y341843D01*
X207564Y338357D01*
X206230Y335136D01*
X203764Y332670D01*
X200543Y331336D01*
X197057Y331336D01*
G37*
%LPD*%
%LPC*%
G36*
X527257Y305936D02*
X527257Y305936D01*
X524036Y307270D01*
X521570Y309736D01*
X520236Y312957D01*
X520236Y316443D01*
X521570Y319664D01*
X524036Y322130D01*
X527257Y323464D01*
X530743Y323464D01*
X533964Y322130D01*
X536430Y319664D01*
X537764Y316443D01*
X537764Y312957D01*
X536430Y309736D01*
X533964Y307270D01*
X530743Y305936D01*
X527257Y305936D01*
G37*
%LPD*%
%LPC*%
G36*
X501857Y305936D02*
X501857Y305936D01*
X498636Y307270D01*
X496170Y309736D01*
X494836Y312957D01*
X494836Y316443D01*
X496170Y319664D01*
X498636Y322130D01*
X501857Y323464D01*
X505343Y323464D01*
X508564Y322130D01*
X511030Y319664D01*
X512364Y316443D01*
X512364Y312957D01*
X511030Y309736D01*
X508564Y307270D01*
X505343Y305936D01*
X501857Y305936D01*
G37*
%LPD*%
%LPC*%
G36*
X578057Y305936D02*
X578057Y305936D01*
X574836Y307270D01*
X572370Y309736D01*
X571036Y312957D01*
X571036Y316443D01*
X572370Y319664D01*
X574836Y322130D01*
X578057Y323464D01*
X581543Y323464D01*
X584764Y322130D01*
X587230Y319664D01*
X588564Y316443D01*
X588564Y312957D01*
X587230Y309736D01*
X584764Y307270D01*
X581543Y305936D01*
X578057Y305936D01*
G37*
%LPD*%
%LPC*%
G36*
X552657Y305936D02*
X552657Y305936D01*
X549436Y307270D01*
X546970Y309736D01*
X545636Y312957D01*
X545636Y316443D01*
X546970Y319664D01*
X549436Y322130D01*
X552657Y323464D01*
X556143Y323464D01*
X559364Y322130D01*
X561830Y319664D01*
X563164Y316443D01*
X563164Y312957D01*
X561830Y309736D01*
X559364Y307270D01*
X556143Y305936D01*
X552657Y305936D01*
G37*
%LPD*%
%LPC*%
G36*
X476457Y305936D02*
X476457Y305936D01*
X473236Y307270D01*
X470770Y309736D01*
X469436Y312957D01*
X469436Y316443D01*
X470770Y319664D01*
X473236Y322130D01*
X476457Y323464D01*
X479943Y323464D01*
X483164Y322130D01*
X485630Y319664D01*
X486964Y316443D01*
X486964Y312957D01*
X485630Y309736D01*
X483164Y307270D01*
X479943Y305936D01*
X476457Y305936D01*
G37*
%LPD*%
%LPC*%
G36*
X451057Y305936D02*
X451057Y305936D01*
X447836Y307270D01*
X445370Y309736D01*
X444036Y312957D01*
X444036Y316443D01*
X445370Y319664D01*
X447836Y322130D01*
X451057Y323464D01*
X454543Y323464D01*
X457764Y322130D01*
X460230Y319664D01*
X461564Y316443D01*
X461564Y312957D01*
X460230Y309736D01*
X457764Y307270D01*
X454543Y305936D01*
X451057Y305936D01*
G37*
%LPD*%
%LPC*%
G36*
X425657Y305936D02*
X425657Y305936D01*
X422436Y307270D01*
X419970Y309736D01*
X418636Y312957D01*
X418636Y316443D01*
X419970Y319664D01*
X422436Y322130D01*
X425657Y323464D01*
X429143Y323464D01*
X432364Y322130D01*
X434830Y319664D01*
X436164Y316443D01*
X436164Y312957D01*
X434830Y309736D01*
X432364Y307270D01*
X429143Y305936D01*
X425657Y305936D01*
G37*
%LPD*%
%LPC*%
G36*
X400257Y305936D02*
X400257Y305936D01*
X397036Y307270D01*
X394570Y309736D01*
X393236Y312957D01*
X393236Y316443D01*
X394570Y319664D01*
X397036Y322130D01*
X400257Y323464D01*
X403743Y323464D01*
X406964Y322130D01*
X409430Y319664D01*
X410764Y316443D01*
X410764Y312957D01*
X409430Y309736D01*
X406964Y307270D01*
X403743Y305936D01*
X400257Y305936D01*
G37*
%LPD*%
%LPC*%
G36*
X374857Y305936D02*
X374857Y305936D01*
X371636Y307270D01*
X369170Y309736D01*
X367836Y312957D01*
X367836Y316443D01*
X369170Y319664D01*
X371636Y322130D01*
X374857Y323464D01*
X378343Y323464D01*
X381564Y322130D01*
X384030Y319664D01*
X385364Y316443D01*
X385364Y312957D01*
X384030Y309736D01*
X381564Y307270D01*
X378343Y305936D01*
X374857Y305936D01*
G37*
%LPD*%
%LPC*%
G36*
X349457Y305936D02*
X349457Y305936D01*
X346236Y307270D01*
X343770Y309736D01*
X342436Y312957D01*
X342436Y316443D01*
X343770Y319664D01*
X346236Y322130D01*
X349457Y323464D01*
X352943Y323464D01*
X356164Y322130D01*
X358630Y319664D01*
X359964Y316443D01*
X359964Y312957D01*
X358630Y309736D01*
X356164Y307270D01*
X352943Y305936D01*
X349457Y305936D01*
G37*
%LPD*%
%LPC*%
G36*
X324057Y305936D02*
X324057Y305936D01*
X320836Y307270D01*
X318370Y309736D01*
X317036Y312957D01*
X317036Y316443D01*
X318370Y319664D01*
X320836Y322130D01*
X324057Y323464D01*
X327543Y323464D01*
X330764Y322130D01*
X333230Y319664D01*
X334564Y316443D01*
X334564Y312957D01*
X333230Y309736D01*
X330764Y307270D01*
X327543Y305936D01*
X324057Y305936D01*
G37*
%LPD*%
%LPC*%
G36*
X298657Y305936D02*
X298657Y305936D01*
X295436Y307270D01*
X292970Y309736D01*
X291636Y312957D01*
X291636Y316443D01*
X292970Y319664D01*
X295436Y322130D01*
X298657Y323464D01*
X302143Y323464D01*
X305364Y322130D01*
X307830Y319664D01*
X309164Y316443D01*
X309164Y312957D01*
X307830Y309736D01*
X305364Y307270D01*
X302143Y305936D01*
X298657Y305936D01*
G37*
%LPD*%
%LPC*%
G36*
X273257Y305936D02*
X273257Y305936D01*
X270036Y307270D01*
X267570Y309736D01*
X266236Y312957D01*
X266236Y316443D01*
X267570Y319664D01*
X270036Y322130D01*
X273257Y323464D01*
X276743Y323464D01*
X279964Y322130D01*
X282430Y319664D01*
X283764Y316443D01*
X283764Y312957D01*
X282430Y309736D01*
X279964Y307270D01*
X276743Y305936D01*
X273257Y305936D01*
G37*
%LPD*%
%LPC*%
G36*
X247857Y305936D02*
X247857Y305936D01*
X244636Y307270D01*
X242170Y309736D01*
X240836Y312957D01*
X240836Y316443D01*
X242170Y319664D01*
X244636Y322130D01*
X247857Y323464D01*
X251343Y323464D01*
X254564Y322130D01*
X257030Y319664D01*
X258364Y316443D01*
X258364Y312957D01*
X257030Y309736D01*
X254564Y307270D01*
X251343Y305936D01*
X247857Y305936D01*
G37*
%LPD*%
%LPC*%
G36*
X222457Y305936D02*
X222457Y305936D01*
X219236Y307270D01*
X216770Y309736D01*
X215436Y312957D01*
X215436Y316443D01*
X216770Y319664D01*
X219236Y322130D01*
X222457Y323464D01*
X225943Y323464D01*
X229164Y322130D01*
X231630Y319664D01*
X232964Y316443D01*
X232964Y312957D01*
X231630Y309736D01*
X229164Y307270D01*
X225943Y305936D01*
X222457Y305936D01*
G37*
%LPD*%
%LPC*%
G36*
X197057Y305936D02*
X197057Y305936D01*
X193836Y307270D01*
X191370Y309736D01*
X190036Y312957D01*
X190036Y316443D01*
X191370Y319664D01*
X193836Y322130D01*
X197057Y323464D01*
X200543Y323464D01*
X203764Y322130D01*
X206230Y319664D01*
X207564Y316443D01*
X207564Y312957D01*
X206230Y309736D01*
X203764Y307270D01*
X200543Y305936D01*
X197057Y305936D01*
G37*
%LPD*%
%LPC*%
G36*
X171657Y305936D02*
X171657Y305936D01*
X168436Y307270D01*
X165970Y309736D01*
X164636Y312957D01*
X164636Y316443D01*
X165970Y319664D01*
X168436Y322130D01*
X171657Y323464D01*
X175143Y323464D01*
X178364Y322130D01*
X180830Y319664D01*
X182164Y316443D01*
X182164Y312957D01*
X180830Y309736D01*
X178364Y307270D01*
X175143Y305936D01*
X171657Y305936D01*
G37*
%LPD*%
%LPC*%
G36*
X146257Y305936D02*
X146257Y305936D01*
X143036Y307270D01*
X140570Y309736D01*
X139236Y312957D01*
X139236Y316443D01*
X140570Y319664D01*
X143036Y322130D01*
X146257Y323464D01*
X149743Y323464D01*
X152964Y322130D01*
X155430Y319664D01*
X156764Y316443D01*
X156764Y312957D01*
X155430Y309736D01*
X152964Y307270D01*
X149743Y305936D01*
X146257Y305936D01*
G37*
%LPD*%
%LPC*%
G36*
X400257Y51936D02*
X400257Y51936D01*
X397036Y53270D01*
X394570Y55736D01*
X393236Y58957D01*
X393236Y62443D01*
X394570Y65664D01*
X397036Y68130D01*
X400257Y69464D01*
X403743Y69464D01*
X406964Y68130D01*
X409430Y65664D01*
X410764Y62443D01*
X410764Y58957D01*
X409430Y55736D01*
X406964Y53270D01*
X403743Y51936D01*
X400257Y51936D01*
G37*
%LPD*%
%LPC*%
G36*
X425657Y51936D02*
X425657Y51936D01*
X422436Y53270D01*
X419970Y55736D01*
X418636Y58957D01*
X418636Y62443D01*
X419970Y65664D01*
X422436Y68130D01*
X425657Y69464D01*
X429143Y69464D01*
X432364Y68130D01*
X434830Y65664D01*
X436164Y62443D01*
X436164Y58957D01*
X434830Y55736D01*
X432364Y53270D01*
X429143Y51936D01*
X425657Y51936D01*
G37*
%LPD*%
%LPC*%
G36*
X222457Y51936D02*
X222457Y51936D01*
X219236Y53270D01*
X216770Y55736D01*
X215436Y58957D01*
X215436Y62443D01*
X216770Y65664D01*
X219236Y68130D01*
X222457Y69464D01*
X225943Y69464D01*
X229164Y68130D01*
X231630Y65664D01*
X232964Y62443D01*
X232964Y58957D01*
X231630Y55736D01*
X229164Y53270D01*
X225943Y51936D01*
X222457Y51936D01*
G37*
%LPD*%
%LPC*%
G36*
X247857Y51936D02*
X247857Y51936D01*
X244636Y53270D01*
X242170Y55736D01*
X240836Y58957D01*
X240836Y62443D01*
X242170Y65664D01*
X244636Y68130D01*
X247857Y69464D01*
X251343Y69464D01*
X254564Y68130D01*
X257030Y65664D01*
X258364Y62443D01*
X258364Y58957D01*
X257030Y55736D01*
X254564Y53270D01*
X251343Y51936D01*
X247857Y51936D01*
G37*
%LPD*%
%LPC*%
G36*
X451057Y51936D02*
X451057Y51936D01*
X447836Y53270D01*
X445370Y55736D01*
X444036Y58957D01*
X444036Y62443D01*
X445370Y65664D01*
X447836Y68130D01*
X451057Y69464D01*
X454543Y69464D01*
X457764Y68130D01*
X460230Y65664D01*
X461564Y62443D01*
X461564Y58957D01*
X460230Y55736D01*
X457764Y53270D01*
X454543Y51936D01*
X451057Y51936D01*
G37*
%LPD*%
%LPC*%
G36*
X476457Y51936D02*
X476457Y51936D01*
X473236Y53270D01*
X470770Y55736D01*
X469436Y58957D01*
X469436Y62443D01*
X470770Y65664D01*
X473236Y68130D01*
X476457Y69464D01*
X479943Y69464D01*
X483164Y68130D01*
X485630Y65664D01*
X486964Y62443D01*
X486964Y58957D01*
X485630Y55736D01*
X483164Y53270D01*
X479943Y51936D01*
X476457Y51936D01*
G37*
%LPD*%
%LPC*%
G36*
X273257Y51936D02*
X273257Y51936D01*
X270036Y53270D01*
X267570Y55736D01*
X266236Y58957D01*
X266236Y62443D01*
X267570Y65664D01*
X270036Y68130D01*
X273257Y69464D01*
X276743Y69464D01*
X279964Y68130D01*
X282430Y65664D01*
X283764Y62443D01*
X283764Y58957D01*
X282430Y55736D01*
X279964Y53270D01*
X276743Y51936D01*
X273257Y51936D01*
G37*
%LPD*%
%LPC*%
G36*
X578057Y331336D02*
X578057Y331336D01*
X574836Y332670D01*
X572370Y335136D01*
X571036Y338357D01*
X571036Y341843D01*
X572370Y345064D01*
X574836Y347530D01*
X578057Y348864D01*
X581543Y348864D01*
X584764Y347530D01*
X587230Y345064D01*
X588564Y341843D01*
X588564Y338357D01*
X587230Y335136D01*
X584764Y332670D01*
X581543Y331336D01*
X578057Y331336D01*
G37*
%LPD*%
%LPC*%
G36*
X501857Y51936D02*
X501857Y51936D01*
X498636Y53270D01*
X496170Y55736D01*
X494836Y58957D01*
X494836Y62443D01*
X496170Y65664D01*
X498636Y68130D01*
X501857Y69464D01*
X505343Y69464D01*
X508564Y68130D01*
X511030Y65664D01*
X512364Y62443D01*
X512364Y58957D01*
X511030Y55736D01*
X508564Y53270D01*
X505343Y51936D01*
X501857Y51936D01*
G37*
%LPD*%
%LPC*%
G36*
X527257Y51936D02*
X527257Y51936D01*
X524036Y53270D01*
X521570Y55736D01*
X520236Y58957D01*
X520236Y62443D01*
X521570Y65664D01*
X524036Y68130D01*
X527257Y69464D01*
X530743Y69464D01*
X533964Y68130D01*
X536430Y65664D01*
X537764Y62443D01*
X537764Y58957D01*
X536430Y55736D01*
X533964Y53270D01*
X530743Y51936D01*
X527257Y51936D01*
G37*
%LPD*%
%LPC*%
G36*
X552657Y51936D02*
X552657Y51936D01*
X549436Y53270D01*
X546970Y55736D01*
X545636Y58957D01*
X545636Y62443D01*
X546970Y65664D01*
X549436Y68130D01*
X552657Y69464D01*
X556143Y69464D01*
X559364Y68130D01*
X561830Y65664D01*
X563164Y62443D01*
X563164Y58957D01*
X561830Y55736D01*
X559364Y53270D01*
X556143Y51936D01*
X552657Y51936D01*
G37*
%LPD*%
%LPC*%
G36*
X374857Y51936D02*
X374857Y51936D01*
X371636Y53270D01*
X369170Y55736D01*
X367836Y58957D01*
X367836Y62443D01*
X369170Y65664D01*
X371636Y68130D01*
X374857Y69464D01*
X378343Y69464D01*
X381564Y68130D01*
X384030Y65664D01*
X385364Y62443D01*
X385364Y58957D01*
X384030Y55736D01*
X381564Y53270D01*
X378343Y51936D01*
X374857Y51936D01*
G37*
%LPD*%
%LPC*%
G36*
X171657Y331336D02*
X171657Y331336D01*
X168436Y332670D01*
X165970Y335136D01*
X164636Y338357D01*
X164636Y341843D01*
X165970Y345064D01*
X168436Y347530D01*
X171657Y348864D01*
X175143Y348864D01*
X178364Y347530D01*
X180830Y345064D01*
X182164Y341843D01*
X182164Y338357D01*
X180830Y335136D01*
X178364Y332670D01*
X175143Y331336D01*
X171657Y331336D01*
G37*
%LPD*%
%LPC*%
G36*
X197057Y51936D02*
X197057Y51936D01*
X193836Y53270D01*
X191370Y55736D01*
X190036Y58957D01*
X190036Y62443D01*
X191370Y65664D01*
X193836Y68130D01*
X197057Y69464D01*
X200543Y69464D01*
X203764Y68130D01*
X206230Y65664D01*
X207564Y62443D01*
X207564Y58957D01*
X206230Y55736D01*
X203764Y53270D01*
X200543Y51936D01*
X197057Y51936D01*
G37*
%LPD*%
%LPC*%
G36*
X298657Y51936D02*
X298657Y51936D01*
X295436Y53270D01*
X292970Y55736D01*
X291636Y58957D01*
X291636Y62443D01*
X292970Y65664D01*
X295436Y68130D01*
X298657Y69464D01*
X302143Y69464D01*
X305364Y68130D01*
X307830Y65664D01*
X309164Y62443D01*
X309164Y58957D01*
X307830Y55736D01*
X305364Y53270D01*
X302143Y51936D01*
X298657Y51936D01*
G37*
%LPD*%
%LPC*%
G36*
X324057Y51936D02*
X324057Y51936D01*
X320836Y53270D01*
X318370Y55736D01*
X317036Y58957D01*
X317036Y62443D01*
X318370Y65664D01*
X320836Y68130D01*
X324057Y69464D01*
X327543Y69464D01*
X330764Y68130D01*
X333230Y65664D01*
X334564Y62443D01*
X334564Y58957D01*
X333230Y55736D01*
X330764Y53270D01*
X327543Y51936D01*
X324057Y51936D01*
G37*
%LPD*%
%LPC*%
G36*
X578057Y51936D02*
X578057Y51936D01*
X574836Y53270D01*
X572370Y55736D01*
X571036Y58957D01*
X571036Y62443D01*
X572370Y65664D01*
X574836Y68130D01*
X578057Y69464D01*
X581543Y69464D01*
X584764Y68130D01*
X587230Y65664D01*
X588564Y62443D01*
X588564Y58957D01*
X587230Y55736D01*
X584764Y53270D01*
X581543Y51936D01*
X578057Y51936D01*
G37*
%LPD*%
%LPC*%
G36*
X146257Y51936D02*
X146257Y51936D01*
X143036Y53270D01*
X140570Y55736D01*
X139236Y58957D01*
X139236Y62443D01*
X140570Y65664D01*
X143036Y68130D01*
X146257Y69464D01*
X149743Y69464D01*
X152964Y68130D01*
X155430Y65664D01*
X156764Y62443D01*
X156764Y58957D01*
X155430Y55736D01*
X152964Y53270D01*
X149743Y51936D01*
X146257Y51936D01*
G37*
%LPD*%
%LPC*%
G36*
X146257Y331336D02*
X146257Y331336D01*
X143036Y332670D01*
X140570Y335136D01*
X139236Y338357D01*
X139236Y341843D01*
X140570Y345064D01*
X143036Y347530D01*
X146257Y348864D01*
X149743Y348864D01*
X152964Y347530D01*
X155430Y345064D01*
X156764Y341843D01*
X156764Y338357D01*
X155430Y335136D01*
X152964Y332670D01*
X149743Y331336D01*
X146257Y331336D01*
G37*
%LPD*%
%LPC*%
G36*
X171657Y51936D02*
X171657Y51936D01*
X168436Y53270D01*
X165970Y55736D01*
X164636Y58957D01*
X164636Y62443D01*
X165970Y65664D01*
X168436Y68130D01*
X171657Y69464D01*
X175143Y69464D01*
X178364Y68130D01*
X180830Y65664D01*
X182164Y62443D01*
X182164Y58957D01*
X180830Y55736D01*
X178364Y53270D01*
X175143Y51936D01*
X171657Y51936D01*
G37*
%LPD*%
%LPC*%
G36*
X197057Y77336D02*
X197057Y77336D01*
X193836Y78670D01*
X191370Y81136D01*
X190036Y84357D01*
X190036Y87843D01*
X191370Y91064D01*
X193836Y93530D01*
X197057Y94864D01*
X200543Y94864D01*
X203764Y93530D01*
X206230Y91064D01*
X207564Y87843D01*
X207564Y84357D01*
X206230Y81136D01*
X203764Y78670D01*
X200543Y77336D01*
X197057Y77336D01*
G37*
%LPD*%
%LPC*%
G36*
X222457Y77336D02*
X222457Y77336D01*
X219236Y78670D01*
X216770Y81136D01*
X215436Y84357D01*
X215436Y87843D01*
X216770Y91064D01*
X219236Y93530D01*
X222457Y94864D01*
X225943Y94864D01*
X229164Y93530D01*
X231630Y91064D01*
X232964Y87843D01*
X232964Y84357D01*
X231630Y81136D01*
X229164Y78670D01*
X225943Y77336D01*
X222457Y77336D01*
G37*
%LPD*%
%LPC*%
G36*
X349457Y51936D02*
X349457Y51936D01*
X346236Y53270D01*
X343770Y55736D01*
X342436Y58957D01*
X342436Y62443D01*
X343770Y65664D01*
X346236Y68130D01*
X349457Y69464D01*
X352943Y69464D01*
X356164Y68130D01*
X358630Y65664D01*
X359964Y62443D01*
X359964Y58957D01*
X358630Y55736D01*
X356164Y53270D01*
X352943Y51936D01*
X349457Y51936D01*
G37*
%LPD*%
%LPC*%
G36*
X247857Y77336D02*
X247857Y77336D01*
X244636Y78670D01*
X242170Y81136D01*
X240836Y84357D01*
X240836Y87843D01*
X242170Y91064D01*
X244636Y93530D01*
X247857Y94864D01*
X251343Y94864D01*
X254564Y93530D01*
X257030Y91064D01*
X258364Y87843D01*
X258364Y84357D01*
X257030Y81136D01*
X254564Y78670D01*
X251343Y77336D01*
X247857Y77336D01*
G37*
%LPD*%
%LPC*%
G36*
X273257Y77336D02*
X273257Y77336D01*
X270036Y78670D01*
X267570Y81136D01*
X266236Y84357D01*
X266236Y87843D01*
X267570Y91064D01*
X270036Y93530D01*
X273257Y94864D01*
X276743Y94864D01*
X279964Y93530D01*
X282430Y91064D01*
X283764Y87843D01*
X283764Y84357D01*
X282430Y81136D01*
X279964Y78670D01*
X276743Y77336D01*
X273257Y77336D01*
G37*
%LPD*%
%LPC*%
G36*
X324057Y77336D02*
X324057Y77336D01*
X320836Y78670D01*
X318370Y81136D01*
X317036Y84357D01*
X317036Y87843D01*
X318370Y91064D01*
X320836Y93530D01*
X324057Y94864D01*
X327543Y94864D01*
X330764Y93530D01*
X333230Y91064D01*
X334564Y87843D01*
X334564Y84357D01*
X333230Y81136D01*
X330764Y78670D01*
X327543Y77336D01*
X324057Y77336D01*
G37*
%LPD*%
%LPC*%
G36*
X298657Y77336D02*
X298657Y77336D01*
X295436Y78670D01*
X292970Y81136D01*
X291636Y84357D01*
X291636Y87843D01*
X292970Y91064D01*
X295436Y93530D01*
X298657Y94864D01*
X302143Y94864D01*
X305364Y93530D01*
X307830Y91064D01*
X309164Y87843D01*
X309164Y84357D01*
X307830Y81136D01*
X305364Y78670D01*
X302143Y77336D01*
X298657Y77336D01*
G37*
%LPD*%
%LPC*%
G36*
X578057Y77336D02*
X578057Y77336D01*
X574836Y78670D01*
X572370Y81136D01*
X571036Y84357D01*
X571036Y87843D01*
X572370Y91064D01*
X574836Y93530D01*
X578057Y94864D01*
X581543Y94864D01*
X584764Y93530D01*
X587230Y91064D01*
X588564Y87843D01*
X588564Y84357D01*
X587230Y81136D01*
X584764Y78670D01*
X581543Y77336D01*
X578057Y77336D01*
G37*
%LPD*%
%LPC*%
G36*
X552657Y77336D02*
X552657Y77336D01*
X549436Y78670D01*
X546970Y81136D01*
X545636Y84357D01*
X545636Y87843D01*
X546970Y91064D01*
X549436Y93530D01*
X552657Y94864D01*
X556143Y94864D01*
X559364Y93530D01*
X561830Y91064D01*
X563164Y87843D01*
X563164Y84357D01*
X561830Y81136D01*
X559364Y78670D01*
X556143Y77336D01*
X552657Y77336D01*
G37*
%LPD*%
%LPC*%
G36*
X527257Y77336D02*
X527257Y77336D01*
X524036Y78670D01*
X521570Y81136D01*
X520236Y84357D01*
X520236Y87843D01*
X521570Y91064D01*
X524036Y93530D01*
X527257Y94864D01*
X530743Y94864D01*
X533964Y93530D01*
X536430Y91064D01*
X537764Y87843D01*
X537764Y84357D01*
X536430Y81136D01*
X533964Y78670D01*
X530743Y77336D01*
X527257Y77336D01*
G37*
%LPD*%
%LPC*%
G36*
X501857Y77336D02*
X501857Y77336D01*
X498636Y78670D01*
X496170Y81136D01*
X494836Y84357D01*
X494836Y87843D01*
X496170Y91064D01*
X498636Y93530D01*
X501857Y94864D01*
X505343Y94864D01*
X508564Y93530D01*
X511030Y91064D01*
X512364Y87843D01*
X512364Y84357D01*
X511030Y81136D01*
X508564Y78670D01*
X505343Y77336D01*
X501857Y77336D01*
G37*
%LPD*%
%LPC*%
G36*
X476457Y77336D02*
X476457Y77336D01*
X473236Y78670D01*
X470770Y81136D01*
X469436Y84357D01*
X469436Y87843D01*
X470770Y91064D01*
X473236Y93530D01*
X476457Y94864D01*
X479943Y94864D01*
X483164Y93530D01*
X485630Y91064D01*
X486964Y87843D01*
X486964Y84357D01*
X485630Y81136D01*
X483164Y78670D01*
X479943Y77336D01*
X476457Y77336D01*
G37*
%LPD*%
%LPC*%
G36*
X451057Y77336D02*
X451057Y77336D01*
X447836Y78670D01*
X445370Y81136D01*
X444036Y84357D01*
X444036Y87843D01*
X445370Y91064D01*
X447836Y93530D01*
X451057Y94864D01*
X454543Y94864D01*
X457764Y93530D01*
X460230Y91064D01*
X461564Y87843D01*
X461564Y84357D01*
X460230Y81136D01*
X457764Y78670D01*
X454543Y77336D01*
X451057Y77336D01*
G37*
%LPD*%
%LPC*%
G36*
X425657Y77336D02*
X425657Y77336D01*
X422436Y78670D01*
X419970Y81136D01*
X418636Y84357D01*
X418636Y87843D01*
X419970Y91064D01*
X422436Y93530D01*
X425657Y94864D01*
X429143Y94864D01*
X432364Y93530D01*
X434830Y91064D01*
X436164Y87843D01*
X436164Y84357D01*
X434830Y81136D01*
X432364Y78670D01*
X429143Y77336D01*
X425657Y77336D01*
G37*
%LPD*%
%LPC*%
G36*
X400257Y77336D02*
X400257Y77336D01*
X397036Y78670D01*
X394570Y81136D01*
X393236Y84357D01*
X393236Y87843D01*
X394570Y91064D01*
X397036Y93530D01*
X400257Y94864D01*
X403743Y94864D01*
X406964Y93530D01*
X409430Y91064D01*
X410764Y87843D01*
X410764Y84357D01*
X409430Y81136D01*
X406964Y78670D01*
X403743Y77336D01*
X400257Y77336D01*
G37*
%LPD*%
%LPC*%
G36*
X374857Y77336D02*
X374857Y77336D01*
X371636Y78670D01*
X369170Y81136D01*
X367836Y84357D01*
X367836Y87843D01*
X369170Y91064D01*
X371636Y93530D01*
X374857Y94864D01*
X378343Y94864D01*
X381564Y93530D01*
X384030Y91064D01*
X385364Y87843D01*
X385364Y84357D01*
X384030Y81136D01*
X381564Y78670D01*
X378343Y77336D01*
X374857Y77336D01*
G37*
%LPD*%
%LPC*%
G36*
X349457Y77336D02*
X349457Y77336D01*
X346236Y78670D01*
X343770Y81136D01*
X342436Y84357D01*
X342436Y87843D01*
X343770Y91064D01*
X346236Y93530D01*
X349457Y94864D01*
X352943Y94864D01*
X356164Y93530D01*
X358630Y91064D01*
X359964Y87843D01*
X359964Y84357D01*
X358630Y81136D01*
X356164Y78670D01*
X352943Y77336D01*
X349457Y77336D01*
G37*
%LPD*%
%LPC*%
G36*
X171657Y77336D02*
X171657Y77336D01*
X168436Y78670D01*
X165970Y81136D01*
X164636Y84357D01*
X164636Y87843D01*
X165970Y91064D01*
X168436Y93530D01*
X171657Y94864D01*
X175143Y94864D01*
X178364Y93530D01*
X180830Y91064D01*
X182164Y87843D01*
X182164Y84357D01*
X180830Y81136D01*
X178364Y78670D01*
X175143Y77336D01*
X171657Y77336D01*
G37*
%LPD*%
%LPC*%
G36*
X146257Y77336D02*
X146257Y77336D01*
X143036Y78670D01*
X140570Y81136D01*
X139236Y84357D01*
X139236Y87843D01*
X140570Y91064D01*
X143036Y93530D01*
X146257Y94864D01*
X149743Y94864D01*
X152964Y93530D01*
X155430Y91064D01*
X156764Y87843D01*
X156764Y84357D01*
X155430Y81136D01*
X152964Y78670D01*
X149743Y77336D01*
X146257Y77336D01*
G37*
%LPD*%
%LPC*%
G36*
X118038Y140039D02*
X118038Y140039D01*
X118038Y155967D01*
X119144Y155822D01*
X121504Y155189D01*
X123761Y154254D01*
X125877Y153032D01*
X127816Y151545D01*
X129544Y149817D01*
X131031Y147878D01*
X132253Y145762D01*
X133188Y143505D01*
X133821Y141145D01*
X133966Y140039D01*
X118038Y140039D01*
G37*
%LPD*%
%LPC*%
G36*
X118038Y271439D02*
X118038Y271439D01*
X118038Y287367D01*
X119144Y287222D01*
X121504Y286589D01*
X123761Y285654D01*
X125877Y284432D01*
X127816Y282945D01*
X129544Y281217D01*
X131031Y279278D01*
X132253Y277162D01*
X133188Y274905D01*
X133821Y272545D01*
X133966Y271439D01*
X118038Y271439D01*
G37*
%LPD*%
%LPC*%
G36*
X118038Y134961D02*
X118038Y134961D01*
X133966Y134961D01*
X133821Y133855D01*
X133188Y131495D01*
X132253Y129238D01*
X131031Y127122D01*
X129544Y125183D01*
X127816Y123455D01*
X125877Y121968D01*
X123761Y120746D01*
X121504Y119811D01*
X119144Y119178D01*
X118038Y119033D01*
X118038Y134961D01*
G37*
%LPD*%
%LPC*%
G36*
X97032Y140039D02*
X97032Y140039D01*
X97177Y141145D01*
X97810Y143505D01*
X98745Y145762D01*
X99967Y147878D01*
X101454Y149817D01*
X103182Y151545D01*
X105121Y153032D01*
X107237Y154254D01*
X109494Y155189D01*
X111854Y155822D01*
X112960Y155967D01*
X112960Y140039D01*
X97032Y140039D01*
G37*
%LPD*%
%LPC*%
G36*
X118038Y266361D02*
X118038Y266361D01*
X133966Y266361D01*
X133821Y265255D01*
X133188Y262895D01*
X132253Y260638D01*
X131031Y258522D01*
X129544Y256583D01*
X127816Y254855D01*
X125877Y253368D01*
X123761Y252146D01*
X121504Y251211D01*
X119144Y250578D01*
X118038Y250433D01*
X118038Y266361D01*
G37*
%LPD*%
%LPC*%
G36*
X97032Y271439D02*
X97032Y271439D01*
X97177Y272545D01*
X97810Y274905D01*
X98745Y277162D01*
X99967Y279278D01*
X101454Y281217D01*
X103182Y282945D01*
X105121Y284432D01*
X107237Y285654D01*
X109494Y286589D01*
X111854Y287222D01*
X112960Y287367D01*
X112960Y271439D01*
X97032Y271439D01*
G37*
%LPD*%
%LPC*%
G36*
X111854Y119178D02*
X111854Y119178D01*
X109494Y119811D01*
X107237Y120746D01*
X105121Y121968D01*
X103182Y123455D01*
X101454Y125183D01*
X99967Y127122D01*
X98745Y129238D01*
X97810Y131495D01*
X97177Y133855D01*
X97032Y134961D01*
X112960Y134961D01*
X112960Y119033D01*
X111854Y119178D01*
G37*
%LPD*%
%LPC*%
G36*
X111854Y250578D02*
X111854Y250578D01*
X109494Y251211D01*
X107237Y252146D01*
X105121Y253368D01*
X103182Y254855D01*
X101454Y256583D01*
X99967Y258522D01*
X98745Y260638D01*
X97810Y262895D01*
X97177Y265255D01*
X97032Y266361D01*
X112960Y266361D01*
X112960Y250433D01*
X111854Y250578D01*
G37*
%LPD*%
%LPC*%
G36*
X592945Y226567D02*
X592945Y226567D01*
X590331Y227650D01*
X588330Y229651D01*
X587247Y232265D01*
X587247Y235095D01*
X588330Y237709D01*
X590331Y239710D01*
X592945Y240793D01*
X595775Y240793D01*
X598389Y239710D01*
X600390Y237709D01*
X601473Y235095D01*
X601473Y232265D01*
X600390Y229651D01*
X598389Y227650D01*
X595775Y226567D01*
X592945Y226567D01*
G37*
%LPD*%
%LPC*%
G36*
X539605Y229107D02*
X539605Y229107D01*
X536991Y230190D01*
X534990Y232191D01*
X533907Y234805D01*
X533907Y237635D01*
X534990Y240249D01*
X536991Y242250D01*
X539605Y243333D01*
X542435Y243333D01*
X545049Y242250D01*
X547050Y240249D01*
X548133Y237635D01*
X548133Y234805D01*
X547050Y232191D01*
X545049Y230190D01*
X542435Y229107D01*
X539605Y229107D01*
G37*
%LPD*%
%LPC*%
G36*
X491345Y226567D02*
X491345Y226567D01*
X488731Y227650D01*
X486730Y229651D01*
X485647Y232265D01*
X485647Y235095D01*
X486730Y237709D01*
X488731Y239710D01*
X491345Y240793D01*
X494175Y240793D01*
X496789Y239710D01*
X498790Y237709D01*
X499873Y235095D01*
X499873Y232265D01*
X498790Y229651D01*
X496789Y227650D01*
X494175Y226567D01*
X491345Y226567D01*
G37*
%LPD*%
%LPC*%
G36*
X242425Y124967D02*
X242425Y124967D01*
X239811Y126050D01*
X237810Y128051D01*
X236727Y130665D01*
X236727Y133495D01*
X237810Y136109D01*
X239811Y138110D01*
X242425Y139193D01*
X245255Y139193D01*
X247869Y138110D01*
X249870Y136109D01*
X250953Y133495D01*
X250953Y130665D01*
X249870Y128051D01*
X247869Y126050D01*
X245255Y124967D01*
X242425Y124967D01*
G37*
%LPD*%
%LPC*%
G36*
X394355Y166671D02*
X394355Y166671D01*
X391758Y167747D01*
X389771Y169734D01*
X388695Y172331D01*
X388695Y175141D01*
X389771Y177738D01*
X391758Y179725D01*
X394355Y180801D01*
X397165Y180801D01*
X399762Y179725D01*
X401749Y177738D01*
X402825Y175141D01*
X402825Y172331D01*
X401749Y169734D01*
X399762Y167747D01*
X397165Y166671D01*
X394355Y166671D01*
G37*
%LPD*%
%LPC*%
G36*
X334355Y166671D02*
X334355Y166671D01*
X331758Y167747D01*
X329771Y169734D01*
X328695Y172331D01*
X328695Y175141D01*
X329771Y177738D01*
X331758Y179725D01*
X334355Y180801D01*
X337165Y180801D01*
X339762Y179725D01*
X341749Y177738D01*
X342825Y175141D01*
X342825Y172331D01*
X341749Y169734D01*
X339762Y167747D01*
X337165Y166671D01*
X334355Y166671D01*
G37*
%LPD*%
%LPC*%
G36*
X364355Y213671D02*
X364355Y213671D01*
X361758Y214747D01*
X359771Y216734D01*
X358695Y219331D01*
X358695Y222141D01*
X359771Y224738D01*
X361758Y226725D01*
X364355Y227801D01*
X367165Y227801D01*
X369762Y226725D01*
X371749Y224738D01*
X372825Y222141D01*
X372825Y219331D01*
X371749Y216734D01*
X369762Y214747D01*
X367165Y213671D01*
X364355Y213671D01*
G37*
%LPD*%
%LPC*%
G36*
X242683Y187225D02*
X242683Y187225D01*
X240546Y188110D01*
X238910Y189746D01*
X238025Y191883D01*
X238025Y194197D01*
X238910Y196334D01*
X240546Y197970D01*
X242683Y198855D01*
X244997Y198855D01*
X247134Y197970D01*
X248770Y196334D01*
X249655Y194197D01*
X249655Y191883D01*
X248770Y189746D01*
X247134Y188110D01*
X244997Y187225D01*
X242683Y187225D01*
G37*
%LPD*%
%LPC*%
G36*
X285863Y177065D02*
X285863Y177065D01*
X283726Y177950D01*
X282090Y179586D01*
X281205Y181723D01*
X281205Y184037D01*
X282090Y186174D01*
X283726Y187810D01*
X285863Y188695D01*
X288177Y188695D01*
X290314Y187810D01*
X291950Y186174D01*
X292835Y184037D01*
X292835Y181723D01*
X291950Y179586D01*
X290314Y177950D01*
X288177Y177065D01*
X285863Y177065D01*
G37*
%LPD*%
%LPC*%
G36*
X245223Y207545D02*
X245223Y207545D01*
X243086Y208430D01*
X241450Y210066D01*
X240565Y212203D01*
X240565Y214517D01*
X241450Y216654D01*
X243086Y218290D01*
X245223Y219175D01*
X247537Y219175D01*
X249674Y218290D01*
X251310Y216654D01*
X252195Y214517D01*
X252195Y212203D01*
X251310Y210066D01*
X249674Y208430D01*
X247537Y207545D01*
X245223Y207545D01*
G37*
%LPD*%
%LPC*%
G36*
X176688Y248411D02*
X176688Y248411D01*
X174634Y249262D01*
X173062Y250834D01*
X172211Y252888D01*
X172211Y255112D01*
X173062Y257166D01*
X174634Y258738D01*
X176688Y259589D01*
X178912Y259589D01*
X180966Y258738D01*
X182538Y257166D01*
X183389Y255112D01*
X183389Y252888D01*
X182538Y250834D01*
X180966Y249262D01*
X178912Y248411D01*
X176688Y248411D01*
G37*
%LPD*%
%LPC*%
G36*
X214788Y273811D02*
X214788Y273811D01*
X212734Y274662D01*
X211162Y276234D01*
X210311Y278288D01*
X210311Y280512D01*
X211162Y282566D01*
X212734Y284138D01*
X214788Y284989D01*
X217012Y284989D01*
X219066Y284138D01*
X220638Y282566D01*
X221489Y280512D01*
X221489Y278288D01*
X220638Y276234D01*
X219066Y274662D01*
X217012Y273811D01*
X214788Y273811D01*
G37*
%LPD*%
%LPC*%
G36*
X115498Y137499D02*
X115498Y137499D01*
X115498Y137501D01*
X115500Y137501D01*
X115500Y137499D01*
X115498Y137499D01*
G37*
%LPD*%
%LPC*%
G36*
X115498Y268899D02*
X115498Y268899D01*
X115498Y268901D01*
X115500Y268901D01*
X115500Y268899D01*
X115498Y268899D01*
G37*
%LPD*%
D10*
X148000Y60700D03*
X148000Y86100D03*
X173400Y60700D03*
X173400Y86100D03*
X198800Y60700D03*
X198800Y86100D03*
X224200Y60700D03*
X224200Y86100D03*
X249600Y60700D03*
X249600Y86100D03*
X275000Y60700D03*
X275000Y86100D03*
X300400Y60700D03*
X300400Y86100D03*
X325800Y60700D03*
X325800Y86100D03*
X351200Y60700D03*
X351200Y86100D03*
X376600Y60700D03*
X376600Y86100D03*
X402000Y60700D03*
X402000Y86100D03*
X427400Y60700D03*
X427400Y86100D03*
X452800Y60700D03*
X452800Y86100D03*
X478200Y60700D03*
X478200Y86100D03*
X503600Y60700D03*
X503600Y86100D03*
X529000Y60700D03*
X529000Y86100D03*
X554400Y60700D03*
X554400Y86100D03*
X579800Y60700D03*
X579800Y86100D03*
X148000Y314700D03*
X148000Y340100D03*
X173400Y314700D03*
X173400Y340100D03*
X198800Y314700D03*
X198800Y340100D03*
X224200Y314700D03*
X224200Y340100D03*
X249600Y314700D03*
X249600Y340100D03*
X275000Y314700D03*
X275000Y340100D03*
X300400Y314700D03*
X300400Y340100D03*
X325800Y314700D03*
X325800Y340100D03*
X351200Y314700D03*
X351200Y340100D03*
X376600Y314700D03*
X376600Y340100D03*
X402000Y314700D03*
X402000Y340100D03*
X427400Y314700D03*
X427400Y340100D03*
X452800Y314700D03*
X452800Y340100D03*
X478200Y314700D03*
X478200Y340100D03*
X503600Y314700D03*
X503600Y340100D03*
X529000Y314700D03*
X529000Y340100D03*
X554400Y314700D03*
X554400Y340100D03*
X579800Y314700D03*
X579800Y340100D03*
D11*
X365760Y220736D03*
X335760Y173736D03*
X395760Y173736D03*
D12*
X142600Y238200D03*
X142600Y213200D03*
X142600Y193200D03*
X142600Y168200D03*
D13*
X115499Y268900D03*
X115499Y137500D03*
D14*
X177800Y254000D03*
X215900Y279400D03*
D15*
X287020Y182880D03*
D16*
X243840Y132080D03*
X139700Y114300D03*
X177800Y139700D03*
D15*
X243840Y193040D03*
D16*
X594360Y233680D03*
X492760Y233680D03*
X541020Y236220D03*
D15*
X246380Y213360D03*
M02*
