G04 EAGLE Gerber RS-274X export*
G75*
%MOMM*%
%FSLAX34Y34*%
%LPD*%
%INSilkscreen Top*%
%IPPOS*%
%AMOC8*
5,1,8,0,0,1.08239X$1,22.5*%
G01*
%ADD10C,0.101600*%
%ADD11C,0.254000*%
%ADD12C,0.152400*%
%ADD13C,0.127000*%
%ADD14C,0.076200*%
%ADD15C,0.203200*%
%ADD16C,0.409562*%


D10*
X353568Y36068D02*
X353568Y47752D01*
X356814Y47752D01*
X356927Y47750D01*
X357040Y47744D01*
X357153Y47734D01*
X357266Y47720D01*
X357378Y47703D01*
X357489Y47681D01*
X357599Y47656D01*
X357709Y47626D01*
X357817Y47593D01*
X357924Y47556D01*
X358030Y47516D01*
X358134Y47471D01*
X358237Y47423D01*
X358338Y47372D01*
X358437Y47317D01*
X358534Y47259D01*
X358629Y47197D01*
X358722Y47132D01*
X358812Y47064D01*
X358900Y46993D01*
X358986Y46918D01*
X359069Y46841D01*
X359149Y46761D01*
X359226Y46678D01*
X359301Y46592D01*
X359372Y46504D01*
X359440Y46414D01*
X359505Y46321D01*
X359567Y46226D01*
X359625Y46129D01*
X359680Y46030D01*
X359731Y45929D01*
X359779Y45826D01*
X359824Y45722D01*
X359864Y45616D01*
X359901Y45509D01*
X359934Y45401D01*
X359964Y45291D01*
X359989Y45181D01*
X360011Y45070D01*
X360028Y44958D01*
X360042Y44845D01*
X360052Y44732D01*
X360058Y44619D01*
X360060Y44506D01*
X360058Y44393D01*
X360052Y44280D01*
X360042Y44167D01*
X360028Y44054D01*
X360011Y43942D01*
X359989Y43831D01*
X359964Y43721D01*
X359934Y43611D01*
X359901Y43503D01*
X359864Y43396D01*
X359824Y43290D01*
X359779Y43186D01*
X359731Y43083D01*
X359680Y42982D01*
X359625Y42883D01*
X359567Y42786D01*
X359505Y42691D01*
X359440Y42598D01*
X359372Y42508D01*
X359301Y42420D01*
X359226Y42334D01*
X359149Y42251D01*
X359069Y42171D01*
X358986Y42094D01*
X358900Y42019D01*
X358812Y41948D01*
X358722Y41880D01*
X358629Y41815D01*
X358534Y41753D01*
X358437Y41695D01*
X358338Y41640D01*
X358237Y41589D01*
X358134Y41541D01*
X358030Y41496D01*
X357924Y41456D01*
X357817Y41419D01*
X357709Y41386D01*
X357599Y41356D01*
X357489Y41331D01*
X357378Y41309D01*
X357266Y41292D01*
X357153Y41278D01*
X357040Y41268D01*
X356927Y41262D01*
X356814Y41260D01*
X356814Y41261D02*
X353568Y41261D01*
X364782Y43857D02*
X364782Y36068D01*
X364782Y43857D02*
X368677Y43857D01*
X368677Y42559D01*
X372336Y41261D02*
X372336Y38664D01*
X372336Y41261D02*
X372338Y41362D01*
X372344Y41462D01*
X372354Y41562D01*
X372367Y41662D01*
X372385Y41761D01*
X372406Y41860D01*
X372431Y41957D01*
X372460Y42054D01*
X372493Y42149D01*
X372529Y42243D01*
X372569Y42335D01*
X372612Y42426D01*
X372659Y42515D01*
X372709Y42602D01*
X372763Y42688D01*
X372820Y42771D01*
X372880Y42851D01*
X372943Y42930D01*
X373010Y43006D01*
X373079Y43079D01*
X373151Y43149D01*
X373225Y43217D01*
X373302Y43282D01*
X373382Y43343D01*
X373464Y43402D01*
X373548Y43457D01*
X373634Y43509D01*
X373722Y43558D01*
X373812Y43603D01*
X373904Y43645D01*
X373997Y43683D01*
X374092Y43717D01*
X374187Y43748D01*
X374284Y43775D01*
X374382Y43798D01*
X374481Y43818D01*
X374581Y43833D01*
X374681Y43845D01*
X374781Y43853D01*
X374882Y43857D01*
X374982Y43857D01*
X375083Y43853D01*
X375183Y43845D01*
X375283Y43833D01*
X375383Y43818D01*
X375482Y43798D01*
X375580Y43775D01*
X375677Y43748D01*
X375772Y43717D01*
X375867Y43683D01*
X375960Y43645D01*
X376052Y43603D01*
X376142Y43558D01*
X376230Y43509D01*
X376316Y43457D01*
X376400Y43402D01*
X376482Y43343D01*
X376562Y43282D01*
X376639Y43217D01*
X376713Y43149D01*
X376785Y43079D01*
X376854Y43006D01*
X376921Y42930D01*
X376984Y42851D01*
X377044Y42771D01*
X377101Y42688D01*
X377155Y42602D01*
X377205Y42515D01*
X377252Y42426D01*
X377295Y42335D01*
X377335Y42243D01*
X377371Y42149D01*
X377404Y42054D01*
X377433Y41957D01*
X377458Y41860D01*
X377479Y41761D01*
X377497Y41662D01*
X377510Y41562D01*
X377520Y41462D01*
X377526Y41362D01*
X377528Y41261D01*
X377529Y41261D02*
X377529Y38664D01*
X377528Y38664D02*
X377526Y38563D01*
X377520Y38463D01*
X377510Y38363D01*
X377497Y38263D01*
X377479Y38164D01*
X377458Y38065D01*
X377433Y37968D01*
X377404Y37871D01*
X377371Y37776D01*
X377335Y37682D01*
X377295Y37590D01*
X377252Y37499D01*
X377205Y37410D01*
X377155Y37323D01*
X377101Y37237D01*
X377044Y37154D01*
X376984Y37074D01*
X376921Y36995D01*
X376854Y36919D01*
X376785Y36846D01*
X376713Y36776D01*
X376639Y36708D01*
X376562Y36643D01*
X376482Y36582D01*
X376400Y36523D01*
X376316Y36468D01*
X376230Y36416D01*
X376142Y36367D01*
X376052Y36322D01*
X375960Y36280D01*
X375867Y36242D01*
X375772Y36208D01*
X375677Y36177D01*
X375580Y36150D01*
X375482Y36127D01*
X375383Y36107D01*
X375283Y36092D01*
X375183Y36080D01*
X375083Y36072D01*
X374982Y36068D01*
X374882Y36068D01*
X374781Y36072D01*
X374681Y36080D01*
X374581Y36092D01*
X374481Y36107D01*
X374382Y36127D01*
X374284Y36150D01*
X374187Y36177D01*
X374092Y36208D01*
X373997Y36242D01*
X373904Y36280D01*
X373812Y36322D01*
X373722Y36367D01*
X373634Y36416D01*
X373548Y36468D01*
X373464Y36523D01*
X373382Y36582D01*
X373302Y36643D01*
X373225Y36708D01*
X373151Y36776D01*
X373079Y36846D01*
X373010Y36919D01*
X372943Y36995D01*
X372880Y37074D01*
X372820Y37154D01*
X372763Y37237D01*
X372709Y37323D01*
X372659Y37410D01*
X372612Y37499D01*
X372569Y37590D01*
X372529Y37682D01*
X372493Y37776D01*
X372460Y37871D01*
X372431Y37968D01*
X372406Y38065D01*
X372385Y38164D01*
X372367Y38263D01*
X372354Y38363D01*
X372344Y38463D01*
X372338Y38563D01*
X372336Y38664D01*
X381974Y34121D02*
X381974Y43857D01*
X381973Y34121D02*
X381971Y34034D01*
X381965Y33946D01*
X381955Y33860D01*
X381942Y33773D01*
X381924Y33688D01*
X381903Y33603D01*
X381878Y33519D01*
X381849Y33437D01*
X381816Y33356D01*
X381780Y33276D01*
X381741Y33198D01*
X381697Y33122D01*
X381651Y33048D01*
X381601Y32977D01*
X381548Y32907D01*
X381492Y32840D01*
X381433Y32776D01*
X381372Y32714D01*
X381307Y32655D01*
X381240Y32599D01*
X381170Y32546D01*
X381099Y32496D01*
X381025Y32450D01*
X380949Y32406D01*
X380871Y32367D01*
X380791Y32331D01*
X380710Y32298D01*
X380628Y32269D01*
X380544Y32244D01*
X380459Y32223D01*
X380374Y32205D01*
X380287Y32192D01*
X380201Y32182D01*
X380113Y32176D01*
X380026Y32174D01*
X380026Y32173D02*
X379377Y32173D01*
X381649Y47103D02*
X381649Y47752D01*
X382298Y47752D01*
X382298Y47103D01*
X381649Y47103D01*
X388761Y36068D02*
X392007Y36068D01*
X388761Y36068D02*
X388674Y36070D01*
X388586Y36076D01*
X388500Y36086D01*
X388413Y36099D01*
X388328Y36117D01*
X388243Y36138D01*
X388159Y36163D01*
X388077Y36192D01*
X387996Y36225D01*
X387916Y36261D01*
X387838Y36300D01*
X387762Y36344D01*
X387688Y36390D01*
X387617Y36440D01*
X387547Y36493D01*
X387480Y36549D01*
X387416Y36608D01*
X387354Y36670D01*
X387295Y36734D01*
X387239Y36801D01*
X387186Y36871D01*
X387136Y36942D01*
X387090Y37016D01*
X387046Y37092D01*
X387007Y37170D01*
X386971Y37250D01*
X386938Y37331D01*
X386909Y37413D01*
X386884Y37497D01*
X386863Y37582D01*
X386845Y37667D01*
X386832Y37754D01*
X386822Y37840D01*
X386816Y37928D01*
X386814Y38015D01*
X386814Y41261D01*
X386816Y41362D01*
X386822Y41462D01*
X386832Y41562D01*
X386845Y41662D01*
X386863Y41761D01*
X386884Y41860D01*
X386909Y41957D01*
X386938Y42054D01*
X386971Y42149D01*
X387007Y42243D01*
X387047Y42335D01*
X387090Y42426D01*
X387137Y42515D01*
X387187Y42602D01*
X387241Y42688D01*
X387298Y42771D01*
X387358Y42851D01*
X387421Y42930D01*
X387488Y43006D01*
X387557Y43079D01*
X387629Y43149D01*
X387703Y43217D01*
X387780Y43282D01*
X387860Y43343D01*
X387942Y43402D01*
X388026Y43457D01*
X388112Y43509D01*
X388200Y43558D01*
X388290Y43603D01*
X388382Y43645D01*
X388475Y43683D01*
X388570Y43717D01*
X388665Y43748D01*
X388762Y43775D01*
X388860Y43798D01*
X388959Y43818D01*
X389059Y43833D01*
X389159Y43845D01*
X389259Y43853D01*
X389360Y43857D01*
X389460Y43857D01*
X389561Y43853D01*
X389661Y43845D01*
X389761Y43833D01*
X389861Y43818D01*
X389960Y43798D01*
X390058Y43775D01*
X390155Y43748D01*
X390250Y43717D01*
X390345Y43683D01*
X390438Y43645D01*
X390530Y43603D01*
X390620Y43558D01*
X390708Y43509D01*
X390794Y43457D01*
X390878Y43402D01*
X390960Y43343D01*
X391040Y43282D01*
X391117Y43217D01*
X391191Y43149D01*
X391263Y43079D01*
X391332Y43006D01*
X391399Y42930D01*
X391462Y42851D01*
X391522Y42771D01*
X391579Y42688D01*
X391633Y42602D01*
X391683Y42515D01*
X391730Y42426D01*
X391773Y42335D01*
X391813Y42243D01*
X391849Y42149D01*
X391882Y42054D01*
X391911Y41957D01*
X391936Y41860D01*
X391957Y41761D01*
X391975Y41662D01*
X391988Y41562D01*
X391998Y41462D01*
X392004Y41362D01*
X392006Y41261D01*
X392007Y41261D02*
X392007Y39963D01*
X386814Y39963D01*
X398680Y36068D02*
X401277Y36068D01*
X398680Y36068D02*
X398593Y36070D01*
X398505Y36076D01*
X398419Y36086D01*
X398332Y36099D01*
X398247Y36117D01*
X398162Y36138D01*
X398078Y36163D01*
X397996Y36192D01*
X397915Y36225D01*
X397835Y36261D01*
X397757Y36300D01*
X397681Y36344D01*
X397607Y36390D01*
X397536Y36440D01*
X397466Y36493D01*
X397399Y36549D01*
X397335Y36608D01*
X397273Y36670D01*
X397214Y36734D01*
X397158Y36801D01*
X397105Y36871D01*
X397055Y36942D01*
X397009Y37016D01*
X396965Y37092D01*
X396926Y37170D01*
X396890Y37250D01*
X396857Y37331D01*
X396828Y37413D01*
X396803Y37497D01*
X396782Y37582D01*
X396764Y37667D01*
X396751Y37754D01*
X396741Y37840D01*
X396735Y37928D01*
X396733Y38015D01*
X396733Y41910D01*
X396735Y41997D01*
X396741Y42085D01*
X396751Y42171D01*
X396764Y42258D01*
X396782Y42343D01*
X396803Y42428D01*
X396828Y42512D01*
X396857Y42594D01*
X396890Y42675D01*
X396926Y42755D01*
X396965Y42833D01*
X397009Y42909D01*
X397055Y42983D01*
X397105Y43054D01*
X397158Y43124D01*
X397214Y43191D01*
X397273Y43255D01*
X397335Y43317D01*
X397399Y43376D01*
X397466Y43432D01*
X397536Y43485D01*
X397607Y43535D01*
X397681Y43581D01*
X397757Y43625D01*
X397835Y43664D01*
X397915Y43700D01*
X397996Y43733D01*
X398078Y43762D01*
X398162Y43787D01*
X398247Y43808D01*
X398332Y43826D01*
X398419Y43839D01*
X398505Y43849D01*
X398593Y43855D01*
X398680Y43857D01*
X401277Y43857D01*
X404515Y43857D02*
X408410Y43857D01*
X405814Y47752D02*
X405814Y38015D01*
X405816Y37928D01*
X405822Y37840D01*
X405832Y37754D01*
X405845Y37667D01*
X405863Y37582D01*
X405884Y37497D01*
X405909Y37413D01*
X405938Y37331D01*
X405971Y37250D01*
X406007Y37170D01*
X406046Y37092D01*
X406090Y37016D01*
X406136Y36942D01*
X406186Y36871D01*
X406239Y36801D01*
X406295Y36734D01*
X406354Y36670D01*
X406416Y36608D01*
X406480Y36549D01*
X406547Y36493D01*
X406617Y36440D01*
X406688Y36390D01*
X406762Y36344D01*
X406838Y36300D01*
X406916Y36261D01*
X406996Y36225D01*
X407077Y36192D01*
X407159Y36163D01*
X407243Y36138D01*
X407328Y36117D01*
X407413Y36099D01*
X407500Y36086D01*
X407586Y36076D01*
X407674Y36070D01*
X407761Y36068D01*
X408410Y36068D01*
X422501Y47752D02*
X422608Y47750D01*
X422714Y47744D01*
X422820Y47734D01*
X422926Y47721D01*
X423032Y47703D01*
X423136Y47682D01*
X423240Y47657D01*
X423343Y47628D01*
X423444Y47596D01*
X423544Y47559D01*
X423643Y47519D01*
X423741Y47476D01*
X423837Y47429D01*
X423931Y47378D01*
X424023Y47324D01*
X424113Y47267D01*
X424201Y47207D01*
X424286Y47143D01*
X424369Y47076D01*
X424450Y47006D01*
X424528Y46934D01*
X424604Y46858D01*
X424676Y46780D01*
X424746Y46699D01*
X424813Y46616D01*
X424877Y46531D01*
X424937Y46443D01*
X424994Y46353D01*
X425048Y46261D01*
X425099Y46167D01*
X425146Y46071D01*
X425189Y45973D01*
X425229Y45874D01*
X425266Y45774D01*
X425298Y45673D01*
X425327Y45570D01*
X425352Y45466D01*
X425373Y45362D01*
X425391Y45256D01*
X425404Y45150D01*
X425414Y45044D01*
X425420Y44938D01*
X425422Y44831D01*
X422501Y47752D02*
X422380Y47750D01*
X422259Y47744D01*
X422139Y47734D01*
X422018Y47721D01*
X421899Y47703D01*
X421779Y47682D01*
X421661Y47657D01*
X421544Y47628D01*
X421427Y47595D01*
X421312Y47559D01*
X421198Y47518D01*
X421085Y47475D01*
X420973Y47427D01*
X420864Y47376D01*
X420756Y47321D01*
X420649Y47263D01*
X420545Y47202D01*
X420443Y47137D01*
X420343Y47069D01*
X420245Y46998D01*
X420149Y46924D01*
X420056Y46847D01*
X419966Y46766D01*
X419878Y46683D01*
X419793Y46597D01*
X419710Y46508D01*
X419631Y46417D01*
X419554Y46323D01*
X419481Y46227D01*
X419411Y46129D01*
X419344Y46028D01*
X419280Y45925D01*
X419220Y45820D01*
X419163Y45713D01*
X419109Y45605D01*
X419059Y45495D01*
X419013Y45383D01*
X418970Y45270D01*
X418931Y45155D01*
X424448Y42559D02*
X424527Y42636D01*
X424603Y42717D01*
X424676Y42800D01*
X424746Y42885D01*
X424813Y42973D01*
X424877Y43063D01*
X424937Y43155D01*
X424994Y43250D01*
X425048Y43346D01*
X425099Y43444D01*
X425146Y43544D01*
X425190Y43646D01*
X425230Y43749D01*
X425266Y43853D01*
X425298Y43959D01*
X425327Y44065D01*
X425352Y44173D01*
X425374Y44281D01*
X425391Y44391D01*
X425405Y44500D01*
X425414Y44610D01*
X425420Y44721D01*
X425422Y44831D01*
X424448Y42559D02*
X418931Y36068D01*
X425422Y36068D01*
X436860Y36068D02*
X436860Y47752D01*
X436860Y36068D02*
X442053Y36068D01*
X446179Y36068D02*
X446179Y43857D01*
X445855Y47103D02*
X445855Y47752D01*
X446504Y47752D01*
X446504Y47103D01*
X445855Y47103D01*
X452710Y36068D02*
X455956Y36068D01*
X452710Y36068D02*
X452623Y36070D01*
X452535Y36076D01*
X452449Y36086D01*
X452362Y36099D01*
X452277Y36117D01*
X452192Y36138D01*
X452108Y36163D01*
X452026Y36192D01*
X451945Y36225D01*
X451865Y36261D01*
X451787Y36300D01*
X451711Y36344D01*
X451637Y36390D01*
X451566Y36440D01*
X451496Y36493D01*
X451429Y36549D01*
X451365Y36608D01*
X451303Y36670D01*
X451244Y36734D01*
X451188Y36801D01*
X451135Y36871D01*
X451085Y36942D01*
X451039Y37016D01*
X450995Y37092D01*
X450956Y37170D01*
X450920Y37250D01*
X450887Y37331D01*
X450858Y37413D01*
X450833Y37497D01*
X450812Y37582D01*
X450794Y37667D01*
X450781Y37754D01*
X450771Y37840D01*
X450765Y37928D01*
X450763Y38015D01*
X450763Y41910D01*
X450765Y41997D01*
X450771Y42085D01*
X450781Y42171D01*
X450794Y42258D01*
X450812Y42343D01*
X450833Y42428D01*
X450858Y42512D01*
X450887Y42594D01*
X450920Y42675D01*
X450956Y42755D01*
X450995Y42833D01*
X451039Y42909D01*
X451085Y42983D01*
X451135Y43054D01*
X451188Y43124D01*
X451244Y43191D01*
X451303Y43255D01*
X451365Y43317D01*
X451429Y43376D01*
X451496Y43432D01*
X451566Y43485D01*
X451637Y43535D01*
X451711Y43581D01*
X451787Y43625D01*
X451865Y43664D01*
X451945Y43700D01*
X452026Y43733D01*
X452108Y43762D01*
X452192Y43787D01*
X452277Y43808D01*
X452362Y43826D01*
X452449Y43839D01*
X452535Y43849D01*
X452623Y43855D01*
X452710Y43857D01*
X455956Y43857D01*
X455956Y34121D01*
X455955Y34121D02*
X455953Y34034D01*
X455947Y33946D01*
X455937Y33860D01*
X455924Y33773D01*
X455906Y33688D01*
X455885Y33603D01*
X455860Y33519D01*
X455831Y33437D01*
X455798Y33356D01*
X455762Y33276D01*
X455723Y33198D01*
X455679Y33122D01*
X455633Y33048D01*
X455583Y32977D01*
X455530Y32907D01*
X455474Y32840D01*
X455415Y32776D01*
X455354Y32714D01*
X455289Y32655D01*
X455222Y32599D01*
X455152Y32546D01*
X455081Y32496D01*
X455007Y32450D01*
X454931Y32406D01*
X454853Y32367D01*
X454773Y32331D01*
X454692Y32298D01*
X454610Y32269D01*
X454526Y32244D01*
X454441Y32223D01*
X454356Y32205D01*
X454269Y32192D01*
X454183Y32182D01*
X454095Y32176D01*
X454008Y32174D01*
X454008Y32173D02*
X451412Y32173D01*
X461490Y36068D02*
X461490Y47752D01*
X461490Y43857D02*
X464735Y43857D01*
X464822Y43855D01*
X464910Y43849D01*
X464996Y43839D01*
X465083Y43826D01*
X465168Y43808D01*
X465253Y43787D01*
X465337Y43762D01*
X465419Y43733D01*
X465500Y43700D01*
X465580Y43664D01*
X465658Y43625D01*
X465734Y43581D01*
X465808Y43535D01*
X465879Y43485D01*
X465949Y43432D01*
X466016Y43376D01*
X466080Y43317D01*
X466142Y43256D01*
X466201Y43191D01*
X466257Y43124D01*
X466310Y43054D01*
X466360Y42983D01*
X466406Y42909D01*
X466450Y42833D01*
X466489Y42755D01*
X466525Y42675D01*
X466558Y42594D01*
X466587Y42512D01*
X466612Y42428D01*
X466633Y42343D01*
X466651Y42258D01*
X466664Y42171D01*
X466674Y42085D01*
X466680Y41997D01*
X466682Y41910D01*
X466682Y36068D01*
X470809Y43857D02*
X474704Y43857D01*
X472108Y47752D02*
X472108Y38015D01*
X472110Y37928D01*
X472116Y37840D01*
X472126Y37754D01*
X472139Y37667D01*
X472157Y37582D01*
X472178Y37497D01*
X472203Y37413D01*
X472232Y37331D01*
X472265Y37250D01*
X472301Y37170D01*
X472340Y37092D01*
X472384Y37016D01*
X472430Y36942D01*
X472480Y36871D01*
X472533Y36801D01*
X472589Y36734D01*
X472648Y36670D01*
X472710Y36608D01*
X472774Y36549D01*
X472841Y36493D01*
X472911Y36440D01*
X472982Y36390D01*
X473056Y36344D01*
X473132Y36300D01*
X473210Y36261D01*
X473290Y36225D01*
X473371Y36192D01*
X473453Y36163D01*
X473537Y36138D01*
X473622Y36117D01*
X473707Y36099D01*
X473794Y36086D01*
X473880Y36076D01*
X473968Y36070D01*
X474055Y36068D01*
X474704Y36068D01*
X486438Y44831D02*
X486394Y44906D01*
X486354Y44982D01*
X486317Y45060D01*
X486283Y45140D01*
X486253Y45221D01*
X486227Y45304D01*
X486205Y45387D01*
X486186Y45472D01*
X486171Y45557D01*
X486160Y45643D01*
X486153Y45729D01*
X486150Y45815D01*
X486151Y45902D01*
X486156Y45988D01*
X486164Y46074D01*
X486177Y46160D01*
X486193Y46245D01*
X486213Y46329D01*
X486237Y46412D01*
X486265Y46494D01*
X486296Y46575D01*
X486331Y46654D01*
X486370Y46731D01*
X486412Y46807D01*
X486457Y46880D01*
X486506Y46952D01*
X486558Y47021D01*
X486613Y47088D01*
X486671Y47152D01*
X486731Y47214D01*
X486795Y47272D01*
X486861Y47328D01*
X486929Y47381D01*
X487000Y47431D01*
X487073Y47477D01*
X487148Y47520D01*
X487225Y47560D01*
X487304Y47596D01*
X487384Y47628D01*
X487466Y47657D01*
X487548Y47682D01*
X487632Y47703D01*
X487717Y47721D01*
X487802Y47734D01*
X487888Y47744D01*
X487975Y47750D01*
X488061Y47752D01*
X486438Y44831D02*
X491955Y36068D01*
X489684Y44831D02*
X489728Y44906D01*
X489768Y44982D01*
X489805Y45060D01*
X489839Y45140D01*
X489869Y45221D01*
X489895Y45304D01*
X489917Y45387D01*
X489936Y45472D01*
X489951Y45557D01*
X489962Y45643D01*
X489969Y45729D01*
X489972Y45815D01*
X489971Y45902D01*
X489966Y45988D01*
X489958Y46074D01*
X489945Y46160D01*
X489929Y46245D01*
X489909Y46329D01*
X489885Y46412D01*
X489857Y46494D01*
X489826Y46574D01*
X489791Y46654D01*
X489752Y46731D01*
X489710Y46807D01*
X489665Y46880D01*
X489616Y46952D01*
X489564Y47021D01*
X489509Y47088D01*
X489451Y47152D01*
X489391Y47214D01*
X489327Y47272D01*
X489261Y47328D01*
X489193Y47381D01*
X489122Y47431D01*
X489049Y47477D01*
X488974Y47520D01*
X488897Y47560D01*
X488818Y47596D01*
X488738Y47628D01*
X488656Y47657D01*
X488574Y47682D01*
X488490Y47703D01*
X488405Y47721D01*
X488320Y47734D01*
X488234Y47744D01*
X488147Y47750D01*
X488061Y47752D01*
X485465Y38015D02*
X485467Y37928D01*
X485473Y37840D01*
X485483Y37754D01*
X485496Y37667D01*
X485514Y37582D01*
X485535Y37497D01*
X485560Y37413D01*
X485589Y37331D01*
X485622Y37250D01*
X485658Y37170D01*
X485697Y37092D01*
X485741Y37016D01*
X485787Y36942D01*
X485837Y36871D01*
X485890Y36801D01*
X485946Y36734D01*
X486005Y36670D01*
X486067Y36608D01*
X486131Y36549D01*
X486198Y36493D01*
X486268Y36440D01*
X486339Y36390D01*
X486413Y36344D01*
X486489Y36300D01*
X486567Y36261D01*
X486647Y36225D01*
X486728Y36192D01*
X486810Y36163D01*
X486894Y36138D01*
X486979Y36117D01*
X487064Y36099D01*
X487151Y36086D01*
X487237Y36076D01*
X487325Y36070D01*
X487412Y36068D01*
X485464Y38015D02*
X485466Y38090D01*
X485471Y38164D01*
X485479Y38238D01*
X485491Y38312D01*
X485507Y38385D01*
X485525Y38457D01*
X485547Y38528D01*
X485572Y38598D01*
X485601Y38667D01*
X485632Y38735D01*
X485667Y38801D01*
X485705Y38865D01*
X485745Y38928D01*
X485789Y38989D01*
X489684Y44831D01*
X488386Y36393D02*
X488325Y36349D01*
X488262Y36309D01*
X488198Y36271D01*
X488132Y36236D01*
X488064Y36205D01*
X487995Y36176D01*
X487925Y36151D01*
X487854Y36129D01*
X487782Y36111D01*
X487709Y36095D01*
X487635Y36083D01*
X487561Y36075D01*
X487487Y36070D01*
X487412Y36068D01*
X488385Y36393D02*
X493254Y39963D01*
X502101Y36068D02*
X505996Y47752D01*
X509891Y36068D01*
X508917Y38989D02*
X503075Y38989D01*
X514449Y38015D02*
X514449Y43857D01*
X514449Y38015D02*
X514451Y37928D01*
X514457Y37840D01*
X514467Y37754D01*
X514480Y37667D01*
X514498Y37582D01*
X514519Y37497D01*
X514544Y37413D01*
X514573Y37331D01*
X514606Y37250D01*
X514642Y37170D01*
X514681Y37092D01*
X514725Y37016D01*
X514771Y36942D01*
X514821Y36871D01*
X514874Y36801D01*
X514930Y36734D01*
X514989Y36670D01*
X515051Y36608D01*
X515115Y36549D01*
X515182Y36493D01*
X515252Y36440D01*
X515323Y36390D01*
X515397Y36344D01*
X515473Y36300D01*
X515551Y36261D01*
X515631Y36225D01*
X515712Y36192D01*
X515794Y36163D01*
X515878Y36138D01*
X515963Y36117D01*
X516048Y36099D01*
X516135Y36086D01*
X516221Y36076D01*
X516309Y36070D01*
X516396Y36068D01*
X519641Y36068D01*
X519641Y43857D01*
X529870Y47752D02*
X529870Y36068D01*
X526624Y36068D01*
X526537Y36070D01*
X526449Y36076D01*
X526363Y36086D01*
X526276Y36099D01*
X526191Y36117D01*
X526106Y36138D01*
X526022Y36163D01*
X525940Y36192D01*
X525859Y36225D01*
X525779Y36261D01*
X525701Y36300D01*
X525625Y36344D01*
X525551Y36390D01*
X525480Y36440D01*
X525410Y36493D01*
X525343Y36549D01*
X525279Y36608D01*
X525217Y36670D01*
X525158Y36734D01*
X525102Y36801D01*
X525049Y36871D01*
X524999Y36942D01*
X524953Y37016D01*
X524909Y37092D01*
X524870Y37170D01*
X524834Y37250D01*
X524801Y37331D01*
X524772Y37413D01*
X524747Y37497D01*
X524726Y37582D01*
X524708Y37667D01*
X524695Y37754D01*
X524685Y37840D01*
X524679Y37928D01*
X524677Y38015D01*
X524677Y41910D01*
X524679Y41997D01*
X524685Y42085D01*
X524695Y42171D01*
X524708Y42258D01*
X524726Y42343D01*
X524747Y42428D01*
X524772Y42512D01*
X524801Y42594D01*
X524834Y42675D01*
X524870Y42755D01*
X524909Y42833D01*
X524953Y42909D01*
X524999Y42983D01*
X525049Y43054D01*
X525102Y43124D01*
X525158Y43191D01*
X525217Y43255D01*
X525279Y43317D01*
X525343Y43376D01*
X525410Y43432D01*
X525480Y43485D01*
X525551Y43535D01*
X525625Y43581D01*
X525701Y43625D01*
X525779Y43664D01*
X525859Y43700D01*
X525940Y43733D01*
X526022Y43762D01*
X526106Y43787D01*
X526191Y43808D01*
X526276Y43826D01*
X526363Y43839D01*
X526449Y43849D01*
X526537Y43855D01*
X526624Y43857D01*
X529870Y43857D01*
X534952Y43857D02*
X534952Y36068D01*
X534627Y47103D02*
X534627Y47752D01*
X535276Y47752D01*
X535276Y47103D01*
X534627Y47103D01*
X539594Y41261D02*
X539594Y38664D01*
X539595Y41261D02*
X539597Y41362D01*
X539603Y41462D01*
X539613Y41562D01*
X539626Y41662D01*
X539644Y41761D01*
X539665Y41860D01*
X539690Y41957D01*
X539719Y42054D01*
X539752Y42149D01*
X539788Y42243D01*
X539828Y42335D01*
X539871Y42426D01*
X539918Y42515D01*
X539968Y42602D01*
X540022Y42688D01*
X540079Y42771D01*
X540139Y42851D01*
X540202Y42930D01*
X540269Y43006D01*
X540338Y43079D01*
X540410Y43149D01*
X540484Y43217D01*
X540561Y43282D01*
X540641Y43343D01*
X540723Y43402D01*
X540807Y43457D01*
X540893Y43509D01*
X540981Y43558D01*
X541071Y43603D01*
X541163Y43645D01*
X541256Y43683D01*
X541351Y43717D01*
X541446Y43748D01*
X541543Y43775D01*
X541641Y43798D01*
X541740Y43818D01*
X541840Y43833D01*
X541940Y43845D01*
X542040Y43853D01*
X542141Y43857D01*
X542241Y43857D01*
X542342Y43853D01*
X542442Y43845D01*
X542542Y43833D01*
X542642Y43818D01*
X542741Y43798D01*
X542839Y43775D01*
X542936Y43748D01*
X543031Y43717D01*
X543126Y43683D01*
X543219Y43645D01*
X543311Y43603D01*
X543401Y43558D01*
X543489Y43509D01*
X543575Y43457D01*
X543659Y43402D01*
X543741Y43343D01*
X543821Y43282D01*
X543898Y43217D01*
X543972Y43149D01*
X544044Y43079D01*
X544113Y43006D01*
X544180Y42930D01*
X544243Y42851D01*
X544303Y42771D01*
X544360Y42688D01*
X544414Y42602D01*
X544464Y42515D01*
X544511Y42426D01*
X544554Y42335D01*
X544594Y42243D01*
X544630Y42149D01*
X544663Y42054D01*
X544692Y41957D01*
X544717Y41860D01*
X544738Y41761D01*
X544756Y41662D01*
X544769Y41562D01*
X544779Y41462D01*
X544785Y41362D01*
X544787Y41261D01*
X544787Y38664D01*
X544785Y38563D01*
X544779Y38463D01*
X544769Y38363D01*
X544756Y38263D01*
X544738Y38164D01*
X544717Y38065D01*
X544692Y37968D01*
X544663Y37871D01*
X544630Y37776D01*
X544594Y37682D01*
X544554Y37590D01*
X544511Y37499D01*
X544464Y37410D01*
X544414Y37323D01*
X544360Y37237D01*
X544303Y37154D01*
X544243Y37074D01*
X544180Y36995D01*
X544113Y36919D01*
X544044Y36846D01*
X543972Y36776D01*
X543898Y36708D01*
X543821Y36643D01*
X543741Y36582D01*
X543659Y36523D01*
X543575Y36468D01*
X543489Y36416D01*
X543401Y36367D01*
X543311Y36322D01*
X543219Y36280D01*
X543126Y36242D01*
X543031Y36208D01*
X542936Y36177D01*
X542839Y36150D01*
X542741Y36127D01*
X542642Y36107D01*
X542542Y36092D01*
X542442Y36080D01*
X542342Y36072D01*
X542241Y36068D01*
X542141Y36068D01*
X542040Y36072D01*
X541940Y36080D01*
X541840Y36092D01*
X541740Y36107D01*
X541641Y36127D01*
X541543Y36150D01*
X541446Y36177D01*
X541351Y36208D01*
X541256Y36242D01*
X541163Y36280D01*
X541071Y36322D01*
X540981Y36367D01*
X540893Y36416D01*
X540807Y36468D01*
X540723Y36523D01*
X540641Y36582D01*
X540561Y36643D01*
X540484Y36708D01*
X540410Y36776D01*
X540338Y36846D01*
X540269Y36919D01*
X540202Y36995D01*
X540139Y37074D01*
X540079Y37154D01*
X540022Y37237D01*
X539968Y37323D01*
X539918Y37410D01*
X539871Y37499D01*
X539828Y37590D01*
X539788Y37682D01*
X539752Y37776D01*
X539719Y37871D01*
X539690Y37968D01*
X539665Y38065D01*
X539644Y38164D01*
X539626Y38263D01*
X539613Y38363D01*
X539603Y38463D01*
X539597Y38563D01*
X539595Y38664D01*
X189879Y290124D02*
X189877Y290025D01*
X189871Y289925D01*
X189862Y289826D01*
X189849Y289728D01*
X189832Y289630D01*
X189811Y289532D01*
X189786Y289436D01*
X189758Y289341D01*
X189726Y289247D01*
X189691Y289154D01*
X189652Y289062D01*
X189609Y288972D01*
X189564Y288884D01*
X189514Y288797D01*
X189462Y288713D01*
X189406Y288630D01*
X189348Y288550D01*
X189286Y288472D01*
X189221Y288397D01*
X189153Y288324D01*
X189083Y288254D01*
X189010Y288186D01*
X188935Y288121D01*
X188857Y288059D01*
X188777Y288001D01*
X188694Y287945D01*
X188610Y287893D01*
X188523Y287843D01*
X188435Y287798D01*
X188345Y287755D01*
X188253Y287716D01*
X188160Y287681D01*
X188066Y287649D01*
X187971Y287621D01*
X187875Y287596D01*
X187777Y287575D01*
X187679Y287558D01*
X187581Y287545D01*
X187482Y287536D01*
X187382Y287530D01*
X187283Y287528D01*
X187139Y287530D01*
X186994Y287536D01*
X186850Y287545D01*
X186707Y287558D01*
X186563Y287575D01*
X186420Y287596D01*
X186278Y287621D01*
X186137Y287649D01*
X185996Y287681D01*
X185856Y287717D01*
X185717Y287756D01*
X185579Y287799D01*
X185443Y287846D01*
X185307Y287896D01*
X185173Y287950D01*
X185041Y288007D01*
X184910Y288068D01*
X184781Y288132D01*
X184653Y288200D01*
X184527Y288270D01*
X184403Y288345D01*
X184282Y288422D01*
X184162Y288503D01*
X184044Y288586D01*
X183929Y288673D01*
X183816Y288763D01*
X183705Y288856D01*
X183597Y288951D01*
X183491Y289050D01*
X183388Y289151D01*
X183713Y296616D02*
X183715Y296715D01*
X183721Y296815D01*
X183730Y296914D01*
X183743Y297012D01*
X183760Y297110D01*
X183781Y297208D01*
X183806Y297304D01*
X183834Y297399D01*
X183866Y297493D01*
X183901Y297586D01*
X183940Y297678D01*
X183983Y297768D01*
X184028Y297856D01*
X184078Y297943D01*
X184130Y298027D01*
X184186Y298110D01*
X184244Y298190D01*
X184306Y298268D01*
X184371Y298343D01*
X184439Y298416D01*
X184509Y298486D01*
X184582Y298554D01*
X184657Y298619D01*
X184735Y298681D01*
X184815Y298739D01*
X184898Y298795D01*
X184982Y298847D01*
X185069Y298897D01*
X185157Y298942D01*
X185247Y298985D01*
X185339Y299024D01*
X185432Y299059D01*
X185526Y299091D01*
X185621Y299119D01*
X185718Y299144D01*
X185815Y299165D01*
X185913Y299182D01*
X186011Y299195D01*
X186110Y299204D01*
X186210Y299210D01*
X186309Y299212D01*
X186445Y299210D01*
X186581Y299204D01*
X186717Y299195D01*
X186853Y299182D01*
X186988Y299164D01*
X187122Y299144D01*
X187256Y299119D01*
X187390Y299091D01*
X187522Y299058D01*
X187653Y299023D01*
X187784Y298983D01*
X187913Y298940D01*
X188041Y298894D01*
X188167Y298843D01*
X188293Y298790D01*
X188416Y298732D01*
X188538Y298672D01*
X188658Y298608D01*
X188777Y298540D01*
X188893Y298470D01*
X189007Y298396D01*
X189120Y298319D01*
X189230Y298238D01*
X185011Y294344D02*
X184925Y294397D01*
X184841Y294454D01*
X184759Y294513D01*
X184679Y294576D01*
X184602Y294642D01*
X184527Y294710D01*
X184455Y294782D01*
X184386Y294856D01*
X184320Y294933D01*
X184257Y295012D01*
X184197Y295094D01*
X184140Y295178D01*
X184086Y295264D01*
X184036Y295352D01*
X183989Y295442D01*
X183945Y295533D01*
X183906Y295627D01*
X183869Y295721D01*
X183837Y295817D01*
X183808Y295915D01*
X183783Y296013D01*
X183762Y296112D01*
X183744Y296212D01*
X183731Y296312D01*
X183721Y296413D01*
X183715Y296515D01*
X183713Y296616D01*
X188581Y292396D02*
X188667Y292343D01*
X188751Y292286D01*
X188833Y292227D01*
X188913Y292164D01*
X188990Y292098D01*
X189065Y292030D01*
X189137Y291958D01*
X189206Y291884D01*
X189272Y291807D01*
X189335Y291728D01*
X189395Y291646D01*
X189452Y291562D01*
X189506Y291476D01*
X189556Y291388D01*
X189603Y291298D01*
X189647Y291207D01*
X189686Y291113D01*
X189723Y291019D01*
X189755Y290923D01*
X189784Y290825D01*
X189809Y290727D01*
X189830Y290628D01*
X189848Y290528D01*
X189861Y290428D01*
X189871Y290327D01*
X189877Y290225D01*
X189879Y290124D01*
X188581Y292396D02*
X185011Y294344D01*
X196537Y292072D02*
X199458Y292072D01*
X196537Y292072D02*
X196443Y292070D01*
X196349Y292064D01*
X196256Y292055D01*
X196163Y292041D01*
X196071Y292024D01*
X195979Y292002D01*
X195889Y291978D01*
X195799Y291949D01*
X195711Y291917D01*
X195624Y291881D01*
X195539Y291841D01*
X195456Y291798D01*
X195374Y291752D01*
X195294Y291702D01*
X195217Y291649D01*
X195142Y291593D01*
X195069Y291534D01*
X194998Y291472D01*
X194930Y291407D01*
X194865Y291339D01*
X194803Y291268D01*
X194744Y291195D01*
X194688Y291120D01*
X194635Y291043D01*
X194585Y290963D01*
X194539Y290881D01*
X194496Y290798D01*
X194456Y290713D01*
X194420Y290626D01*
X194388Y290538D01*
X194359Y290448D01*
X194335Y290358D01*
X194313Y290266D01*
X194296Y290174D01*
X194282Y290081D01*
X194273Y289988D01*
X194267Y289894D01*
X194265Y289800D01*
X194267Y289706D01*
X194273Y289612D01*
X194282Y289519D01*
X194296Y289426D01*
X194313Y289334D01*
X194335Y289242D01*
X194359Y289152D01*
X194388Y289062D01*
X194420Y288974D01*
X194456Y288887D01*
X194496Y288802D01*
X194539Y288719D01*
X194585Y288637D01*
X194635Y288557D01*
X194688Y288480D01*
X194744Y288405D01*
X194803Y288332D01*
X194865Y288261D01*
X194930Y288193D01*
X194998Y288128D01*
X195069Y288066D01*
X195142Y288007D01*
X195217Y287951D01*
X195294Y287898D01*
X195374Y287848D01*
X195456Y287802D01*
X195539Y287759D01*
X195624Y287719D01*
X195711Y287683D01*
X195799Y287651D01*
X195889Y287622D01*
X195979Y287598D01*
X196071Y287576D01*
X196163Y287559D01*
X196256Y287545D01*
X196349Y287536D01*
X196443Y287530D01*
X196537Y287528D01*
X199458Y287528D01*
X199458Y293370D01*
X199456Y293457D01*
X199450Y293545D01*
X199440Y293631D01*
X199427Y293718D01*
X199409Y293803D01*
X199388Y293888D01*
X199363Y293972D01*
X199334Y294054D01*
X199301Y294135D01*
X199265Y294215D01*
X199226Y294293D01*
X199182Y294369D01*
X199136Y294443D01*
X199086Y294514D01*
X199033Y294584D01*
X198977Y294651D01*
X198918Y294715D01*
X198856Y294777D01*
X198792Y294836D01*
X198725Y294892D01*
X198655Y294945D01*
X198584Y294995D01*
X198510Y295041D01*
X198434Y295085D01*
X198356Y295124D01*
X198276Y295160D01*
X198195Y295193D01*
X198113Y295222D01*
X198029Y295247D01*
X197944Y295268D01*
X197859Y295286D01*
X197772Y295299D01*
X197686Y295309D01*
X197598Y295315D01*
X197511Y295317D01*
X194914Y295317D01*
X205218Y295317D02*
X205218Y287528D01*
X205218Y295317D02*
X211060Y295317D01*
X211147Y295315D01*
X211235Y295309D01*
X211321Y295299D01*
X211408Y295286D01*
X211493Y295268D01*
X211578Y295247D01*
X211662Y295222D01*
X211744Y295193D01*
X211825Y295160D01*
X211905Y295124D01*
X211983Y295085D01*
X212059Y295041D01*
X212133Y294995D01*
X212204Y294945D01*
X212274Y294892D01*
X212341Y294836D01*
X212405Y294777D01*
X212467Y294715D01*
X212526Y294651D01*
X212582Y294584D01*
X212635Y294514D01*
X212685Y294443D01*
X212731Y294369D01*
X212775Y294293D01*
X212814Y294215D01*
X212850Y294135D01*
X212883Y294054D01*
X212912Y293972D01*
X212937Y293888D01*
X212958Y293803D01*
X212976Y293718D01*
X212989Y293631D01*
X212999Y293545D01*
X213005Y293457D01*
X213007Y293370D01*
X213007Y287528D01*
X209113Y287528D02*
X209113Y295317D01*
X218934Y295317D02*
X218934Y287528D01*
X218934Y295317D02*
X224776Y295317D01*
X224863Y295315D01*
X224951Y295309D01*
X225037Y295299D01*
X225124Y295286D01*
X225209Y295268D01*
X225294Y295247D01*
X225378Y295222D01*
X225460Y295193D01*
X225541Y295160D01*
X225621Y295124D01*
X225699Y295085D01*
X225775Y295041D01*
X225849Y294995D01*
X225920Y294945D01*
X225990Y294892D01*
X226057Y294836D01*
X226121Y294777D01*
X226183Y294715D01*
X226242Y294651D01*
X226298Y294584D01*
X226351Y294514D01*
X226401Y294443D01*
X226447Y294369D01*
X226491Y294293D01*
X226530Y294215D01*
X226566Y294135D01*
X226599Y294054D01*
X226628Y293972D01*
X226653Y293888D01*
X226674Y293803D01*
X226692Y293718D01*
X226705Y293631D01*
X226715Y293545D01*
X226721Y293457D01*
X226723Y293370D01*
X226723Y287528D01*
X222829Y287528D02*
X222829Y295317D01*
X231972Y295317D02*
X231972Y287528D01*
X231648Y298563D02*
X231648Y299212D01*
X232297Y299212D01*
X232297Y298563D01*
X231648Y298563D01*
X243228Y299212D02*
X243228Y287528D01*
X248420Y287528D01*
X252998Y289475D02*
X252998Y295317D01*
X252998Y289475D02*
X253000Y289388D01*
X253006Y289300D01*
X253016Y289214D01*
X253029Y289127D01*
X253047Y289042D01*
X253068Y288957D01*
X253093Y288873D01*
X253122Y288791D01*
X253155Y288710D01*
X253191Y288630D01*
X253230Y288552D01*
X253274Y288476D01*
X253320Y288402D01*
X253370Y288331D01*
X253423Y288261D01*
X253479Y288194D01*
X253538Y288130D01*
X253600Y288068D01*
X253664Y288009D01*
X253731Y287953D01*
X253801Y287900D01*
X253872Y287850D01*
X253946Y287804D01*
X254022Y287760D01*
X254100Y287721D01*
X254180Y287685D01*
X254261Y287652D01*
X254343Y287623D01*
X254427Y287598D01*
X254512Y287577D01*
X254597Y287559D01*
X254684Y287546D01*
X254770Y287536D01*
X254858Y287530D01*
X254945Y287528D01*
X258191Y287528D01*
X258191Y295317D01*
X264668Y121412D02*
X268563Y109728D01*
X272457Y121412D01*
X276747Y118816D02*
X279993Y121412D01*
X279993Y109728D01*
X283238Y109728D02*
X276747Y109728D01*
X287669Y109728D02*
X287669Y110377D01*
X288318Y110377D01*
X288318Y109728D01*
X287669Y109728D01*
X292750Y115570D02*
X292753Y115800D01*
X292761Y116030D01*
X292775Y116259D01*
X292794Y116488D01*
X292819Y116717D01*
X292849Y116944D01*
X292884Y117172D01*
X292925Y117398D01*
X292971Y117623D01*
X293023Y117847D01*
X293080Y118069D01*
X293142Y118291D01*
X293210Y118510D01*
X293283Y118728D01*
X293361Y118945D01*
X293444Y119159D01*
X293532Y119371D01*
X293625Y119581D01*
X293724Y119789D01*
X293723Y119789D02*
X293756Y119879D01*
X293792Y119968D01*
X293832Y120056D01*
X293876Y120141D01*
X293923Y120225D01*
X293973Y120307D01*
X294027Y120387D01*
X294083Y120464D01*
X294143Y120540D01*
X294206Y120613D01*
X294271Y120683D01*
X294340Y120751D01*
X294411Y120815D01*
X294484Y120877D01*
X294560Y120936D01*
X294638Y120992D01*
X294719Y121045D01*
X294801Y121094D01*
X294885Y121140D01*
X294972Y121183D01*
X295059Y121222D01*
X295149Y121258D01*
X295239Y121290D01*
X295331Y121318D01*
X295424Y121343D01*
X295518Y121364D01*
X295612Y121381D01*
X295707Y121395D01*
X295803Y121404D01*
X295899Y121410D01*
X295995Y121412D01*
X296091Y121410D01*
X296187Y121404D01*
X296283Y121395D01*
X296378Y121381D01*
X296472Y121364D01*
X296566Y121343D01*
X296659Y121318D01*
X296751Y121290D01*
X296841Y121258D01*
X296931Y121222D01*
X297018Y121183D01*
X297105Y121140D01*
X297189Y121094D01*
X297271Y121045D01*
X297352Y120992D01*
X297430Y120936D01*
X297506Y120877D01*
X297579Y120815D01*
X297650Y120751D01*
X297719Y120683D01*
X297784Y120613D01*
X297847Y120540D01*
X297907Y120464D01*
X297963Y120387D01*
X298017Y120307D01*
X298067Y120225D01*
X298114Y120141D01*
X298158Y120056D01*
X298198Y119968D01*
X298234Y119879D01*
X298267Y119789D01*
X298366Y119582D01*
X298459Y119372D01*
X298547Y119159D01*
X298630Y118945D01*
X298708Y118729D01*
X298781Y118511D01*
X298849Y118291D01*
X298911Y118070D01*
X298968Y117847D01*
X299020Y117623D01*
X299066Y117398D01*
X299107Y117172D01*
X299142Y116945D01*
X299172Y116717D01*
X299197Y116488D01*
X299216Y116259D01*
X299230Y116030D01*
X299238Y115800D01*
X299241Y115570D01*
X292749Y115570D02*
X292752Y115340D01*
X292760Y115110D01*
X292774Y114881D01*
X292793Y114652D01*
X292818Y114423D01*
X292848Y114195D01*
X292883Y113968D01*
X292924Y113742D01*
X292970Y113517D01*
X293022Y113293D01*
X293079Y113070D01*
X293141Y112849D01*
X293209Y112629D01*
X293282Y112411D01*
X293360Y112195D01*
X293443Y111981D01*
X293531Y111769D01*
X293624Y111558D01*
X293723Y111351D01*
X293756Y111261D01*
X293792Y111172D01*
X293833Y111084D01*
X293876Y110999D01*
X293923Y110915D01*
X293973Y110833D01*
X294027Y110753D01*
X294083Y110676D01*
X294143Y110600D01*
X294206Y110527D01*
X294271Y110457D01*
X294340Y110389D01*
X294411Y110325D01*
X294484Y110263D01*
X294560Y110204D01*
X294638Y110148D01*
X294719Y110095D01*
X294801Y110046D01*
X294885Y110000D01*
X294972Y109957D01*
X295059Y109918D01*
X295149Y109882D01*
X295239Y109850D01*
X295331Y109822D01*
X295424Y109797D01*
X295518Y109776D01*
X295612Y109759D01*
X295707Y109745D01*
X295803Y109736D01*
X295899Y109730D01*
X295995Y109728D01*
X298266Y111351D02*
X298365Y111558D01*
X298458Y111769D01*
X298546Y111981D01*
X298629Y112195D01*
X298707Y112411D01*
X298780Y112629D01*
X298848Y112849D01*
X298910Y113070D01*
X298967Y113293D01*
X299019Y113517D01*
X299065Y113742D01*
X299106Y113968D01*
X299141Y114195D01*
X299171Y114423D01*
X299196Y114652D01*
X299215Y114881D01*
X299229Y115110D01*
X299237Y115340D01*
X299240Y115570D01*
X298267Y111351D02*
X298234Y111261D01*
X298198Y111172D01*
X298158Y111084D01*
X298114Y110999D01*
X298067Y110915D01*
X298017Y110833D01*
X297963Y110753D01*
X297907Y110676D01*
X297847Y110600D01*
X297784Y110527D01*
X297719Y110457D01*
X297650Y110389D01*
X297579Y110325D01*
X297506Y110263D01*
X297430Y110204D01*
X297352Y110148D01*
X297271Y110095D01*
X297189Y110046D01*
X297105Y110000D01*
X297018Y109957D01*
X296931Y109918D01*
X296841Y109882D01*
X296751Y109850D01*
X296659Y109822D01*
X296566Y109797D01*
X296472Y109776D01*
X296378Y109759D01*
X296283Y109745D01*
X296187Y109736D01*
X296091Y109730D01*
X295995Y109728D01*
X293398Y112324D02*
X298591Y118816D01*
X303671Y110377D02*
X303671Y109728D01*
X303671Y110377D02*
X304320Y110377D01*
X304320Y109728D01*
X303671Y109728D01*
X308751Y115570D02*
X308754Y115800D01*
X308762Y116030D01*
X308776Y116259D01*
X308795Y116488D01*
X308820Y116717D01*
X308850Y116944D01*
X308885Y117172D01*
X308926Y117398D01*
X308972Y117623D01*
X309024Y117847D01*
X309081Y118069D01*
X309143Y118291D01*
X309211Y118510D01*
X309284Y118728D01*
X309362Y118945D01*
X309445Y119159D01*
X309533Y119371D01*
X309626Y119581D01*
X309725Y119789D01*
X309758Y119879D01*
X309794Y119968D01*
X309834Y120056D01*
X309878Y120141D01*
X309925Y120225D01*
X309975Y120307D01*
X310029Y120387D01*
X310085Y120464D01*
X310145Y120540D01*
X310208Y120613D01*
X310273Y120683D01*
X310342Y120751D01*
X310413Y120815D01*
X310486Y120877D01*
X310562Y120936D01*
X310640Y120992D01*
X310721Y121045D01*
X310803Y121094D01*
X310887Y121140D01*
X310974Y121183D01*
X311061Y121222D01*
X311151Y121258D01*
X311241Y121290D01*
X311333Y121318D01*
X311426Y121343D01*
X311520Y121364D01*
X311614Y121381D01*
X311709Y121395D01*
X311805Y121404D01*
X311901Y121410D01*
X311997Y121412D01*
X312093Y121410D01*
X312189Y121404D01*
X312285Y121395D01*
X312380Y121381D01*
X312474Y121364D01*
X312568Y121343D01*
X312661Y121318D01*
X312753Y121290D01*
X312843Y121258D01*
X312933Y121222D01*
X313020Y121183D01*
X313107Y121140D01*
X313191Y121094D01*
X313273Y121045D01*
X313354Y120992D01*
X313432Y120936D01*
X313508Y120877D01*
X313581Y120815D01*
X313652Y120751D01*
X313721Y120683D01*
X313786Y120613D01*
X313849Y120540D01*
X313909Y120464D01*
X313965Y120387D01*
X314019Y120307D01*
X314069Y120225D01*
X314116Y120141D01*
X314160Y120056D01*
X314200Y119968D01*
X314236Y119879D01*
X314269Y119789D01*
X314368Y119582D01*
X314461Y119372D01*
X314549Y119159D01*
X314632Y118945D01*
X314710Y118729D01*
X314783Y118511D01*
X314851Y118291D01*
X314913Y118070D01*
X314970Y117847D01*
X315022Y117623D01*
X315068Y117398D01*
X315109Y117172D01*
X315144Y116945D01*
X315174Y116717D01*
X315199Y116488D01*
X315218Y116259D01*
X315232Y116030D01*
X315240Y115800D01*
X315243Y115570D01*
X308751Y115570D02*
X308754Y115340D01*
X308762Y115110D01*
X308776Y114881D01*
X308795Y114652D01*
X308820Y114423D01*
X308850Y114195D01*
X308885Y113968D01*
X308926Y113742D01*
X308972Y113517D01*
X309024Y113293D01*
X309081Y113070D01*
X309143Y112849D01*
X309211Y112629D01*
X309284Y112411D01*
X309362Y112195D01*
X309445Y111981D01*
X309533Y111769D01*
X309626Y111558D01*
X309725Y111351D01*
X309758Y111261D01*
X309794Y111172D01*
X309835Y111084D01*
X309878Y110999D01*
X309925Y110915D01*
X309975Y110833D01*
X310029Y110753D01*
X310085Y110676D01*
X310145Y110600D01*
X310208Y110527D01*
X310273Y110457D01*
X310342Y110389D01*
X310413Y110325D01*
X310486Y110263D01*
X310562Y110204D01*
X310640Y110148D01*
X310721Y110095D01*
X310803Y110046D01*
X310887Y110000D01*
X310974Y109957D01*
X311061Y109918D01*
X311151Y109882D01*
X311241Y109850D01*
X311333Y109822D01*
X311426Y109797D01*
X311520Y109776D01*
X311614Y109759D01*
X311709Y109745D01*
X311805Y109736D01*
X311901Y109730D01*
X311997Y109728D01*
X314268Y111351D02*
X314367Y111558D01*
X314460Y111769D01*
X314548Y111981D01*
X314631Y112195D01*
X314709Y112411D01*
X314782Y112629D01*
X314850Y112849D01*
X314912Y113070D01*
X314969Y113293D01*
X315021Y113517D01*
X315067Y113742D01*
X315108Y113968D01*
X315143Y114195D01*
X315173Y114423D01*
X315198Y114652D01*
X315217Y114881D01*
X315231Y115110D01*
X315239Y115340D01*
X315242Y115570D01*
X314269Y111351D02*
X314236Y111261D01*
X314200Y111172D01*
X314160Y111084D01*
X314116Y110999D01*
X314069Y110915D01*
X314019Y110833D01*
X313965Y110753D01*
X313909Y110676D01*
X313849Y110600D01*
X313786Y110527D01*
X313721Y110457D01*
X313652Y110389D01*
X313581Y110325D01*
X313508Y110263D01*
X313432Y110204D01*
X313354Y110148D01*
X313273Y110095D01*
X313191Y110046D01*
X313107Y110000D01*
X313020Y109957D01*
X312933Y109918D01*
X312843Y109882D01*
X312753Y109850D01*
X312661Y109822D01*
X312568Y109797D01*
X312474Y109776D01*
X312380Y109759D01*
X312285Y109745D01*
X312189Y109736D01*
X312093Y109730D01*
X311997Y109728D01*
X309400Y112324D02*
X314593Y118816D01*
D11*
X187630Y374130D02*
X537630Y374130D01*
X187630Y374130D02*
X185214Y374101D01*
X182799Y374013D01*
X180387Y373867D01*
X177979Y373663D01*
X175576Y373401D01*
X173181Y373081D01*
X170794Y372703D01*
X168417Y372267D01*
X166052Y371774D01*
X163698Y371224D01*
X161359Y370618D01*
X159035Y369955D01*
X156728Y369236D01*
X154439Y368461D01*
X152170Y367632D01*
X149921Y366747D01*
X147694Y365809D01*
X145490Y364817D01*
X143311Y363773D01*
X141158Y362676D01*
X139032Y361527D01*
X136934Y360327D01*
X134866Y359077D01*
X132829Y357777D01*
X130824Y356428D01*
X128851Y355032D01*
X126914Y353588D01*
X125011Y352097D01*
X123146Y350562D01*
X121318Y348981D01*
X119528Y347357D01*
X117779Y345690D01*
X116070Y343981D01*
X114403Y342232D01*
X112779Y340442D01*
X111198Y338614D01*
X109663Y336749D01*
X108172Y334846D01*
X106728Y332909D01*
X105332Y330936D01*
X103983Y328931D01*
X102683Y326894D01*
X101433Y324826D01*
X100233Y322728D01*
X99084Y320602D01*
X97987Y318449D01*
X96943Y316270D01*
X95951Y314066D01*
X95013Y311839D01*
X94128Y309590D01*
X93299Y307321D01*
X92524Y305032D01*
X91805Y302725D01*
X91142Y300401D01*
X90536Y298062D01*
X89986Y295708D01*
X89493Y293343D01*
X89057Y290966D01*
X88679Y288579D01*
X88359Y286184D01*
X88097Y283781D01*
X87893Y281373D01*
X87747Y278961D01*
X87659Y276546D01*
X87630Y274130D01*
X87630Y124130D01*
X87659Y121714D01*
X87747Y119299D01*
X87893Y116887D01*
X88097Y114479D01*
X88359Y112076D01*
X88679Y109681D01*
X89057Y107294D01*
X89493Y104917D01*
X89986Y102552D01*
X90536Y100198D01*
X91142Y97859D01*
X91805Y95535D01*
X92524Y93228D01*
X93299Y90939D01*
X94128Y88670D01*
X95013Y86421D01*
X95951Y84194D01*
X96943Y81990D01*
X97987Y79811D01*
X99084Y77658D01*
X100233Y75532D01*
X101433Y73434D01*
X102683Y71366D01*
X103983Y69329D01*
X105332Y67324D01*
X106728Y65351D01*
X108172Y63414D01*
X109663Y61511D01*
X111198Y59646D01*
X112779Y57818D01*
X114403Y56028D01*
X116070Y54279D01*
X117779Y52570D01*
X119528Y50903D01*
X121318Y49279D01*
X123146Y47698D01*
X125011Y46163D01*
X126914Y44672D01*
X128851Y43228D01*
X130824Y41832D01*
X132829Y40483D01*
X134866Y39183D01*
X136934Y37933D01*
X139032Y36733D01*
X141158Y35584D01*
X143311Y34487D01*
X145490Y33443D01*
X147694Y32451D01*
X149921Y31513D01*
X152170Y30628D01*
X154439Y29799D01*
X156728Y29024D01*
X159035Y28305D01*
X161359Y27642D01*
X163698Y27036D01*
X166052Y26486D01*
X168417Y25993D01*
X170794Y25557D01*
X173181Y25179D01*
X175576Y24859D01*
X177979Y24597D01*
X180387Y24393D01*
X182799Y24247D01*
X185214Y24159D01*
X187630Y24130D01*
X537630Y24130D01*
X540046Y24159D01*
X542461Y24247D01*
X544873Y24393D01*
X547281Y24597D01*
X549684Y24859D01*
X552079Y25179D01*
X554466Y25557D01*
X556843Y25993D01*
X559208Y26486D01*
X561562Y27036D01*
X563901Y27642D01*
X566225Y28305D01*
X568532Y29024D01*
X570821Y29799D01*
X573090Y30628D01*
X575339Y31513D01*
X577566Y32451D01*
X579770Y33443D01*
X581949Y34487D01*
X584102Y35584D01*
X586228Y36733D01*
X588326Y37933D01*
X590394Y39183D01*
X592431Y40483D01*
X594436Y41832D01*
X596409Y43228D01*
X598346Y44672D01*
X600249Y46163D01*
X602114Y47698D01*
X603942Y49279D01*
X605732Y50903D01*
X607481Y52570D01*
X609190Y54279D01*
X610857Y56028D01*
X612481Y57818D01*
X614062Y59646D01*
X615597Y61511D01*
X617088Y63414D01*
X618532Y65351D01*
X619928Y67324D01*
X621277Y69329D01*
X622577Y71366D01*
X623827Y73434D01*
X625027Y75532D01*
X626176Y77658D01*
X627273Y79811D01*
X628317Y81990D01*
X629309Y84194D01*
X630247Y86421D01*
X631132Y88670D01*
X631961Y90939D01*
X632736Y93228D01*
X633455Y95535D01*
X634118Y97859D01*
X634724Y100198D01*
X635274Y102552D01*
X635767Y104917D01*
X636203Y107294D01*
X636581Y109681D01*
X636901Y112076D01*
X637163Y114479D01*
X637367Y116887D01*
X637513Y119299D01*
X637601Y121714D01*
X637630Y124130D01*
X637630Y274130D01*
X637601Y276546D01*
X637513Y278961D01*
X637367Y281373D01*
X637163Y283781D01*
X636901Y286184D01*
X636581Y288579D01*
X636203Y290966D01*
X635767Y293343D01*
X635274Y295708D01*
X634724Y298062D01*
X634118Y300401D01*
X633455Y302725D01*
X632736Y305032D01*
X631961Y307321D01*
X631132Y309590D01*
X630247Y311839D01*
X629309Y314066D01*
X628317Y316270D01*
X627273Y318449D01*
X626176Y320602D01*
X625027Y322728D01*
X623827Y324826D01*
X622577Y326894D01*
X621277Y328931D01*
X619928Y330936D01*
X618532Y332909D01*
X617088Y334846D01*
X615597Y336749D01*
X614062Y338614D01*
X612481Y340442D01*
X610857Y342232D01*
X609190Y343981D01*
X607481Y345690D01*
X605732Y347357D01*
X603942Y348981D01*
X602114Y350562D01*
X600249Y352097D01*
X598346Y353588D01*
X596409Y355032D01*
X594436Y356428D01*
X592431Y357777D01*
X590394Y359077D01*
X588326Y360327D01*
X586228Y361527D01*
X584102Y362676D01*
X581949Y363773D01*
X579770Y364817D01*
X577566Y365809D01*
X575339Y366747D01*
X573090Y367632D01*
X570821Y368461D01*
X568532Y369236D01*
X566225Y369955D01*
X563901Y370618D01*
X561562Y371224D01*
X559208Y371774D01*
X556843Y372267D01*
X554466Y372703D01*
X552079Y373081D01*
X549684Y373401D01*
X547281Y373663D01*
X544873Y373867D01*
X542461Y374013D01*
X540046Y374101D01*
X537630Y374130D01*
D12*
X126238Y67677D02*
X115062Y67677D01*
X115062Y70781D01*
X115064Y70892D01*
X115070Y71002D01*
X115080Y71113D01*
X115094Y71223D01*
X115111Y71332D01*
X115133Y71441D01*
X115158Y71549D01*
X115188Y71655D01*
X115221Y71761D01*
X115258Y71866D01*
X115298Y71969D01*
X115343Y72070D01*
X115390Y72170D01*
X115442Y72269D01*
X115497Y72365D01*
X115555Y72459D01*
X115616Y72551D01*
X115681Y72641D01*
X115749Y72729D01*
X115820Y72814D01*
X115894Y72896D01*
X115971Y72976D01*
X116051Y73053D01*
X116133Y73127D01*
X116218Y73198D01*
X116306Y73266D01*
X116396Y73331D01*
X116488Y73392D01*
X116582Y73450D01*
X116678Y73505D01*
X116777Y73557D01*
X116877Y73604D01*
X116978Y73649D01*
X117081Y73689D01*
X117186Y73726D01*
X117292Y73759D01*
X117398Y73789D01*
X117506Y73814D01*
X117615Y73836D01*
X117724Y73853D01*
X117834Y73867D01*
X117945Y73877D01*
X118055Y73883D01*
X118166Y73885D01*
X118277Y73883D01*
X118387Y73877D01*
X118498Y73867D01*
X118608Y73853D01*
X118717Y73836D01*
X118826Y73814D01*
X118934Y73789D01*
X119040Y73759D01*
X119146Y73726D01*
X119251Y73689D01*
X119354Y73649D01*
X119455Y73604D01*
X119555Y73557D01*
X119654Y73505D01*
X119750Y73450D01*
X119844Y73392D01*
X119936Y73331D01*
X120026Y73266D01*
X120114Y73198D01*
X120199Y73127D01*
X120281Y73053D01*
X120361Y72976D01*
X120438Y72896D01*
X120512Y72814D01*
X120583Y72729D01*
X120651Y72641D01*
X120716Y72551D01*
X120777Y72459D01*
X120835Y72365D01*
X120890Y72269D01*
X120942Y72170D01*
X120989Y72070D01*
X121034Y71969D01*
X121074Y71866D01*
X121111Y71761D01*
X121144Y71655D01*
X121174Y71549D01*
X121199Y71441D01*
X121221Y71332D01*
X121238Y71223D01*
X121252Y71113D01*
X121262Y71002D01*
X121268Y70892D01*
X121270Y70781D01*
X121271Y70781D02*
X121271Y67677D01*
X117546Y78514D02*
X115062Y81619D01*
X126238Y81619D01*
X126238Y84723D02*
X126238Y78514D01*
X126238Y321677D02*
X115062Y321677D01*
X115062Y324781D01*
X115064Y324892D01*
X115070Y325002D01*
X115080Y325113D01*
X115094Y325223D01*
X115111Y325332D01*
X115133Y325441D01*
X115158Y325549D01*
X115188Y325655D01*
X115221Y325761D01*
X115258Y325866D01*
X115298Y325969D01*
X115343Y326070D01*
X115390Y326170D01*
X115442Y326269D01*
X115497Y326365D01*
X115555Y326459D01*
X115616Y326551D01*
X115681Y326641D01*
X115749Y326729D01*
X115820Y326814D01*
X115894Y326896D01*
X115971Y326976D01*
X116051Y327053D01*
X116133Y327127D01*
X116218Y327198D01*
X116306Y327266D01*
X116396Y327331D01*
X116488Y327392D01*
X116582Y327450D01*
X116678Y327505D01*
X116777Y327557D01*
X116877Y327604D01*
X116978Y327649D01*
X117081Y327689D01*
X117186Y327726D01*
X117292Y327759D01*
X117398Y327789D01*
X117506Y327814D01*
X117615Y327836D01*
X117724Y327853D01*
X117834Y327867D01*
X117945Y327877D01*
X118055Y327883D01*
X118166Y327885D01*
X118277Y327883D01*
X118387Y327877D01*
X118498Y327867D01*
X118608Y327853D01*
X118717Y327836D01*
X118826Y327814D01*
X118934Y327789D01*
X119040Y327759D01*
X119146Y327726D01*
X119251Y327689D01*
X119354Y327649D01*
X119455Y327604D01*
X119555Y327557D01*
X119654Y327505D01*
X119750Y327450D01*
X119844Y327392D01*
X119936Y327331D01*
X120026Y327266D01*
X120114Y327198D01*
X120199Y327127D01*
X120281Y327053D01*
X120361Y326976D01*
X120438Y326896D01*
X120512Y326814D01*
X120583Y326729D01*
X120651Y326641D01*
X120716Y326551D01*
X120777Y326459D01*
X120835Y326365D01*
X120890Y326269D01*
X120942Y326170D01*
X120989Y326070D01*
X121034Y325969D01*
X121074Y325866D01*
X121111Y325761D01*
X121144Y325655D01*
X121174Y325549D01*
X121199Y325441D01*
X121221Y325332D01*
X121238Y325223D01*
X121252Y325113D01*
X121262Y325002D01*
X121268Y324892D01*
X121270Y324781D01*
X121271Y324781D02*
X121271Y321677D01*
X115062Y335929D02*
X115064Y336033D01*
X115070Y336138D01*
X115080Y336242D01*
X115093Y336345D01*
X115111Y336448D01*
X115132Y336551D01*
X115157Y336652D01*
X115186Y336753D01*
X115219Y336852D01*
X115255Y336950D01*
X115295Y337046D01*
X115339Y337141D01*
X115386Y337235D01*
X115436Y337326D01*
X115490Y337415D01*
X115547Y337503D01*
X115608Y337588D01*
X115672Y337671D01*
X115738Y337751D01*
X115808Y337829D01*
X115880Y337905D01*
X115956Y337977D01*
X116034Y338047D01*
X116114Y338113D01*
X116197Y338177D01*
X116282Y338238D01*
X116370Y338295D01*
X116459Y338349D01*
X116550Y338399D01*
X116644Y338446D01*
X116739Y338490D01*
X116835Y338530D01*
X116933Y338566D01*
X117032Y338599D01*
X117133Y338628D01*
X117234Y338653D01*
X117337Y338674D01*
X117440Y338692D01*
X117543Y338705D01*
X117647Y338715D01*
X117752Y338721D01*
X117856Y338723D01*
X115062Y335929D02*
X115064Y335810D01*
X115070Y335692D01*
X115080Y335573D01*
X115093Y335455D01*
X115111Y335338D01*
X115133Y335221D01*
X115158Y335105D01*
X115187Y334990D01*
X115220Y334875D01*
X115257Y334762D01*
X115297Y334651D01*
X115341Y334540D01*
X115389Y334432D01*
X115440Y334325D01*
X115495Y334219D01*
X115554Y334116D01*
X115615Y334014D01*
X115680Y333915D01*
X115749Y333817D01*
X115820Y333723D01*
X115895Y333630D01*
X115972Y333540D01*
X116053Y333453D01*
X116136Y333368D01*
X116222Y333286D01*
X116311Y333207D01*
X116402Y333131D01*
X116496Y333058D01*
X116592Y332989D01*
X116691Y332922D01*
X116791Y332859D01*
X116894Y332799D01*
X116998Y332742D01*
X117105Y332690D01*
X117213Y332640D01*
X117322Y332594D01*
X117434Y332552D01*
X117546Y332514D01*
X120029Y337792D02*
X119955Y337867D01*
X119878Y337939D01*
X119799Y338009D01*
X119717Y338076D01*
X119633Y338140D01*
X119547Y338201D01*
X119459Y338259D01*
X119368Y338314D01*
X119276Y338366D01*
X119182Y338414D01*
X119087Y338459D01*
X118989Y338501D01*
X118891Y338539D01*
X118791Y338574D01*
X118690Y338605D01*
X118588Y338632D01*
X118485Y338656D01*
X118382Y338677D01*
X118277Y338693D01*
X118172Y338706D01*
X118067Y338716D01*
X117962Y338721D01*
X117856Y338723D01*
X120029Y337792D02*
X126238Y332514D01*
X126238Y338723D01*
D10*
X305308Y285242D02*
X305308Y273558D01*
X305308Y285242D02*
X308554Y285242D01*
X308667Y285240D01*
X308780Y285234D01*
X308893Y285224D01*
X309006Y285210D01*
X309118Y285193D01*
X309229Y285171D01*
X309339Y285146D01*
X309449Y285116D01*
X309557Y285083D01*
X309664Y285046D01*
X309770Y285006D01*
X309874Y284961D01*
X309977Y284913D01*
X310078Y284862D01*
X310177Y284807D01*
X310274Y284749D01*
X310369Y284687D01*
X310462Y284622D01*
X310552Y284554D01*
X310640Y284483D01*
X310726Y284408D01*
X310809Y284331D01*
X310889Y284251D01*
X310966Y284168D01*
X311041Y284082D01*
X311112Y283994D01*
X311180Y283904D01*
X311245Y283811D01*
X311307Y283716D01*
X311365Y283619D01*
X311420Y283520D01*
X311471Y283419D01*
X311519Y283316D01*
X311564Y283212D01*
X311604Y283106D01*
X311641Y282999D01*
X311674Y282891D01*
X311704Y282781D01*
X311729Y282671D01*
X311751Y282560D01*
X311768Y282448D01*
X311782Y282335D01*
X311792Y282222D01*
X311798Y282109D01*
X311800Y281996D01*
X311798Y281883D01*
X311792Y281770D01*
X311782Y281657D01*
X311768Y281544D01*
X311751Y281432D01*
X311729Y281321D01*
X311704Y281211D01*
X311674Y281101D01*
X311641Y280993D01*
X311604Y280886D01*
X311564Y280780D01*
X311519Y280676D01*
X311471Y280573D01*
X311420Y280472D01*
X311365Y280373D01*
X311307Y280276D01*
X311245Y280181D01*
X311180Y280088D01*
X311112Y279998D01*
X311041Y279910D01*
X310966Y279824D01*
X310889Y279741D01*
X310809Y279661D01*
X310726Y279584D01*
X310640Y279509D01*
X310552Y279438D01*
X310462Y279370D01*
X310369Y279305D01*
X310274Y279243D01*
X310177Y279185D01*
X310078Y279130D01*
X309977Y279079D01*
X309874Y279031D01*
X309770Y278986D01*
X309664Y278946D01*
X309557Y278909D01*
X309449Y278876D01*
X309339Y278846D01*
X309229Y278821D01*
X309118Y278799D01*
X309006Y278782D01*
X308893Y278768D01*
X308780Y278758D01*
X308667Y278752D01*
X308554Y278750D01*
X308554Y278751D02*
X305308Y278751D01*
X316075Y278751D02*
X316075Y276154D01*
X316075Y278751D02*
X316077Y278852D01*
X316083Y278952D01*
X316093Y279052D01*
X316106Y279152D01*
X316124Y279251D01*
X316145Y279350D01*
X316170Y279447D01*
X316199Y279544D01*
X316232Y279639D01*
X316268Y279733D01*
X316308Y279825D01*
X316351Y279916D01*
X316398Y280005D01*
X316448Y280092D01*
X316502Y280178D01*
X316559Y280261D01*
X316619Y280341D01*
X316682Y280420D01*
X316749Y280496D01*
X316818Y280569D01*
X316890Y280639D01*
X316964Y280707D01*
X317041Y280772D01*
X317121Y280833D01*
X317203Y280892D01*
X317287Y280947D01*
X317373Y280999D01*
X317461Y281048D01*
X317551Y281093D01*
X317643Y281135D01*
X317736Y281173D01*
X317831Y281207D01*
X317926Y281238D01*
X318023Y281265D01*
X318121Y281288D01*
X318220Y281308D01*
X318320Y281323D01*
X318420Y281335D01*
X318520Y281343D01*
X318621Y281347D01*
X318721Y281347D01*
X318822Y281343D01*
X318922Y281335D01*
X319022Y281323D01*
X319122Y281308D01*
X319221Y281288D01*
X319319Y281265D01*
X319416Y281238D01*
X319511Y281207D01*
X319606Y281173D01*
X319699Y281135D01*
X319791Y281093D01*
X319881Y281048D01*
X319969Y280999D01*
X320055Y280947D01*
X320139Y280892D01*
X320221Y280833D01*
X320301Y280772D01*
X320378Y280707D01*
X320452Y280639D01*
X320524Y280569D01*
X320593Y280496D01*
X320660Y280420D01*
X320723Y280341D01*
X320783Y280261D01*
X320840Y280178D01*
X320894Y280092D01*
X320944Y280005D01*
X320991Y279916D01*
X321034Y279825D01*
X321074Y279733D01*
X321110Y279639D01*
X321143Y279544D01*
X321172Y279447D01*
X321197Y279350D01*
X321218Y279251D01*
X321236Y279152D01*
X321249Y279052D01*
X321259Y278952D01*
X321265Y278852D01*
X321267Y278751D01*
X321268Y278751D02*
X321268Y276154D01*
X321267Y276154D02*
X321265Y276053D01*
X321259Y275953D01*
X321249Y275853D01*
X321236Y275753D01*
X321218Y275654D01*
X321197Y275555D01*
X321172Y275458D01*
X321143Y275361D01*
X321110Y275266D01*
X321074Y275172D01*
X321034Y275080D01*
X320991Y274989D01*
X320944Y274900D01*
X320894Y274813D01*
X320840Y274727D01*
X320783Y274644D01*
X320723Y274564D01*
X320660Y274485D01*
X320593Y274409D01*
X320524Y274336D01*
X320452Y274266D01*
X320378Y274198D01*
X320301Y274133D01*
X320221Y274072D01*
X320139Y274013D01*
X320055Y273958D01*
X319969Y273906D01*
X319881Y273857D01*
X319791Y273812D01*
X319699Y273770D01*
X319606Y273732D01*
X319511Y273698D01*
X319416Y273667D01*
X319319Y273640D01*
X319221Y273617D01*
X319122Y273597D01*
X319022Y273582D01*
X318922Y273570D01*
X318822Y273562D01*
X318721Y273558D01*
X318621Y273558D01*
X318520Y273562D01*
X318420Y273570D01*
X318320Y273582D01*
X318220Y273597D01*
X318121Y273617D01*
X318023Y273640D01*
X317926Y273667D01*
X317831Y273698D01*
X317736Y273732D01*
X317643Y273770D01*
X317551Y273812D01*
X317461Y273857D01*
X317373Y273906D01*
X317287Y273958D01*
X317203Y274013D01*
X317121Y274072D01*
X317041Y274133D01*
X316964Y274198D01*
X316890Y274266D01*
X316818Y274336D01*
X316749Y274409D01*
X316682Y274485D01*
X316619Y274564D01*
X316559Y274644D01*
X316502Y274727D01*
X316448Y274813D01*
X316398Y274900D01*
X316351Y274989D01*
X316308Y275080D01*
X316268Y275172D01*
X316232Y275266D01*
X316199Y275361D01*
X316170Y275458D01*
X316145Y275555D01*
X316124Y275654D01*
X316106Y275753D01*
X316093Y275853D01*
X316083Y275953D01*
X316077Y276053D01*
X316075Y276154D01*
X327941Y273558D02*
X330538Y273558D01*
X327941Y273558D02*
X327854Y273560D01*
X327766Y273566D01*
X327680Y273576D01*
X327593Y273589D01*
X327508Y273607D01*
X327423Y273628D01*
X327339Y273653D01*
X327257Y273682D01*
X327176Y273715D01*
X327096Y273751D01*
X327018Y273790D01*
X326942Y273834D01*
X326868Y273880D01*
X326797Y273930D01*
X326727Y273983D01*
X326660Y274039D01*
X326596Y274098D01*
X326534Y274160D01*
X326475Y274224D01*
X326419Y274291D01*
X326366Y274361D01*
X326316Y274432D01*
X326270Y274506D01*
X326226Y274582D01*
X326187Y274660D01*
X326151Y274740D01*
X326118Y274821D01*
X326089Y274903D01*
X326064Y274987D01*
X326043Y275072D01*
X326025Y275157D01*
X326012Y275244D01*
X326002Y275330D01*
X325996Y275418D01*
X325994Y275505D01*
X325994Y279400D01*
X325996Y279487D01*
X326002Y279575D01*
X326012Y279661D01*
X326025Y279748D01*
X326043Y279833D01*
X326064Y279918D01*
X326089Y280002D01*
X326118Y280084D01*
X326151Y280165D01*
X326187Y280245D01*
X326226Y280323D01*
X326270Y280399D01*
X326316Y280473D01*
X326366Y280544D01*
X326419Y280614D01*
X326475Y280681D01*
X326534Y280745D01*
X326596Y280807D01*
X326660Y280866D01*
X326727Y280922D01*
X326797Y280975D01*
X326868Y281025D01*
X326942Y281071D01*
X327018Y281115D01*
X327096Y281154D01*
X327176Y281190D01*
X327257Y281223D01*
X327339Y281252D01*
X327423Y281277D01*
X327508Y281298D01*
X327593Y281316D01*
X327680Y281329D01*
X327766Y281339D01*
X327854Y281345D01*
X327941Y281347D01*
X330538Y281347D01*
X336691Y273558D02*
X339937Y273558D01*
X336691Y273558D02*
X336604Y273560D01*
X336516Y273566D01*
X336430Y273576D01*
X336343Y273589D01*
X336258Y273607D01*
X336173Y273628D01*
X336089Y273653D01*
X336007Y273682D01*
X335926Y273715D01*
X335846Y273751D01*
X335768Y273790D01*
X335692Y273834D01*
X335618Y273880D01*
X335547Y273930D01*
X335477Y273983D01*
X335410Y274039D01*
X335346Y274098D01*
X335284Y274160D01*
X335225Y274224D01*
X335169Y274291D01*
X335116Y274361D01*
X335066Y274432D01*
X335020Y274506D01*
X334976Y274582D01*
X334937Y274660D01*
X334901Y274740D01*
X334868Y274821D01*
X334839Y274903D01*
X334814Y274987D01*
X334793Y275072D01*
X334775Y275157D01*
X334762Y275244D01*
X334752Y275330D01*
X334746Y275418D01*
X334744Y275505D01*
X334744Y278751D01*
X334746Y278852D01*
X334752Y278952D01*
X334762Y279052D01*
X334775Y279152D01*
X334793Y279251D01*
X334814Y279350D01*
X334839Y279447D01*
X334868Y279544D01*
X334901Y279639D01*
X334937Y279733D01*
X334977Y279825D01*
X335020Y279916D01*
X335067Y280005D01*
X335117Y280092D01*
X335171Y280178D01*
X335228Y280261D01*
X335288Y280341D01*
X335351Y280420D01*
X335418Y280496D01*
X335487Y280569D01*
X335559Y280639D01*
X335633Y280707D01*
X335710Y280772D01*
X335790Y280833D01*
X335872Y280892D01*
X335956Y280947D01*
X336042Y280999D01*
X336130Y281048D01*
X336220Y281093D01*
X336312Y281135D01*
X336405Y281173D01*
X336500Y281207D01*
X336595Y281238D01*
X336692Y281265D01*
X336790Y281288D01*
X336889Y281308D01*
X336989Y281323D01*
X337089Y281335D01*
X337189Y281343D01*
X337290Y281347D01*
X337390Y281347D01*
X337491Y281343D01*
X337591Y281335D01*
X337691Y281323D01*
X337791Y281308D01*
X337890Y281288D01*
X337988Y281265D01*
X338085Y281238D01*
X338180Y281207D01*
X338275Y281173D01*
X338368Y281135D01*
X338460Y281093D01*
X338550Y281048D01*
X338638Y280999D01*
X338724Y280947D01*
X338808Y280892D01*
X338890Y280833D01*
X338970Y280772D01*
X339047Y280707D01*
X339121Y280639D01*
X339193Y280569D01*
X339262Y280496D01*
X339329Y280420D01*
X339392Y280341D01*
X339452Y280261D01*
X339509Y280178D01*
X339563Y280092D01*
X339613Y280005D01*
X339660Y279916D01*
X339703Y279825D01*
X339743Y279733D01*
X339779Y279639D01*
X339812Y279544D01*
X339841Y279447D01*
X339866Y279350D01*
X339887Y279251D01*
X339905Y279152D01*
X339918Y279052D01*
X339928Y278952D01*
X339934Y278852D01*
X339936Y278751D01*
X339937Y278751D02*
X339937Y277453D01*
X334744Y277453D01*
X345166Y273558D02*
X345166Y285242D01*
X350359Y281347D02*
X345166Y277453D01*
X347438Y279075D02*
X350359Y273558D01*
X353588Y281347D02*
X357483Y281347D01*
X354887Y285242D02*
X354887Y275505D01*
X354889Y275418D01*
X354895Y275330D01*
X354905Y275244D01*
X354918Y275157D01*
X354936Y275072D01*
X354957Y274987D01*
X354982Y274903D01*
X355011Y274821D01*
X355044Y274740D01*
X355080Y274660D01*
X355119Y274582D01*
X355163Y274506D01*
X355209Y274432D01*
X355259Y274361D01*
X355312Y274291D01*
X355368Y274224D01*
X355427Y274160D01*
X355489Y274098D01*
X355553Y274039D01*
X355620Y273983D01*
X355690Y273930D01*
X355761Y273880D01*
X355835Y273834D01*
X355911Y273790D01*
X355989Y273751D01*
X356069Y273715D01*
X356150Y273682D01*
X356232Y273653D01*
X356316Y273628D01*
X356401Y273607D01*
X356486Y273589D01*
X356573Y273576D01*
X356659Y273566D01*
X356747Y273560D01*
X356834Y273558D01*
X357483Y273558D01*
X362458Y280049D02*
X365703Y280049D01*
X365703Y280050D02*
X365816Y280048D01*
X365929Y280042D01*
X366042Y280032D01*
X366155Y280018D01*
X366267Y280001D01*
X366378Y279979D01*
X366488Y279954D01*
X366598Y279924D01*
X366706Y279891D01*
X366813Y279854D01*
X366919Y279814D01*
X367023Y279769D01*
X367126Y279721D01*
X367227Y279670D01*
X367326Y279615D01*
X367423Y279557D01*
X367518Y279495D01*
X367611Y279430D01*
X367701Y279362D01*
X367789Y279291D01*
X367875Y279216D01*
X367958Y279139D01*
X368038Y279059D01*
X368115Y278976D01*
X368190Y278890D01*
X368261Y278802D01*
X368329Y278712D01*
X368394Y278619D01*
X368456Y278524D01*
X368514Y278427D01*
X368569Y278328D01*
X368620Y278227D01*
X368668Y278124D01*
X368713Y278020D01*
X368753Y277914D01*
X368790Y277807D01*
X368823Y277699D01*
X368853Y277589D01*
X368878Y277479D01*
X368900Y277368D01*
X368917Y277256D01*
X368931Y277143D01*
X368941Y277030D01*
X368947Y276917D01*
X368949Y276804D01*
X368947Y276691D01*
X368941Y276578D01*
X368931Y276465D01*
X368917Y276352D01*
X368900Y276240D01*
X368878Y276129D01*
X368853Y276019D01*
X368823Y275909D01*
X368790Y275801D01*
X368753Y275694D01*
X368713Y275588D01*
X368668Y275484D01*
X368620Y275381D01*
X368569Y275280D01*
X368514Y275181D01*
X368456Y275084D01*
X368394Y274989D01*
X368329Y274896D01*
X368261Y274806D01*
X368190Y274718D01*
X368115Y274632D01*
X368038Y274549D01*
X367958Y274469D01*
X367875Y274392D01*
X367789Y274317D01*
X367701Y274246D01*
X367611Y274178D01*
X367518Y274113D01*
X367423Y274051D01*
X367326Y273993D01*
X367227Y273938D01*
X367126Y273887D01*
X367023Y273839D01*
X366919Y273794D01*
X366813Y273754D01*
X366706Y273717D01*
X366598Y273684D01*
X366488Y273654D01*
X366378Y273629D01*
X366267Y273607D01*
X366155Y273590D01*
X366042Y273576D01*
X365929Y273566D01*
X365816Y273560D01*
X365703Y273558D01*
X362458Y273558D01*
X362458Y285242D01*
X365703Y285242D01*
X365804Y285240D01*
X365904Y285234D01*
X366004Y285224D01*
X366104Y285211D01*
X366203Y285193D01*
X366302Y285172D01*
X366399Y285147D01*
X366496Y285118D01*
X366591Y285085D01*
X366685Y285049D01*
X366777Y285009D01*
X366868Y284966D01*
X366957Y284919D01*
X367044Y284869D01*
X367130Y284815D01*
X367213Y284758D01*
X367293Y284698D01*
X367372Y284635D01*
X367448Y284568D01*
X367521Y284499D01*
X367591Y284427D01*
X367659Y284353D01*
X367724Y284276D01*
X367785Y284196D01*
X367844Y284114D01*
X367899Y284030D01*
X367951Y283944D01*
X368000Y283856D01*
X368045Y283766D01*
X368087Y283674D01*
X368125Y283581D01*
X368159Y283486D01*
X368190Y283391D01*
X368217Y283294D01*
X368240Y283196D01*
X368260Y283097D01*
X368275Y282997D01*
X368287Y282897D01*
X368295Y282797D01*
X368299Y282696D01*
X368299Y282596D01*
X368295Y282495D01*
X368287Y282395D01*
X368275Y282295D01*
X368260Y282195D01*
X368240Y282096D01*
X368217Y281998D01*
X368190Y281901D01*
X368159Y281806D01*
X368125Y281711D01*
X368087Y281618D01*
X368045Y281526D01*
X368000Y281436D01*
X367951Y281348D01*
X367899Y281262D01*
X367844Y281178D01*
X367785Y281096D01*
X367724Y281016D01*
X367659Y280939D01*
X367591Y280865D01*
X367521Y280793D01*
X367448Y280724D01*
X367372Y280657D01*
X367293Y280594D01*
X367213Y280534D01*
X367130Y280477D01*
X367044Y280423D01*
X366957Y280373D01*
X366868Y280326D01*
X366777Y280283D01*
X366685Y280243D01*
X366591Y280207D01*
X366496Y280174D01*
X366399Y280145D01*
X366302Y280120D01*
X366203Y280099D01*
X366104Y280081D01*
X366004Y280068D01*
X365904Y280058D01*
X365804Y280052D01*
X365703Y280050D01*
X375172Y273558D02*
X378418Y273558D01*
X375172Y273558D02*
X375085Y273560D01*
X374997Y273566D01*
X374911Y273576D01*
X374824Y273589D01*
X374739Y273607D01*
X374654Y273628D01*
X374570Y273653D01*
X374488Y273682D01*
X374407Y273715D01*
X374327Y273751D01*
X374249Y273790D01*
X374173Y273834D01*
X374099Y273880D01*
X374028Y273930D01*
X373958Y273983D01*
X373891Y274039D01*
X373827Y274098D01*
X373765Y274160D01*
X373706Y274224D01*
X373650Y274291D01*
X373597Y274361D01*
X373547Y274432D01*
X373501Y274506D01*
X373457Y274582D01*
X373418Y274660D01*
X373382Y274740D01*
X373349Y274821D01*
X373320Y274903D01*
X373295Y274987D01*
X373274Y275072D01*
X373256Y275157D01*
X373243Y275244D01*
X373233Y275330D01*
X373227Y275418D01*
X373225Y275505D01*
X373225Y278751D01*
X373227Y278852D01*
X373233Y278952D01*
X373243Y279052D01*
X373256Y279152D01*
X373274Y279251D01*
X373295Y279350D01*
X373320Y279447D01*
X373349Y279544D01*
X373382Y279639D01*
X373418Y279733D01*
X373458Y279825D01*
X373501Y279916D01*
X373548Y280005D01*
X373598Y280092D01*
X373652Y280178D01*
X373709Y280261D01*
X373769Y280341D01*
X373832Y280420D01*
X373899Y280496D01*
X373968Y280569D01*
X374040Y280639D01*
X374114Y280707D01*
X374191Y280772D01*
X374271Y280833D01*
X374353Y280892D01*
X374437Y280947D01*
X374523Y280999D01*
X374611Y281048D01*
X374701Y281093D01*
X374793Y281135D01*
X374886Y281173D01*
X374981Y281207D01*
X375076Y281238D01*
X375173Y281265D01*
X375271Y281288D01*
X375370Y281308D01*
X375470Y281323D01*
X375570Y281335D01*
X375670Y281343D01*
X375771Y281347D01*
X375871Y281347D01*
X375972Y281343D01*
X376072Y281335D01*
X376172Y281323D01*
X376272Y281308D01*
X376371Y281288D01*
X376469Y281265D01*
X376566Y281238D01*
X376661Y281207D01*
X376756Y281173D01*
X376849Y281135D01*
X376941Y281093D01*
X377031Y281048D01*
X377119Y280999D01*
X377205Y280947D01*
X377289Y280892D01*
X377371Y280833D01*
X377451Y280772D01*
X377528Y280707D01*
X377602Y280639D01*
X377674Y280569D01*
X377743Y280496D01*
X377810Y280420D01*
X377873Y280341D01*
X377933Y280261D01*
X377990Y280178D01*
X378044Y280092D01*
X378094Y280005D01*
X378141Y279916D01*
X378184Y279825D01*
X378224Y279733D01*
X378260Y279639D01*
X378293Y279544D01*
X378322Y279447D01*
X378347Y279350D01*
X378368Y279251D01*
X378386Y279152D01*
X378399Y279052D01*
X378409Y278952D01*
X378415Y278852D01*
X378417Y278751D01*
X378418Y278751D02*
X378418Y277453D01*
X373225Y277453D01*
X385344Y278102D02*
X388265Y278102D01*
X385344Y278102D02*
X385250Y278100D01*
X385156Y278094D01*
X385063Y278085D01*
X384970Y278071D01*
X384878Y278054D01*
X384786Y278032D01*
X384696Y278008D01*
X384606Y277979D01*
X384518Y277947D01*
X384431Y277911D01*
X384346Y277871D01*
X384263Y277828D01*
X384181Y277782D01*
X384101Y277732D01*
X384024Y277679D01*
X383949Y277623D01*
X383876Y277564D01*
X383805Y277502D01*
X383737Y277437D01*
X383672Y277369D01*
X383610Y277298D01*
X383551Y277225D01*
X383495Y277150D01*
X383442Y277073D01*
X383392Y276993D01*
X383346Y276911D01*
X383303Y276828D01*
X383263Y276743D01*
X383227Y276656D01*
X383195Y276568D01*
X383166Y276478D01*
X383142Y276388D01*
X383120Y276296D01*
X383103Y276204D01*
X383089Y276111D01*
X383080Y276018D01*
X383074Y275924D01*
X383072Y275830D01*
X383074Y275736D01*
X383080Y275642D01*
X383089Y275549D01*
X383103Y275456D01*
X383120Y275364D01*
X383142Y275272D01*
X383166Y275182D01*
X383195Y275092D01*
X383227Y275004D01*
X383263Y274917D01*
X383303Y274832D01*
X383346Y274749D01*
X383392Y274667D01*
X383442Y274587D01*
X383495Y274510D01*
X383551Y274435D01*
X383610Y274362D01*
X383672Y274291D01*
X383737Y274223D01*
X383805Y274158D01*
X383876Y274096D01*
X383949Y274037D01*
X384024Y273981D01*
X384101Y273928D01*
X384181Y273878D01*
X384263Y273832D01*
X384346Y273789D01*
X384431Y273749D01*
X384518Y273713D01*
X384606Y273681D01*
X384696Y273652D01*
X384786Y273628D01*
X384878Y273606D01*
X384970Y273589D01*
X385063Y273575D01*
X385156Y273566D01*
X385250Y273560D01*
X385344Y273558D01*
X388265Y273558D01*
X388265Y279400D01*
X388264Y279400D02*
X388262Y279487D01*
X388256Y279575D01*
X388246Y279661D01*
X388233Y279748D01*
X388215Y279833D01*
X388194Y279918D01*
X388169Y280002D01*
X388140Y280084D01*
X388107Y280165D01*
X388071Y280245D01*
X388032Y280323D01*
X387988Y280399D01*
X387942Y280473D01*
X387892Y280544D01*
X387839Y280614D01*
X387783Y280681D01*
X387724Y280745D01*
X387662Y280807D01*
X387598Y280866D01*
X387531Y280922D01*
X387461Y280975D01*
X387390Y281025D01*
X387316Y281071D01*
X387240Y281115D01*
X387162Y281154D01*
X387082Y281190D01*
X387001Y281223D01*
X386919Y281252D01*
X386835Y281277D01*
X386750Y281298D01*
X386665Y281316D01*
X386578Y281329D01*
X386492Y281339D01*
X386404Y281345D01*
X386317Y281347D01*
X383721Y281347D01*
X395306Y273558D02*
X398552Y273558D01*
X395306Y273558D02*
X395219Y273560D01*
X395131Y273566D01*
X395045Y273576D01*
X394958Y273589D01*
X394873Y273607D01*
X394788Y273628D01*
X394704Y273653D01*
X394622Y273682D01*
X394541Y273715D01*
X394461Y273751D01*
X394383Y273790D01*
X394307Y273834D01*
X394233Y273880D01*
X394162Y273930D01*
X394092Y273983D01*
X394025Y274039D01*
X393961Y274098D01*
X393899Y274160D01*
X393840Y274224D01*
X393784Y274291D01*
X393731Y274361D01*
X393681Y274432D01*
X393635Y274506D01*
X393591Y274582D01*
X393552Y274660D01*
X393516Y274740D01*
X393483Y274821D01*
X393454Y274903D01*
X393429Y274987D01*
X393408Y275072D01*
X393390Y275157D01*
X393377Y275244D01*
X393367Y275330D01*
X393361Y275418D01*
X393359Y275505D01*
X393359Y279400D01*
X393361Y279487D01*
X393367Y279575D01*
X393377Y279661D01*
X393390Y279748D01*
X393408Y279833D01*
X393429Y279918D01*
X393454Y280002D01*
X393483Y280084D01*
X393516Y280165D01*
X393552Y280245D01*
X393591Y280323D01*
X393635Y280399D01*
X393681Y280473D01*
X393731Y280544D01*
X393784Y280614D01*
X393840Y280681D01*
X393899Y280745D01*
X393961Y280807D01*
X394025Y280866D01*
X394092Y280922D01*
X394162Y280975D01*
X394233Y281025D01*
X394307Y281071D01*
X394383Y281115D01*
X394461Y281154D01*
X394541Y281190D01*
X394622Y281223D01*
X394704Y281252D01*
X394788Y281277D01*
X394873Y281298D01*
X394958Y281316D01*
X395045Y281329D01*
X395131Y281339D01*
X395219Y281345D01*
X395306Y281347D01*
X398552Y281347D01*
X398552Y271611D01*
X398551Y271611D02*
X398549Y271524D01*
X398543Y271436D01*
X398533Y271350D01*
X398520Y271263D01*
X398502Y271178D01*
X398481Y271093D01*
X398456Y271009D01*
X398427Y270927D01*
X398394Y270846D01*
X398358Y270766D01*
X398319Y270688D01*
X398275Y270612D01*
X398229Y270538D01*
X398179Y270467D01*
X398126Y270397D01*
X398070Y270330D01*
X398011Y270266D01*
X397950Y270204D01*
X397885Y270145D01*
X397818Y270089D01*
X397748Y270036D01*
X397677Y269986D01*
X397603Y269940D01*
X397527Y269896D01*
X397449Y269857D01*
X397369Y269821D01*
X397288Y269788D01*
X397206Y269759D01*
X397122Y269734D01*
X397037Y269713D01*
X396952Y269695D01*
X396865Y269682D01*
X396779Y269672D01*
X396691Y269666D01*
X396604Y269664D01*
X396604Y269663D02*
X394008Y269663D01*
X403854Y275505D02*
X403854Y285242D01*
X403854Y275505D02*
X403856Y275418D01*
X403862Y275330D01*
X403872Y275244D01*
X403885Y275157D01*
X403903Y275072D01*
X403924Y274987D01*
X403949Y274903D01*
X403978Y274821D01*
X404011Y274740D01*
X404047Y274660D01*
X404086Y274582D01*
X404130Y274506D01*
X404176Y274432D01*
X404226Y274361D01*
X404279Y274291D01*
X404335Y274224D01*
X404394Y274160D01*
X404456Y274098D01*
X404520Y274039D01*
X404587Y273983D01*
X404657Y273930D01*
X404728Y273880D01*
X404802Y273834D01*
X404878Y273790D01*
X404956Y273751D01*
X405036Y273715D01*
X405117Y273682D01*
X405199Y273653D01*
X405283Y273628D01*
X405368Y273607D01*
X405453Y273589D01*
X405540Y273576D01*
X405626Y273566D01*
X405714Y273560D01*
X405801Y273558D01*
X411748Y273558D02*
X414993Y273558D01*
X411748Y273558D02*
X411661Y273560D01*
X411573Y273566D01*
X411487Y273576D01*
X411400Y273589D01*
X411315Y273607D01*
X411230Y273628D01*
X411146Y273653D01*
X411064Y273682D01*
X410983Y273715D01*
X410903Y273751D01*
X410825Y273790D01*
X410749Y273834D01*
X410675Y273880D01*
X410604Y273930D01*
X410534Y273983D01*
X410467Y274039D01*
X410403Y274098D01*
X410341Y274160D01*
X410282Y274224D01*
X410226Y274291D01*
X410173Y274361D01*
X410123Y274432D01*
X410077Y274506D01*
X410033Y274582D01*
X409994Y274660D01*
X409958Y274740D01*
X409925Y274821D01*
X409896Y274903D01*
X409871Y274987D01*
X409850Y275072D01*
X409832Y275157D01*
X409819Y275244D01*
X409809Y275330D01*
X409803Y275418D01*
X409801Y275505D01*
X409801Y278751D01*
X409803Y278852D01*
X409809Y278952D01*
X409819Y279052D01*
X409832Y279152D01*
X409850Y279251D01*
X409871Y279350D01*
X409896Y279447D01*
X409925Y279544D01*
X409958Y279639D01*
X409994Y279733D01*
X410034Y279825D01*
X410077Y279916D01*
X410124Y280005D01*
X410174Y280092D01*
X410228Y280178D01*
X410285Y280261D01*
X410345Y280341D01*
X410408Y280420D01*
X410475Y280496D01*
X410544Y280569D01*
X410616Y280639D01*
X410690Y280707D01*
X410767Y280772D01*
X410847Y280833D01*
X410929Y280892D01*
X411013Y280947D01*
X411099Y280999D01*
X411187Y281048D01*
X411277Y281093D01*
X411369Y281135D01*
X411462Y281173D01*
X411557Y281207D01*
X411652Y281238D01*
X411749Y281265D01*
X411847Y281288D01*
X411946Y281308D01*
X412046Y281323D01*
X412146Y281335D01*
X412246Y281343D01*
X412347Y281347D01*
X412447Y281347D01*
X412548Y281343D01*
X412648Y281335D01*
X412748Y281323D01*
X412848Y281308D01*
X412947Y281288D01*
X413045Y281265D01*
X413142Y281238D01*
X413237Y281207D01*
X413332Y281173D01*
X413425Y281135D01*
X413517Y281093D01*
X413607Y281048D01*
X413695Y280999D01*
X413781Y280947D01*
X413865Y280892D01*
X413947Y280833D01*
X414027Y280772D01*
X414104Y280707D01*
X414178Y280639D01*
X414250Y280569D01*
X414319Y280496D01*
X414386Y280420D01*
X414449Y280341D01*
X414509Y280261D01*
X414566Y280178D01*
X414620Y280092D01*
X414670Y280005D01*
X414717Y279916D01*
X414760Y279825D01*
X414800Y279733D01*
X414836Y279639D01*
X414869Y279544D01*
X414898Y279447D01*
X414923Y279350D01*
X414944Y279251D01*
X414962Y279152D01*
X414975Y279052D01*
X414985Y278952D01*
X414991Y278852D01*
X414993Y278751D01*
X414993Y277453D01*
X409801Y277453D01*
D13*
X563800Y228520D02*
X563800Y218520D01*
X563800Y228520D02*
X553800Y228520D01*
X553800Y218520D01*
X563800Y218520D01*
D14*
X546028Y212979D02*
X546028Y207659D01*
X546030Y207570D01*
X546036Y207481D01*
X546046Y207392D01*
X546059Y207304D01*
X546076Y207216D01*
X546098Y207129D01*
X546123Y207044D01*
X546151Y206959D01*
X546184Y206876D01*
X546220Y206794D01*
X546259Y206714D01*
X546302Y206636D01*
X546348Y206560D01*
X546398Y206485D01*
X546451Y206413D01*
X546507Y206344D01*
X546566Y206277D01*
X546627Y206212D01*
X546692Y206151D01*
X546759Y206092D01*
X546828Y206036D01*
X546900Y205983D01*
X546975Y205933D01*
X547051Y205887D01*
X547129Y205844D01*
X547209Y205805D01*
X547291Y205769D01*
X547374Y205736D01*
X547459Y205708D01*
X547544Y205683D01*
X547631Y205661D01*
X547719Y205644D01*
X547807Y205631D01*
X547896Y205621D01*
X547985Y205615D01*
X548074Y205613D01*
X548163Y205615D01*
X548252Y205621D01*
X548341Y205631D01*
X548429Y205644D01*
X548517Y205661D01*
X548604Y205683D01*
X548689Y205708D01*
X548774Y205736D01*
X548857Y205769D01*
X548939Y205805D01*
X549019Y205844D01*
X549097Y205887D01*
X549173Y205933D01*
X549248Y205983D01*
X549320Y206036D01*
X549389Y206092D01*
X549456Y206151D01*
X549521Y206212D01*
X549582Y206277D01*
X549641Y206344D01*
X549697Y206413D01*
X549750Y206485D01*
X549800Y206560D01*
X549846Y206636D01*
X549889Y206714D01*
X549928Y206794D01*
X549964Y206876D01*
X549997Y206959D01*
X550025Y207044D01*
X550050Y207129D01*
X550072Y207216D01*
X550089Y207304D01*
X550102Y207392D01*
X550112Y207481D01*
X550118Y207570D01*
X550120Y207659D01*
X550120Y212979D01*
X555145Y212979D02*
X555145Y205613D01*
X555145Y209296D02*
X554122Y209910D01*
X554064Y209947D01*
X554009Y209987D01*
X553955Y210031D01*
X553904Y210077D01*
X553856Y210126D01*
X553811Y210178D01*
X553768Y210232D01*
X553729Y210288D01*
X553693Y210347D01*
X553660Y210407D01*
X553631Y210470D01*
X553605Y210533D01*
X553583Y210599D01*
X553565Y210665D01*
X553550Y210732D01*
X553539Y210800D01*
X553532Y210868D01*
X553529Y210937D01*
X553530Y211006D01*
X553535Y211074D01*
X553543Y211143D01*
X553555Y211210D01*
X553571Y211277D01*
X553591Y211343D01*
X553615Y211408D01*
X553642Y211471D01*
X553672Y211533D01*
X553707Y211592D01*
X553744Y211650D01*
X553784Y211706D01*
X553828Y211759D01*
X553874Y211809D01*
X553924Y211857D01*
X553976Y211903D01*
X554030Y211945D01*
X554087Y211984D01*
X554145Y212019D01*
X554206Y212052D01*
X554269Y212081D01*
X554332Y212106D01*
X554398Y212128D01*
X554464Y212146D01*
X554531Y212160D01*
X554641Y212178D01*
X554752Y212193D01*
X554862Y212203D01*
X554974Y212210D01*
X555085Y212213D01*
X555196Y212212D01*
X555307Y212207D01*
X555418Y212199D01*
X555529Y212186D01*
X555639Y212170D01*
X555749Y212150D01*
X555857Y212127D01*
X555965Y212099D01*
X556072Y212068D01*
X556178Y212033D01*
X556282Y211995D01*
X556386Y211953D01*
X556487Y211908D01*
X556587Y211859D01*
X556686Y211807D01*
X556782Y211751D01*
X555145Y209296D02*
X556168Y208682D01*
X556169Y208682D02*
X556227Y208645D01*
X556282Y208605D01*
X556336Y208561D01*
X556387Y208515D01*
X556435Y208466D01*
X556480Y208414D01*
X556523Y208360D01*
X556562Y208304D01*
X556598Y208245D01*
X556631Y208185D01*
X556660Y208122D01*
X556686Y208059D01*
X556708Y207994D01*
X556726Y207927D01*
X556741Y207860D01*
X556752Y207792D01*
X556759Y207724D01*
X556762Y207655D01*
X556761Y207586D01*
X556756Y207518D01*
X556748Y207449D01*
X556736Y207382D01*
X556720Y207315D01*
X556700Y207249D01*
X556676Y207184D01*
X556649Y207121D01*
X556619Y207059D01*
X556585Y207000D01*
X556547Y206942D01*
X556507Y206886D01*
X556463Y206833D01*
X556417Y206783D01*
X556367Y206735D01*
X556315Y206689D01*
X556261Y206647D01*
X556204Y206608D01*
X556146Y206573D01*
X556085Y206540D01*
X556022Y206511D01*
X555959Y206486D01*
X555893Y206464D01*
X555827Y206446D01*
X555760Y206432D01*
X555650Y206414D01*
X555539Y206399D01*
X555429Y206389D01*
X555318Y206382D01*
X555206Y206379D01*
X555095Y206380D01*
X554984Y206385D01*
X554873Y206393D01*
X554762Y206406D01*
X554652Y206422D01*
X554542Y206442D01*
X554434Y206465D01*
X554326Y206493D01*
X554219Y206524D01*
X554113Y206559D01*
X554009Y206597D01*
X553905Y206639D01*
X553804Y206684D01*
X553704Y206733D01*
X553605Y206785D01*
X553509Y206841D01*
X559927Y211342D02*
X561973Y212979D01*
X561973Y205613D01*
X559927Y205613D02*
X564019Y205613D01*
D13*
X472760Y220736D02*
X365760Y220736D01*
X472760Y220736D02*
X472760Y138736D01*
X335760Y138736D01*
X335760Y220736D01*
X365760Y220736D01*
D10*
X396268Y237490D02*
X396268Y245928D01*
X396268Y237490D02*
X396270Y237377D01*
X396276Y237264D01*
X396286Y237151D01*
X396300Y237038D01*
X396317Y236926D01*
X396339Y236815D01*
X396364Y236705D01*
X396394Y236595D01*
X396427Y236487D01*
X396464Y236380D01*
X396504Y236274D01*
X396549Y236170D01*
X396597Y236067D01*
X396648Y235966D01*
X396703Y235867D01*
X396761Y235770D01*
X396823Y235675D01*
X396888Y235582D01*
X396956Y235492D01*
X397027Y235404D01*
X397102Y235318D01*
X397179Y235235D01*
X397259Y235155D01*
X397342Y235078D01*
X397428Y235003D01*
X397516Y234932D01*
X397606Y234864D01*
X397699Y234799D01*
X397794Y234737D01*
X397891Y234679D01*
X397990Y234624D01*
X398091Y234573D01*
X398194Y234525D01*
X398298Y234480D01*
X398404Y234440D01*
X398511Y234403D01*
X398619Y234370D01*
X398729Y234340D01*
X398839Y234315D01*
X398950Y234293D01*
X399062Y234276D01*
X399175Y234262D01*
X399288Y234252D01*
X399401Y234246D01*
X399514Y234244D01*
X399627Y234246D01*
X399740Y234252D01*
X399853Y234262D01*
X399966Y234276D01*
X400078Y234293D01*
X400189Y234315D01*
X400299Y234340D01*
X400409Y234370D01*
X400517Y234403D01*
X400624Y234440D01*
X400730Y234480D01*
X400834Y234525D01*
X400937Y234573D01*
X401038Y234624D01*
X401137Y234679D01*
X401234Y234737D01*
X401329Y234799D01*
X401422Y234864D01*
X401512Y234932D01*
X401600Y235003D01*
X401686Y235078D01*
X401769Y235155D01*
X401849Y235235D01*
X401926Y235318D01*
X402001Y235404D01*
X402072Y235492D01*
X402140Y235582D01*
X402205Y235675D01*
X402267Y235770D01*
X402325Y235867D01*
X402380Y235966D01*
X402431Y236067D01*
X402479Y236170D01*
X402524Y236274D01*
X402564Y236380D01*
X402601Y236487D01*
X402634Y236595D01*
X402664Y236705D01*
X402689Y236815D01*
X402711Y236926D01*
X402728Y237038D01*
X402742Y237151D01*
X402752Y237264D01*
X402758Y237377D01*
X402760Y237490D01*
X402759Y237490D02*
X402759Y245928D01*
X410563Y245928D02*
X410563Y234244D01*
X410563Y240086D02*
X408940Y241060D01*
X408939Y241059D02*
X408866Y241106D01*
X408795Y241155D01*
X408725Y241208D01*
X408659Y241264D01*
X408595Y241323D01*
X408533Y241384D01*
X408475Y241448D01*
X408419Y241515D01*
X408367Y241584D01*
X408317Y241656D01*
X408271Y241730D01*
X408228Y241805D01*
X408189Y241883D01*
X408153Y241962D01*
X408121Y242043D01*
X408092Y242125D01*
X408067Y242208D01*
X408046Y242292D01*
X408029Y242377D01*
X408015Y242463D01*
X408006Y242549D01*
X408000Y242636D01*
X407998Y242723D01*
X408000Y242810D01*
X408006Y242897D01*
X408016Y242983D01*
X408029Y243069D01*
X408047Y243154D01*
X408068Y243238D01*
X408093Y243321D01*
X408122Y243404D01*
X408154Y243484D01*
X408190Y243563D01*
X408229Y243641D01*
X408272Y243716D01*
X408319Y243790D01*
X408368Y243861D01*
X408421Y243931D01*
X408476Y243997D01*
X408535Y244061D01*
X408596Y244123D01*
X408661Y244182D01*
X408727Y244237D01*
X408796Y244290D01*
X408868Y244340D01*
X408941Y244386D01*
X409017Y244429D01*
X409094Y244468D01*
X409173Y244504D01*
X409254Y244537D01*
X409336Y244565D01*
X409419Y244591D01*
X409503Y244612D01*
X409589Y244629D01*
X409589Y244630D02*
X409729Y244654D01*
X409871Y244674D01*
X410012Y244690D01*
X410154Y244701D01*
X410297Y244709D01*
X410439Y244713D01*
X410582Y244714D01*
X410725Y244710D01*
X410867Y244702D01*
X411009Y244690D01*
X411151Y244674D01*
X411292Y244655D01*
X411433Y244631D01*
X411573Y244604D01*
X411712Y244572D01*
X411850Y244537D01*
X411988Y244498D01*
X412124Y244455D01*
X412258Y244409D01*
X412392Y244358D01*
X412524Y244305D01*
X412654Y244247D01*
X412783Y244186D01*
X412910Y244121D01*
X413036Y244053D01*
X413159Y243981D01*
X410563Y240086D02*
X412185Y239112D01*
X412186Y239113D02*
X412259Y239066D01*
X412330Y239017D01*
X412400Y238964D01*
X412466Y238908D01*
X412530Y238849D01*
X412592Y238788D01*
X412650Y238724D01*
X412706Y238657D01*
X412758Y238588D01*
X412808Y238516D01*
X412854Y238442D01*
X412897Y238367D01*
X412936Y238289D01*
X412972Y238210D01*
X413004Y238129D01*
X413033Y238047D01*
X413058Y237964D01*
X413079Y237880D01*
X413096Y237795D01*
X413110Y237709D01*
X413119Y237623D01*
X413125Y237536D01*
X413127Y237449D01*
X413125Y237362D01*
X413119Y237275D01*
X413109Y237189D01*
X413096Y237103D01*
X413078Y237018D01*
X413057Y236934D01*
X413032Y236851D01*
X413003Y236768D01*
X412971Y236688D01*
X412935Y236609D01*
X412896Y236531D01*
X412853Y236456D01*
X412806Y236382D01*
X412757Y236311D01*
X412704Y236241D01*
X412649Y236175D01*
X412590Y236111D01*
X412529Y236049D01*
X412464Y235990D01*
X412398Y235935D01*
X412329Y235882D01*
X412257Y235832D01*
X412184Y235786D01*
X412108Y235743D01*
X412031Y235704D01*
X411952Y235668D01*
X411871Y235635D01*
X411789Y235607D01*
X411706Y235581D01*
X411622Y235560D01*
X411537Y235543D01*
X411536Y235542D02*
X411396Y235518D01*
X411254Y235498D01*
X411113Y235482D01*
X410971Y235471D01*
X410828Y235463D01*
X410686Y235459D01*
X410543Y235458D01*
X410400Y235462D01*
X410258Y235470D01*
X410116Y235482D01*
X409974Y235498D01*
X409833Y235517D01*
X409692Y235541D01*
X409552Y235568D01*
X409413Y235600D01*
X409275Y235635D01*
X409137Y235674D01*
X409001Y235717D01*
X408867Y235763D01*
X408733Y235814D01*
X408601Y235867D01*
X408471Y235925D01*
X408342Y235986D01*
X408215Y236051D01*
X408089Y236119D01*
X407966Y236191D01*
X421555Y245928D02*
X421662Y245926D01*
X421768Y245920D01*
X421874Y245910D01*
X421980Y245897D01*
X422086Y245879D01*
X422190Y245858D01*
X422294Y245833D01*
X422397Y245804D01*
X422498Y245772D01*
X422598Y245735D01*
X422697Y245695D01*
X422795Y245652D01*
X422891Y245605D01*
X422985Y245554D01*
X423077Y245500D01*
X423167Y245443D01*
X423255Y245383D01*
X423340Y245319D01*
X423423Y245252D01*
X423504Y245182D01*
X423582Y245110D01*
X423658Y245034D01*
X423730Y244956D01*
X423800Y244875D01*
X423867Y244792D01*
X423931Y244707D01*
X423991Y244619D01*
X424048Y244529D01*
X424102Y244437D01*
X424153Y244343D01*
X424200Y244247D01*
X424243Y244149D01*
X424283Y244050D01*
X424320Y243950D01*
X424352Y243849D01*
X424381Y243746D01*
X424406Y243642D01*
X424427Y243538D01*
X424445Y243432D01*
X424458Y243326D01*
X424468Y243220D01*
X424474Y243114D01*
X424476Y243007D01*
X421555Y245928D02*
X421434Y245926D01*
X421313Y245920D01*
X421193Y245910D01*
X421072Y245897D01*
X420953Y245879D01*
X420833Y245858D01*
X420715Y245833D01*
X420598Y245804D01*
X420481Y245771D01*
X420366Y245735D01*
X420252Y245694D01*
X420139Y245651D01*
X420027Y245603D01*
X419918Y245552D01*
X419810Y245497D01*
X419703Y245439D01*
X419599Y245378D01*
X419497Y245313D01*
X419397Y245245D01*
X419299Y245174D01*
X419203Y245100D01*
X419110Y245023D01*
X419020Y244942D01*
X418932Y244859D01*
X418847Y244773D01*
X418764Y244684D01*
X418685Y244593D01*
X418608Y244499D01*
X418535Y244403D01*
X418465Y244305D01*
X418398Y244204D01*
X418334Y244101D01*
X418274Y243996D01*
X418217Y243889D01*
X418163Y243781D01*
X418113Y243671D01*
X418067Y243559D01*
X418024Y243446D01*
X417985Y243331D01*
X423503Y240735D02*
X423582Y240812D01*
X423658Y240893D01*
X423731Y240976D01*
X423801Y241061D01*
X423868Y241149D01*
X423932Y241239D01*
X423992Y241331D01*
X424049Y241426D01*
X424103Y241522D01*
X424154Y241620D01*
X424201Y241720D01*
X424245Y241822D01*
X424285Y241925D01*
X424321Y242029D01*
X424353Y242135D01*
X424382Y242241D01*
X424407Y242349D01*
X424429Y242457D01*
X424446Y242567D01*
X424460Y242676D01*
X424469Y242786D01*
X424475Y242897D01*
X424477Y243007D01*
X423502Y240735D02*
X417985Y234244D01*
X424476Y234244D01*
X199577Y120396D02*
X199577Y108712D01*
X199577Y120396D02*
X202822Y120396D01*
X202935Y120394D01*
X203048Y120388D01*
X203161Y120378D01*
X203274Y120364D01*
X203386Y120347D01*
X203497Y120325D01*
X203607Y120300D01*
X203717Y120270D01*
X203825Y120237D01*
X203932Y120200D01*
X204038Y120160D01*
X204142Y120115D01*
X204245Y120067D01*
X204346Y120016D01*
X204445Y119961D01*
X204542Y119903D01*
X204637Y119841D01*
X204730Y119776D01*
X204820Y119708D01*
X204908Y119637D01*
X204994Y119562D01*
X205077Y119485D01*
X205157Y119405D01*
X205234Y119322D01*
X205309Y119236D01*
X205380Y119148D01*
X205448Y119058D01*
X205513Y118965D01*
X205575Y118870D01*
X205633Y118773D01*
X205688Y118674D01*
X205739Y118573D01*
X205787Y118470D01*
X205832Y118366D01*
X205872Y118260D01*
X205909Y118153D01*
X205942Y118045D01*
X205972Y117935D01*
X205997Y117825D01*
X206019Y117714D01*
X206036Y117602D01*
X206050Y117489D01*
X206060Y117376D01*
X206066Y117263D01*
X206068Y117150D01*
X206066Y117037D01*
X206060Y116924D01*
X206050Y116811D01*
X206036Y116698D01*
X206019Y116586D01*
X205997Y116475D01*
X205972Y116365D01*
X205942Y116255D01*
X205909Y116147D01*
X205872Y116040D01*
X205832Y115934D01*
X205787Y115830D01*
X205739Y115727D01*
X205688Y115626D01*
X205633Y115527D01*
X205575Y115430D01*
X205513Y115335D01*
X205448Y115242D01*
X205380Y115152D01*
X205309Y115064D01*
X205234Y114978D01*
X205157Y114895D01*
X205077Y114815D01*
X204994Y114738D01*
X204908Y114663D01*
X204820Y114592D01*
X204730Y114524D01*
X204637Y114459D01*
X204542Y114397D01*
X204445Y114339D01*
X204346Y114284D01*
X204245Y114233D01*
X204142Y114185D01*
X204038Y114140D01*
X203932Y114100D01*
X203825Y114063D01*
X203717Y114030D01*
X203607Y114000D01*
X203497Y113975D01*
X203386Y113953D01*
X203274Y113936D01*
X203161Y113922D01*
X203048Y113912D01*
X202935Y113906D01*
X202822Y113904D01*
X202822Y113905D02*
X199577Y113905D01*
X203471Y113905D02*
X206068Y108712D01*
X217424Y117475D02*
X217422Y117582D01*
X217416Y117688D01*
X217406Y117794D01*
X217393Y117900D01*
X217375Y118006D01*
X217354Y118110D01*
X217329Y118214D01*
X217300Y118317D01*
X217268Y118418D01*
X217231Y118518D01*
X217191Y118617D01*
X217148Y118715D01*
X217101Y118811D01*
X217050Y118905D01*
X216996Y118997D01*
X216939Y119087D01*
X216879Y119175D01*
X216815Y119260D01*
X216748Y119343D01*
X216678Y119424D01*
X216606Y119502D01*
X216530Y119578D01*
X216452Y119650D01*
X216371Y119720D01*
X216288Y119787D01*
X216203Y119851D01*
X216115Y119911D01*
X216025Y119968D01*
X215933Y120022D01*
X215839Y120073D01*
X215743Y120120D01*
X215645Y120163D01*
X215546Y120203D01*
X215446Y120240D01*
X215345Y120272D01*
X215242Y120301D01*
X215138Y120326D01*
X215034Y120347D01*
X214928Y120365D01*
X214822Y120378D01*
X214716Y120388D01*
X214610Y120394D01*
X214503Y120396D01*
X214382Y120394D01*
X214261Y120388D01*
X214141Y120378D01*
X214020Y120365D01*
X213901Y120347D01*
X213781Y120326D01*
X213663Y120301D01*
X213546Y120272D01*
X213429Y120239D01*
X213314Y120203D01*
X213200Y120162D01*
X213087Y120119D01*
X212975Y120071D01*
X212866Y120020D01*
X212758Y119965D01*
X212651Y119907D01*
X212547Y119846D01*
X212445Y119781D01*
X212345Y119713D01*
X212247Y119642D01*
X212151Y119568D01*
X212058Y119491D01*
X211968Y119410D01*
X211880Y119327D01*
X211795Y119241D01*
X211712Y119152D01*
X211633Y119061D01*
X211556Y118967D01*
X211483Y118871D01*
X211413Y118773D01*
X211346Y118672D01*
X211282Y118569D01*
X211222Y118464D01*
X211165Y118357D01*
X211111Y118249D01*
X211061Y118139D01*
X211015Y118027D01*
X210972Y117914D01*
X210933Y117799D01*
X216451Y115203D02*
X216530Y115280D01*
X216606Y115361D01*
X216679Y115444D01*
X216749Y115529D01*
X216816Y115617D01*
X216880Y115707D01*
X216940Y115799D01*
X216997Y115894D01*
X217051Y115990D01*
X217102Y116088D01*
X217149Y116188D01*
X217193Y116290D01*
X217233Y116393D01*
X217269Y116497D01*
X217301Y116603D01*
X217330Y116709D01*
X217355Y116817D01*
X217377Y116925D01*
X217394Y117035D01*
X217408Y117144D01*
X217417Y117254D01*
X217423Y117365D01*
X217425Y117475D01*
X216450Y115203D02*
X210933Y108712D01*
X217424Y108712D01*
D13*
X513000Y218520D02*
X513000Y228520D01*
X503000Y228520D01*
X503000Y218520D01*
X513000Y218520D01*
D14*
X495228Y212979D02*
X495228Y207659D01*
X495230Y207570D01*
X495236Y207481D01*
X495246Y207392D01*
X495259Y207304D01*
X495276Y207216D01*
X495298Y207129D01*
X495323Y207044D01*
X495351Y206959D01*
X495384Y206876D01*
X495420Y206794D01*
X495459Y206714D01*
X495502Y206636D01*
X495548Y206560D01*
X495598Y206485D01*
X495651Y206413D01*
X495707Y206344D01*
X495766Y206277D01*
X495827Y206212D01*
X495892Y206151D01*
X495959Y206092D01*
X496028Y206036D01*
X496100Y205983D01*
X496175Y205933D01*
X496251Y205887D01*
X496329Y205844D01*
X496409Y205805D01*
X496491Y205769D01*
X496574Y205736D01*
X496659Y205708D01*
X496744Y205683D01*
X496831Y205661D01*
X496919Y205644D01*
X497007Y205631D01*
X497096Y205621D01*
X497185Y205615D01*
X497274Y205613D01*
X497363Y205615D01*
X497452Y205621D01*
X497541Y205631D01*
X497629Y205644D01*
X497717Y205661D01*
X497804Y205683D01*
X497889Y205708D01*
X497974Y205736D01*
X498057Y205769D01*
X498139Y205805D01*
X498219Y205844D01*
X498297Y205887D01*
X498373Y205933D01*
X498448Y205983D01*
X498520Y206036D01*
X498589Y206092D01*
X498656Y206151D01*
X498721Y206212D01*
X498782Y206277D01*
X498841Y206344D01*
X498897Y206413D01*
X498950Y206485D01*
X499000Y206560D01*
X499046Y206636D01*
X499089Y206714D01*
X499128Y206794D01*
X499164Y206876D01*
X499197Y206959D01*
X499225Y207044D01*
X499250Y207129D01*
X499272Y207216D01*
X499289Y207304D01*
X499302Y207392D01*
X499312Y207481D01*
X499318Y207570D01*
X499320Y207659D01*
X499320Y212979D01*
X504345Y212979D02*
X504345Y205613D01*
X504345Y209296D02*
X503322Y209910D01*
X503264Y209947D01*
X503209Y209987D01*
X503155Y210031D01*
X503104Y210077D01*
X503056Y210126D01*
X503011Y210178D01*
X502968Y210232D01*
X502929Y210288D01*
X502893Y210347D01*
X502860Y210407D01*
X502831Y210470D01*
X502805Y210533D01*
X502783Y210599D01*
X502765Y210665D01*
X502750Y210732D01*
X502739Y210800D01*
X502732Y210868D01*
X502729Y210937D01*
X502730Y211006D01*
X502735Y211074D01*
X502743Y211143D01*
X502755Y211210D01*
X502771Y211277D01*
X502791Y211343D01*
X502815Y211408D01*
X502842Y211471D01*
X502872Y211533D01*
X502907Y211592D01*
X502944Y211650D01*
X502984Y211706D01*
X503028Y211759D01*
X503074Y211809D01*
X503124Y211857D01*
X503176Y211903D01*
X503230Y211945D01*
X503287Y211984D01*
X503345Y212019D01*
X503406Y212052D01*
X503469Y212081D01*
X503532Y212106D01*
X503598Y212128D01*
X503664Y212146D01*
X503731Y212160D01*
X503841Y212178D01*
X503952Y212193D01*
X504062Y212203D01*
X504174Y212210D01*
X504285Y212213D01*
X504396Y212212D01*
X504507Y212207D01*
X504618Y212199D01*
X504729Y212186D01*
X504839Y212170D01*
X504949Y212150D01*
X505057Y212127D01*
X505165Y212099D01*
X505272Y212068D01*
X505378Y212033D01*
X505482Y211995D01*
X505586Y211953D01*
X505687Y211908D01*
X505787Y211859D01*
X505886Y211807D01*
X505982Y211751D01*
X504345Y209296D02*
X505368Y208682D01*
X505369Y208682D02*
X505427Y208645D01*
X505482Y208605D01*
X505536Y208561D01*
X505587Y208515D01*
X505635Y208466D01*
X505680Y208414D01*
X505723Y208360D01*
X505762Y208304D01*
X505798Y208245D01*
X505831Y208185D01*
X505860Y208122D01*
X505886Y208059D01*
X505908Y207994D01*
X505926Y207927D01*
X505941Y207860D01*
X505952Y207792D01*
X505959Y207724D01*
X505962Y207655D01*
X505961Y207586D01*
X505956Y207518D01*
X505948Y207449D01*
X505936Y207382D01*
X505920Y207315D01*
X505900Y207249D01*
X505876Y207184D01*
X505849Y207121D01*
X505819Y207059D01*
X505785Y207000D01*
X505747Y206942D01*
X505707Y206886D01*
X505663Y206833D01*
X505617Y206783D01*
X505567Y206735D01*
X505515Y206689D01*
X505461Y206647D01*
X505404Y206608D01*
X505346Y206573D01*
X505285Y206540D01*
X505222Y206511D01*
X505159Y206486D01*
X505093Y206464D01*
X505027Y206446D01*
X504960Y206432D01*
X504850Y206414D01*
X504739Y206399D01*
X504629Y206389D01*
X504518Y206382D01*
X504406Y206379D01*
X504295Y206380D01*
X504184Y206385D01*
X504073Y206393D01*
X503962Y206406D01*
X503852Y206422D01*
X503742Y206442D01*
X503634Y206465D01*
X503526Y206493D01*
X503419Y206524D01*
X503313Y206559D01*
X503209Y206597D01*
X503105Y206639D01*
X503004Y206684D01*
X502904Y206733D01*
X502805Y206785D01*
X502709Y206841D01*
X509127Y205613D02*
X511173Y205613D01*
X511262Y205615D01*
X511351Y205621D01*
X511440Y205631D01*
X511528Y205644D01*
X511616Y205661D01*
X511703Y205683D01*
X511788Y205708D01*
X511873Y205736D01*
X511956Y205769D01*
X512038Y205805D01*
X512118Y205844D01*
X512196Y205887D01*
X512272Y205933D01*
X512347Y205983D01*
X512419Y206036D01*
X512488Y206092D01*
X512555Y206151D01*
X512620Y206212D01*
X512681Y206277D01*
X512740Y206344D01*
X512796Y206413D01*
X512849Y206485D01*
X512899Y206560D01*
X512945Y206636D01*
X512988Y206714D01*
X513027Y206794D01*
X513063Y206876D01*
X513096Y206959D01*
X513124Y207044D01*
X513149Y207129D01*
X513171Y207216D01*
X513188Y207304D01*
X513201Y207392D01*
X513211Y207481D01*
X513217Y207570D01*
X513219Y207659D01*
X513217Y207748D01*
X513211Y207837D01*
X513201Y207926D01*
X513188Y208014D01*
X513171Y208102D01*
X513149Y208189D01*
X513124Y208274D01*
X513096Y208359D01*
X513063Y208442D01*
X513027Y208524D01*
X512988Y208604D01*
X512945Y208682D01*
X512899Y208758D01*
X512849Y208833D01*
X512796Y208905D01*
X512740Y208974D01*
X512681Y209041D01*
X512620Y209106D01*
X512555Y209167D01*
X512488Y209226D01*
X512419Y209282D01*
X512347Y209335D01*
X512272Y209385D01*
X512196Y209431D01*
X512118Y209474D01*
X512038Y209513D01*
X511956Y209549D01*
X511873Y209582D01*
X511788Y209610D01*
X511703Y209635D01*
X511616Y209657D01*
X511528Y209674D01*
X511440Y209687D01*
X511351Y209697D01*
X511262Y209703D01*
X511173Y209705D01*
X511582Y212979D02*
X509127Y212979D01*
X511582Y212979D02*
X511661Y212977D01*
X511740Y212971D01*
X511819Y212962D01*
X511897Y212949D01*
X511974Y212931D01*
X512050Y212911D01*
X512125Y212886D01*
X512199Y212858D01*
X512272Y212827D01*
X512343Y212791D01*
X512412Y212753D01*
X512479Y212711D01*
X512544Y212666D01*
X512607Y212618D01*
X512668Y212567D01*
X512725Y212513D01*
X512781Y212457D01*
X512833Y212398D01*
X512883Y212336D01*
X512929Y212272D01*
X512973Y212206D01*
X513013Y212138D01*
X513049Y212068D01*
X513083Y211996D01*
X513113Y211922D01*
X513139Y211848D01*
X513162Y211772D01*
X513180Y211695D01*
X513196Y211618D01*
X513207Y211539D01*
X513215Y211461D01*
X513219Y211382D01*
X513219Y211302D01*
X513215Y211223D01*
X513207Y211145D01*
X513196Y211066D01*
X513180Y210989D01*
X513162Y210912D01*
X513139Y210836D01*
X513113Y210762D01*
X513083Y210688D01*
X513049Y210616D01*
X513013Y210546D01*
X512973Y210478D01*
X512929Y210412D01*
X512883Y210348D01*
X512833Y210286D01*
X512781Y210227D01*
X512725Y210171D01*
X512668Y210117D01*
X512607Y210066D01*
X512544Y210018D01*
X512479Y209973D01*
X512412Y209931D01*
X512343Y209893D01*
X512272Y209857D01*
X512199Y209826D01*
X512125Y209798D01*
X512050Y209773D01*
X511974Y209753D01*
X511897Y209735D01*
X511819Y209722D01*
X511740Y209713D01*
X511661Y209707D01*
X511582Y209705D01*
X509945Y209705D01*
D13*
X614600Y218520D02*
X614600Y228520D01*
X604600Y228520D01*
X604600Y218520D01*
X614600Y218520D01*
D14*
X596828Y212979D02*
X596828Y207659D01*
X596830Y207570D01*
X596836Y207481D01*
X596846Y207392D01*
X596859Y207304D01*
X596876Y207216D01*
X596898Y207129D01*
X596923Y207044D01*
X596951Y206959D01*
X596984Y206876D01*
X597020Y206794D01*
X597059Y206714D01*
X597102Y206636D01*
X597148Y206560D01*
X597198Y206485D01*
X597251Y206413D01*
X597307Y206344D01*
X597366Y206277D01*
X597427Y206212D01*
X597492Y206151D01*
X597559Y206092D01*
X597628Y206036D01*
X597700Y205983D01*
X597775Y205933D01*
X597851Y205887D01*
X597929Y205844D01*
X598009Y205805D01*
X598091Y205769D01*
X598174Y205736D01*
X598259Y205708D01*
X598344Y205683D01*
X598431Y205661D01*
X598519Y205644D01*
X598607Y205631D01*
X598696Y205621D01*
X598785Y205615D01*
X598874Y205613D01*
X598963Y205615D01*
X599052Y205621D01*
X599141Y205631D01*
X599229Y205644D01*
X599317Y205661D01*
X599404Y205683D01*
X599489Y205708D01*
X599574Y205736D01*
X599657Y205769D01*
X599739Y205805D01*
X599819Y205844D01*
X599897Y205887D01*
X599973Y205933D01*
X600048Y205983D01*
X600120Y206036D01*
X600189Y206092D01*
X600256Y206151D01*
X600321Y206212D01*
X600382Y206277D01*
X600441Y206344D01*
X600497Y206413D01*
X600550Y206485D01*
X600600Y206560D01*
X600646Y206636D01*
X600689Y206714D01*
X600728Y206794D01*
X600764Y206876D01*
X600797Y206959D01*
X600825Y207044D01*
X600850Y207129D01*
X600872Y207216D01*
X600889Y207304D01*
X600902Y207392D01*
X600912Y207481D01*
X600918Y207570D01*
X600920Y207659D01*
X600920Y212979D01*
X605945Y212979D02*
X605945Y205613D01*
X605945Y209296D02*
X604922Y209910D01*
X604864Y209947D01*
X604809Y209987D01*
X604755Y210031D01*
X604704Y210077D01*
X604656Y210126D01*
X604611Y210178D01*
X604568Y210232D01*
X604529Y210288D01*
X604493Y210347D01*
X604460Y210407D01*
X604431Y210470D01*
X604405Y210533D01*
X604383Y210599D01*
X604365Y210665D01*
X604350Y210732D01*
X604339Y210800D01*
X604332Y210868D01*
X604329Y210937D01*
X604330Y211006D01*
X604335Y211074D01*
X604343Y211143D01*
X604355Y211210D01*
X604371Y211277D01*
X604391Y211343D01*
X604415Y211408D01*
X604442Y211471D01*
X604472Y211533D01*
X604507Y211592D01*
X604544Y211650D01*
X604584Y211706D01*
X604628Y211759D01*
X604674Y211809D01*
X604724Y211857D01*
X604776Y211903D01*
X604830Y211945D01*
X604887Y211984D01*
X604945Y212019D01*
X605006Y212052D01*
X605069Y212081D01*
X605132Y212106D01*
X605198Y212128D01*
X605264Y212146D01*
X605331Y212160D01*
X605441Y212178D01*
X605552Y212193D01*
X605662Y212203D01*
X605774Y212210D01*
X605885Y212213D01*
X605996Y212212D01*
X606107Y212207D01*
X606218Y212199D01*
X606329Y212186D01*
X606439Y212170D01*
X606549Y212150D01*
X606657Y212127D01*
X606765Y212099D01*
X606872Y212068D01*
X606978Y212033D01*
X607082Y211995D01*
X607186Y211953D01*
X607287Y211908D01*
X607387Y211859D01*
X607486Y211807D01*
X607582Y211751D01*
X605945Y209296D02*
X606968Y208682D01*
X606969Y208682D02*
X607027Y208645D01*
X607082Y208605D01*
X607136Y208561D01*
X607187Y208515D01*
X607235Y208466D01*
X607280Y208414D01*
X607323Y208360D01*
X607362Y208304D01*
X607398Y208245D01*
X607431Y208185D01*
X607460Y208122D01*
X607486Y208059D01*
X607508Y207994D01*
X607526Y207927D01*
X607541Y207860D01*
X607552Y207792D01*
X607559Y207724D01*
X607562Y207655D01*
X607561Y207586D01*
X607556Y207518D01*
X607548Y207449D01*
X607536Y207382D01*
X607520Y207315D01*
X607500Y207249D01*
X607476Y207184D01*
X607449Y207121D01*
X607419Y207059D01*
X607385Y207000D01*
X607347Y206942D01*
X607307Y206886D01*
X607263Y206833D01*
X607217Y206783D01*
X607167Y206735D01*
X607115Y206689D01*
X607061Y206647D01*
X607004Y206608D01*
X606946Y206573D01*
X606885Y206540D01*
X606822Y206511D01*
X606759Y206486D01*
X606693Y206464D01*
X606627Y206446D01*
X606560Y206432D01*
X606450Y206414D01*
X606339Y206399D01*
X606229Y206389D01*
X606118Y206382D01*
X606006Y206379D01*
X605895Y206380D01*
X605784Y206385D01*
X605673Y206393D01*
X605562Y206406D01*
X605452Y206422D01*
X605342Y206442D01*
X605234Y206465D01*
X605126Y206493D01*
X605019Y206524D01*
X604913Y206559D01*
X604809Y206597D01*
X604705Y206639D01*
X604604Y206684D01*
X604504Y206733D01*
X604405Y206785D01*
X604309Y206841D01*
X610727Y207250D02*
X612364Y212979D01*
X610727Y207250D02*
X614819Y207250D01*
X613591Y208887D02*
X613591Y205613D01*
D13*
X266854Y202998D02*
X266856Y203029D01*
X266862Y203060D01*
X266872Y203090D01*
X266885Y203118D01*
X266902Y203145D01*
X266922Y203169D01*
X266945Y203191D01*
X266970Y203209D01*
X266998Y203224D01*
X267027Y203236D01*
X267057Y203244D01*
X267088Y203248D01*
X267120Y203248D01*
X267151Y203244D01*
X267181Y203236D01*
X267210Y203224D01*
X267238Y203209D01*
X267263Y203191D01*
X267286Y203169D01*
X267306Y203145D01*
X267323Y203118D01*
X267336Y203090D01*
X267346Y203060D01*
X267352Y203029D01*
X267354Y202998D01*
X267352Y202967D01*
X267346Y202936D01*
X267336Y202906D01*
X267323Y202878D01*
X267306Y202851D01*
X267286Y202827D01*
X267263Y202805D01*
X267238Y202787D01*
X267210Y202772D01*
X267181Y202760D01*
X267151Y202752D01*
X267120Y202748D01*
X267088Y202748D01*
X267057Y202752D01*
X267027Y202760D01*
X266998Y202772D01*
X266970Y202787D01*
X266945Y202805D01*
X266922Y202827D01*
X266902Y202851D01*
X266885Y202878D01*
X266872Y202906D01*
X266862Y202936D01*
X266856Y202967D01*
X266854Y202998D01*
X268304Y185348D02*
X278304Y185348D01*
X278304Y201748D02*
X268304Y201748D01*
X282189Y183958D02*
X291079Y183958D01*
X291079Y182971D02*
X291079Y184946D01*
X282189Y184946D02*
X282189Y182971D01*
X291079Y190746D02*
X291079Y192721D01*
X291079Y190746D02*
X291077Y190657D01*
X291071Y190569D01*
X291061Y190481D01*
X291047Y190393D01*
X291029Y190306D01*
X291008Y190220D01*
X290982Y190135D01*
X290953Y190052D01*
X290920Y189969D01*
X290883Y189889D01*
X290843Y189810D01*
X290799Y189733D01*
X290752Y189657D01*
X290702Y189585D01*
X290648Y189514D01*
X290591Y189446D01*
X290531Y189380D01*
X290469Y189318D01*
X290403Y189258D01*
X290335Y189201D01*
X290264Y189147D01*
X290192Y189097D01*
X290117Y189050D01*
X290039Y189006D01*
X289960Y188966D01*
X289880Y188929D01*
X289797Y188896D01*
X289714Y188867D01*
X289629Y188841D01*
X289543Y188820D01*
X289456Y188802D01*
X289368Y188788D01*
X289280Y188778D01*
X289192Y188772D01*
X289103Y188770D01*
X284165Y188770D01*
X284076Y188772D01*
X283988Y188778D01*
X283900Y188788D01*
X283812Y188802D01*
X283725Y188820D01*
X283639Y188841D01*
X283554Y188867D01*
X283471Y188896D01*
X283388Y188929D01*
X283308Y188966D01*
X283229Y189006D01*
X283152Y189050D01*
X283076Y189097D01*
X283004Y189147D01*
X282933Y189201D01*
X282865Y189258D01*
X282799Y189318D01*
X282737Y189380D01*
X282677Y189446D01*
X282620Y189514D01*
X282566Y189585D01*
X282516Y189657D01*
X282469Y189732D01*
X282425Y189810D01*
X282385Y189889D01*
X282348Y189969D01*
X282315Y190052D01*
X282286Y190135D01*
X282260Y190220D01*
X282239Y190306D01*
X282221Y190393D01*
X282207Y190481D01*
X282197Y190569D01*
X282191Y190657D01*
X282189Y190746D01*
X282189Y192721D01*
X284165Y196424D02*
X282189Y198894D01*
X291079Y198894D01*
X291079Y201363D02*
X291079Y196424D01*
D15*
X15700Y268200D02*
X15700Y268199D01*
X15700Y265200D01*
X12700Y262200D02*
X12700Y144200D01*
X15700Y141200D02*
X15700Y138200D01*
X96700Y138200D01*
X134700Y138200D02*
X151700Y138200D01*
X151700Y164200D01*
X151700Y242200D02*
X151700Y268200D01*
X134700Y268200D01*
X96700Y268200D02*
X15700Y268200D01*
X15700Y268199D02*
X15593Y268201D01*
X15486Y268207D01*
X15379Y268216D01*
X15273Y268230D01*
X15167Y268247D01*
X15062Y268268D01*
X14958Y268292D01*
X14855Y268321D01*
X14753Y268353D01*
X14652Y268388D01*
X14552Y268427D01*
X14454Y268470D01*
X14357Y268516D01*
X14262Y268566D01*
X14169Y268619D01*
X14078Y268675D01*
X13989Y268735D01*
X13902Y268797D01*
X13818Y268863D01*
X13735Y268932D01*
X13656Y269003D01*
X13579Y269078D01*
X13504Y269155D01*
X13433Y269234D01*
X13364Y269317D01*
X13298Y269401D01*
X13236Y269488D01*
X13176Y269577D01*
X13120Y269668D01*
X13067Y269761D01*
X13017Y269856D01*
X12971Y269953D01*
X12928Y270051D01*
X12889Y270151D01*
X12854Y270252D01*
X12822Y270354D01*
X12793Y270457D01*
X12769Y270561D01*
X12748Y270666D01*
X12731Y270772D01*
X12717Y270878D01*
X12708Y270985D01*
X12702Y271092D01*
X12700Y271199D01*
X12700Y271200D02*
X12700Y273200D01*
X15700Y265200D02*
X15698Y265093D01*
X15692Y264986D01*
X15683Y264879D01*
X15669Y264773D01*
X15652Y264667D01*
X15631Y264562D01*
X15607Y264458D01*
X15578Y264355D01*
X15546Y264253D01*
X15511Y264152D01*
X15472Y264052D01*
X15429Y263954D01*
X15383Y263857D01*
X15333Y263762D01*
X15280Y263669D01*
X15224Y263578D01*
X15164Y263489D01*
X15102Y263402D01*
X15036Y263318D01*
X14967Y263235D01*
X14896Y263156D01*
X14821Y263079D01*
X14744Y263004D01*
X14665Y262933D01*
X14582Y262864D01*
X14498Y262798D01*
X14411Y262736D01*
X14322Y262676D01*
X14231Y262620D01*
X14138Y262567D01*
X14043Y262517D01*
X13946Y262471D01*
X13848Y262428D01*
X13748Y262389D01*
X13647Y262354D01*
X13545Y262322D01*
X13442Y262293D01*
X13338Y262269D01*
X13233Y262248D01*
X13127Y262231D01*
X13021Y262217D01*
X12914Y262208D01*
X12807Y262202D01*
X12700Y262200D01*
X15700Y138200D02*
X15593Y138198D01*
X15486Y138192D01*
X15379Y138183D01*
X15273Y138169D01*
X15167Y138152D01*
X15062Y138131D01*
X14958Y138107D01*
X14855Y138078D01*
X14753Y138046D01*
X14652Y138011D01*
X14552Y137972D01*
X14454Y137929D01*
X14357Y137883D01*
X14262Y137833D01*
X14169Y137780D01*
X14078Y137724D01*
X13989Y137664D01*
X13902Y137602D01*
X13818Y137536D01*
X13735Y137467D01*
X13656Y137396D01*
X13579Y137321D01*
X13504Y137244D01*
X13433Y137165D01*
X13364Y137082D01*
X13298Y136998D01*
X13236Y136911D01*
X13176Y136822D01*
X13120Y136731D01*
X13067Y136638D01*
X13017Y136543D01*
X12971Y136446D01*
X12928Y136348D01*
X12889Y136248D01*
X12854Y136147D01*
X12822Y136045D01*
X12793Y135942D01*
X12769Y135838D01*
X12748Y135733D01*
X12731Y135627D01*
X12717Y135521D01*
X12708Y135414D01*
X12702Y135307D01*
X12700Y135200D01*
X15701Y141200D02*
X15699Y141307D01*
X15693Y141414D01*
X15684Y141521D01*
X15670Y141627D01*
X15653Y141733D01*
X15632Y141838D01*
X15608Y141942D01*
X15579Y142045D01*
X15547Y142147D01*
X15512Y142248D01*
X15472Y142348D01*
X15430Y142446D01*
X15383Y142543D01*
X15334Y142638D01*
X15281Y142731D01*
X15224Y142822D01*
X15165Y142911D01*
X15102Y142998D01*
X15036Y143082D01*
X14968Y143165D01*
X14896Y143244D01*
X14822Y143321D01*
X14745Y143396D01*
X14665Y143467D01*
X14583Y143536D01*
X14498Y143602D01*
X14411Y143664D01*
X14322Y143724D01*
X14231Y143780D01*
X14138Y143833D01*
X14043Y143883D01*
X13946Y143929D01*
X13848Y143972D01*
X13749Y144011D01*
X13648Y144046D01*
X13545Y144078D01*
X13442Y144107D01*
X13338Y144131D01*
X13233Y144152D01*
X13127Y144169D01*
X13021Y144183D01*
X12914Y144192D01*
X12807Y144198D01*
X12700Y144200D01*
X32700Y243200D02*
X92700Y253200D01*
X32700Y243200D02*
X32700Y233200D01*
X92700Y223200D01*
X92700Y153200D02*
X32700Y163200D01*
X32700Y173200D01*
X92700Y183200D01*
X12700Y135200D02*
X12700Y133200D01*
X151700Y172200D02*
X151700Y189200D01*
X151700Y217200D02*
X151700Y234200D01*
X151700Y209200D02*
X151700Y197200D01*
D13*
X28575Y148568D02*
X19685Y151531D01*
X28575Y154494D01*
X26353Y153753D02*
X26353Y149308D01*
X28575Y158626D02*
X19685Y158626D01*
X24624Y161589D01*
X19685Y164553D01*
X28575Y164553D01*
X28575Y169657D02*
X19685Y169657D01*
X19685Y172126D01*
X19687Y172224D01*
X19693Y172322D01*
X19703Y172420D01*
X19716Y172517D01*
X19734Y172614D01*
X19755Y172710D01*
X19780Y172804D01*
X19809Y172898D01*
X19841Y172991D01*
X19878Y173082D01*
X19917Y173172D01*
X19961Y173260D01*
X20008Y173346D01*
X20058Y173431D01*
X20111Y173513D01*
X20168Y173593D01*
X20228Y173671D01*
X20291Y173746D01*
X20357Y173819D01*
X20426Y173889D01*
X20497Y173956D01*
X20571Y174021D01*
X20648Y174082D01*
X20727Y174141D01*
X20808Y174196D01*
X20891Y174248D01*
X20977Y174296D01*
X21064Y174341D01*
X21153Y174383D01*
X21243Y174421D01*
X21335Y174455D01*
X21428Y174486D01*
X21523Y174513D01*
X21618Y174536D01*
X21715Y174556D01*
X21811Y174571D01*
X21909Y174583D01*
X22007Y174591D01*
X22105Y174595D01*
X22203Y174595D01*
X22301Y174591D01*
X22399Y174583D01*
X22497Y174571D01*
X22593Y174556D01*
X22690Y174536D01*
X22785Y174513D01*
X22880Y174486D01*
X22973Y174455D01*
X23065Y174421D01*
X23155Y174383D01*
X23244Y174341D01*
X23331Y174296D01*
X23417Y174248D01*
X23500Y174196D01*
X23581Y174141D01*
X23660Y174082D01*
X23737Y174021D01*
X23811Y173956D01*
X23882Y173889D01*
X23951Y173819D01*
X24017Y173746D01*
X24080Y173671D01*
X24140Y173593D01*
X24197Y173513D01*
X24250Y173431D01*
X24300Y173346D01*
X24347Y173260D01*
X24391Y173172D01*
X24430Y173082D01*
X24467Y172991D01*
X24499Y172898D01*
X24528Y172804D01*
X24553Y172710D01*
X24574Y172614D01*
X24592Y172517D01*
X24605Y172420D01*
X24615Y172322D01*
X24621Y172224D01*
X24623Y172126D01*
X24624Y172126D02*
X24624Y169657D01*
X20673Y183199D02*
X19685Y183199D01*
X19685Y188138D01*
X28575Y185668D01*
X26106Y192343D02*
X26008Y192345D01*
X25910Y192351D01*
X25812Y192361D01*
X25715Y192374D01*
X25618Y192392D01*
X25522Y192413D01*
X25428Y192438D01*
X25334Y192467D01*
X25241Y192499D01*
X25150Y192536D01*
X25060Y192575D01*
X24972Y192619D01*
X24886Y192666D01*
X24801Y192716D01*
X24719Y192769D01*
X24639Y192826D01*
X24561Y192886D01*
X24486Y192949D01*
X24413Y193015D01*
X24343Y193084D01*
X24276Y193155D01*
X24211Y193229D01*
X24150Y193306D01*
X24091Y193385D01*
X24036Y193466D01*
X23984Y193549D01*
X23936Y193635D01*
X23891Y193722D01*
X23849Y193811D01*
X23811Y193901D01*
X23777Y193993D01*
X23746Y194086D01*
X23719Y194181D01*
X23696Y194276D01*
X23676Y194373D01*
X23661Y194469D01*
X23649Y194567D01*
X23641Y194665D01*
X23637Y194763D01*
X23637Y194861D01*
X23641Y194959D01*
X23649Y195057D01*
X23661Y195155D01*
X23676Y195251D01*
X23696Y195348D01*
X23719Y195443D01*
X23746Y195538D01*
X23777Y195631D01*
X23811Y195723D01*
X23849Y195813D01*
X23891Y195902D01*
X23936Y195989D01*
X23984Y196075D01*
X24036Y196158D01*
X24091Y196239D01*
X24150Y196318D01*
X24211Y196395D01*
X24276Y196469D01*
X24343Y196540D01*
X24413Y196609D01*
X24486Y196675D01*
X24561Y196738D01*
X24639Y196798D01*
X24719Y196855D01*
X24801Y196908D01*
X24886Y196958D01*
X24972Y197005D01*
X25060Y197049D01*
X25150Y197088D01*
X25241Y197125D01*
X25334Y197157D01*
X25428Y197186D01*
X25522Y197211D01*
X25618Y197232D01*
X25715Y197250D01*
X25812Y197263D01*
X25910Y197273D01*
X26008Y197279D01*
X26106Y197281D01*
X26204Y197279D01*
X26302Y197273D01*
X26400Y197263D01*
X26497Y197250D01*
X26594Y197232D01*
X26690Y197211D01*
X26784Y197186D01*
X26878Y197157D01*
X26971Y197125D01*
X27062Y197088D01*
X27152Y197049D01*
X27240Y197005D01*
X27326Y196958D01*
X27411Y196908D01*
X27493Y196855D01*
X27573Y196798D01*
X27651Y196738D01*
X27726Y196675D01*
X27799Y196609D01*
X27869Y196540D01*
X27936Y196469D01*
X28001Y196395D01*
X28062Y196318D01*
X28121Y196239D01*
X28176Y196158D01*
X28228Y196075D01*
X28276Y195989D01*
X28321Y195902D01*
X28363Y195813D01*
X28401Y195723D01*
X28435Y195631D01*
X28466Y195538D01*
X28493Y195443D01*
X28516Y195348D01*
X28536Y195251D01*
X28551Y195155D01*
X28563Y195057D01*
X28571Y194959D01*
X28575Y194861D01*
X28575Y194763D01*
X28571Y194665D01*
X28563Y194567D01*
X28551Y194469D01*
X28536Y194373D01*
X28516Y194276D01*
X28493Y194181D01*
X28466Y194086D01*
X28435Y193993D01*
X28401Y193901D01*
X28363Y193811D01*
X28321Y193722D01*
X28276Y193635D01*
X28228Y193549D01*
X28176Y193466D01*
X28121Y193385D01*
X28062Y193306D01*
X28001Y193229D01*
X27936Y193155D01*
X27869Y193084D01*
X27799Y193015D01*
X27726Y192949D01*
X27651Y192886D01*
X27573Y192826D01*
X27493Y192769D01*
X27411Y192716D01*
X27326Y192666D01*
X27240Y192619D01*
X27152Y192575D01*
X27062Y192536D01*
X26971Y192499D01*
X26878Y192467D01*
X26784Y192438D01*
X26690Y192413D01*
X26594Y192392D01*
X26497Y192374D01*
X26400Y192361D01*
X26302Y192351D01*
X26204Y192345D01*
X26106Y192343D01*
X21661Y192836D02*
X21574Y192838D01*
X21486Y192844D01*
X21399Y192853D01*
X21313Y192867D01*
X21227Y192884D01*
X21143Y192905D01*
X21059Y192930D01*
X20976Y192959D01*
X20895Y192991D01*
X20815Y193026D01*
X20737Y193065D01*
X20660Y193108D01*
X20586Y193154D01*
X20514Y193203D01*
X20444Y193255D01*
X20376Y193311D01*
X20311Y193369D01*
X20248Y193430D01*
X20189Y193494D01*
X20132Y193561D01*
X20078Y193629D01*
X20027Y193701D01*
X19980Y193774D01*
X19935Y193849D01*
X19894Y193927D01*
X19857Y194006D01*
X19823Y194086D01*
X19793Y194168D01*
X19766Y194251D01*
X19743Y194336D01*
X19724Y194421D01*
X19709Y194507D01*
X19697Y194594D01*
X19689Y194681D01*
X19685Y194768D01*
X19685Y194856D01*
X19689Y194943D01*
X19697Y195030D01*
X19709Y195117D01*
X19724Y195203D01*
X19743Y195288D01*
X19766Y195373D01*
X19793Y195456D01*
X19823Y195538D01*
X19857Y195618D01*
X19894Y195697D01*
X19935Y195775D01*
X19980Y195850D01*
X20027Y195923D01*
X20078Y195995D01*
X20132Y196063D01*
X20189Y196130D01*
X20248Y196194D01*
X20311Y196255D01*
X20376Y196313D01*
X20444Y196369D01*
X20514Y196421D01*
X20586Y196470D01*
X20660Y196516D01*
X20737Y196559D01*
X20815Y196598D01*
X20895Y196633D01*
X20976Y196665D01*
X21059Y196694D01*
X21143Y196719D01*
X21227Y196740D01*
X21313Y196757D01*
X21399Y196771D01*
X21486Y196780D01*
X21574Y196786D01*
X21661Y196788D01*
X21748Y196786D01*
X21836Y196780D01*
X21923Y196771D01*
X22009Y196757D01*
X22095Y196740D01*
X22179Y196719D01*
X22263Y196694D01*
X22346Y196665D01*
X22427Y196633D01*
X22507Y196598D01*
X22585Y196559D01*
X22662Y196516D01*
X22736Y196470D01*
X22808Y196421D01*
X22878Y196369D01*
X22946Y196313D01*
X23011Y196255D01*
X23074Y196194D01*
X23133Y196130D01*
X23190Y196063D01*
X23244Y195995D01*
X23295Y195923D01*
X23342Y195850D01*
X23387Y195775D01*
X23428Y195697D01*
X23465Y195618D01*
X23499Y195538D01*
X23529Y195456D01*
X23556Y195373D01*
X23579Y195288D01*
X23598Y195203D01*
X23613Y195117D01*
X23625Y195030D01*
X23633Y194943D01*
X23637Y194856D01*
X23637Y194768D01*
X23633Y194681D01*
X23625Y194594D01*
X23613Y194507D01*
X23598Y194421D01*
X23579Y194336D01*
X23556Y194251D01*
X23529Y194168D01*
X23499Y194086D01*
X23465Y194006D01*
X23428Y193927D01*
X23387Y193849D01*
X23342Y193774D01*
X23295Y193701D01*
X23244Y193629D01*
X23190Y193561D01*
X23133Y193494D01*
X23074Y193430D01*
X23011Y193369D01*
X22946Y193311D01*
X22878Y193255D01*
X22808Y193203D01*
X22736Y193154D01*
X22662Y193108D01*
X22585Y193065D01*
X22507Y193026D01*
X22427Y192991D01*
X22346Y192959D01*
X22263Y192930D01*
X22179Y192905D01*
X22095Y192884D01*
X22009Y192867D01*
X21923Y192853D01*
X21836Y192844D01*
X21748Y192838D01*
X21661Y192836D01*
X20673Y201487D02*
X19685Y201487D01*
X19685Y206426D01*
X28575Y203956D01*
X23636Y210631D02*
X23636Y213594D01*
X23638Y213680D01*
X23644Y213766D01*
X23653Y213852D01*
X23666Y213937D01*
X23683Y214022D01*
X23703Y214105D01*
X23727Y214188D01*
X23755Y214270D01*
X23786Y214350D01*
X23821Y214429D01*
X23859Y214506D01*
X23901Y214582D01*
X23945Y214656D01*
X23993Y214727D01*
X24044Y214797D01*
X24098Y214864D01*
X24155Y214929D01*
X24215Y214991D01*
X24277Y215051D01*
X24342Y215108D01*
X24409Y215162D01*
X24479Y215213D01*
X24550Y215261D01*
X24624Y215305D01*
X24700Y215347D01*
X24777Y215385D01*
X24856Y215420D01*
X24936Y215451D01*
X25018Y215479D01*
X25101Y215503D01*
X25184Y215523D01*
X25269Y215540D01*
X25354Y215553D01*
X25440Y215562D01*
X25526Y215568D01*
X25612Y215570D01*
X26106Y215570D01*
X26106Y215569D02*
X26204Y215567D01*
X26302Y215561D01*
X26400Y215551D01*
X26497Y215538D01*
X26594Y215520D01*
X26690Y215499D01*
X26784Y215474D01*
X26878Y215445D01*
X26971Y215413D01*
X27062Y215376D01*
X27152Y215337D01*
X27240Y215293D01*
X27326Y215246D01*
X27411Y215196D01*
X27493Y215143D01*
X27573Y215086D01*
X27651Y215026D01*
X27726Y214963D01*
X27799Y214897D01*
X27869Y214828D01*
X27936Y214757D01*
X28001Y214683D01*
X28062Y214606D01*
X28121Y214527D01*
X28176Y214446D01*
X28228Y214363D01*
X28276Y214277D01*
X28321Y214190D01*
X28363Y214101D01*
X28401Y214011D01*
X28435Y213919D01*
X28466Y213826D01*
X28493Y213731D01*
X28516Y213636D01*
X28536Y213539D01*
X28551Y213443D01*
X28563Y213345D01*
X28571Y213247D01*
X28575Y213149D01*
X28575Y213051D01*
X28571Y212953D01*
X28563Y212855D01*
X28551Y212757D01*
X28536Y212661D01*
X28516Y212564D01*
X28493Y212469D01*
X28466Y212374D01*
X28435Y212281D01*
X28401Y212189D01*
X28363Y212099D01*
X28321Y212010D01*
X28276Y211923D01*
X28228Y211837D01*
X28176Y211754D01*
X28121Y211673D01*
X28062Y211594D01*
X28001Y211517D01*
X27936Y211443D01*
X27869Y211372D01*
X27799Y211303D01*
X27726Y211237D01*
X27651Y211174D01*
X27573Y211114D01*
X27493Y211057D01*
X27411Y211004D01*
X27326Y210954D01*
X27240Y210907D01*
X27152Y210863D01*
X27062Y210824D01*
X26971Y210787D01*
X26878Y210755D01*
X26784Y210726D01*
X26690Y210701D01*
X26594Y210680D01*
X26497Y210662D01*
X26400Y210649D01*
X26302Y210639D01*
X26204Y210633D01*
X26106Y210631D01*
X23636Y210631D01*
X23512Y210633D01*
X23388Y210639D01*
X23264Y210649D01*
X23141Y210662D01*
X23018Y210680D01*
X22896Y210701D01*
X22774Y210726D01*
X22653Y210755D01*
X22534Y210788D01*
X22415Y210824D01*
X22298Y210865D01*
X22182Y210908D01*
X22067Y210956D01*
X21954Y211007D01*
X21842Y211062D01*
X21733Y211120D01*
X21625Y211181D01*
X21519Y211246D01*
X21415Y211314D01*
X21314Y211386D01*
X21214Y211460D01*
X21118Y211538D01*
X21023Y211618D01*
X20931Y211702D01*
X20842Y211788D01*
X20756Y211877D01*
X20672Y211969D01*
X20592Y212064D01*
X20514Y212160D01*
X20440Y212260D01*
X20368Y212361D01*
X20300Y212465D01*
X20235Y212571D01*
X20174Y212679D01*
X20116Y212788D01*
X20061Y212900D01*
X20010Y213013D01*
X19962Y213128D01*
X19919Y213244D01*
X19878Y213361D01*
X19842Y213480D01*
X19809Y213599D01*
X19780Y213720D01*
X19755Y213842D01*
X19734Y213964D01*
X19716Y214087D01*
X19703Y214210D01*
X19693Y214334D01*
X19687Y214458D01*
X19685Y214582D01*
X21661Y219775D02*
X19685Y222244D01*
X28575Y222244D01*
X28575Y219775D02*
X28575Y224714D01*
X23636Y228919D02*
X23636Y231882D01*
X23638Y231968D01*
X23644Y232054D01*
X23653Y232140D01*
X23666Y232225D01*
X23683Y232310D01*
X23703Y232393D01*
X23727Y232476D01*
X23755Y232558D01*
X23786Y232638D01*
X23821Y232717D01*
X23859Y232794D01*
X23901Y232870D01*
X23945Y232944D01*
X23993Y233015D01*
X24044Y233085D01*
X24098Y233152D01*
X24155Y233217D01*
X24215Y233279D01*
X24277Y233339D01*
X24342Y233396D01*
X24409Y233450D01*
X24479Y233501D01*
X24550Y233549D01*
X24624Y233593D01*
X24700Y233635D01*
X24777Y233673D01*
X24856Y233708D01*
X24936Y233739D01*
X25018Y233767D01*
X25101Y233791D01*
X25184Y233811D01*
X25269Y233828D01*
X25354Y233841D01*
X25440Y233850D01*
X25526Y233856D01*
X25612Y233858D01*
X26106Y233858D01*
X26106Y233857D02*
X26204Y233855D01*
X26302Y233849D01*
X26400Y233839D01*
X26497Y233826D01*
X26594Y233808D01*
X26690Y233787D01*
X26784Y233762D01*
X26878Y233733D01*
X26971Y233701D01*
X27062Y233664D01*
X27152Y233625D01*
X27240Y233581D01*
X27326Y233534D01*
X27411Y233484D01*
X27493Y233431D01*
X27573Y233374D01*
X27651Y233314D01*
X27726Y233251D01*
X27799Y233185D01*
X27869Y233116D01*
X27936Y233045D01*
X28001Y232971D01*
X28062Y232894D01*
X28121Y232815D01*
X28176Y232734D01*
X28228Y232651D01*
X28276Y232565D01*
X28321Y232478D01*
X28363Y232389D01*
X28401Y232299D01*
X28435Y232207D01*
X28466Y232114D01*
X28493Y232019D01*
X28516Y231924D01*
X28536Y231827D01*
X28551Y231731D01*
X28563Y231633D01*
X28571Y231535D01*
X28575Y231437D01*
X28575Y231339D01*
X28571Y231241D01*
X28563Y231143D01*
X28551Y231045D01*
X28536Y230949D01*
X28516Y230852D01*
X28493Y230757D01*
X28466Y230662D01*
X28435Y230569D01*
X28401Y230477D01*
X28363Y230387D01*
X28321Y230298D01*
X28276Y230211D01*
X28228Y230125D01*
X28176Y230042D01*
X28121Y229961D01*
X28062Y229882D01*
X28001Y229805D01*
X27936Y229731D01*
X27869Y229660D01*
X27799Y229591D01*
X27726Y229525D01*
X27651Y229462D01*
X27573Y229402D01*
X27493Y229345D01*
X27411Y229292D01*
X27326Y229242D01*
X27240Y229195D01*
X27152Y229151D01*
X27062Y229112D01*
X26971Y229075D01*
X26878Y229043D01*
X26784Y229014D01*
X26690Y228989D01*
X26594Y228968D01*
X26497Y228950D01*
X26400Y228937D01*
X26302Y228927D01*
X26204Y228921D01*
X26106Y228919D01*
X23636Y228919D01*
X23512Y228921D01*
X23388Y228927D01*
X23264Y228937D01*
X23141Y228950D01*
X23018Y228968D01*
X22896Y228989D01*
X22774Y229014D01*
X22653Y229043D01*
X22534Y229076D01*
X22415Y229112D01*
X22298Y229153D01*
X22182Y229196D01*
X22067Y229244D01*
X21954Y229295D01*
X21842Y229350D01*
X21733Y229408D01*
X21625Y229469D01*
X21519Y229534D01*
X21415Y229602D01*
X21314Y229674D01*
X21214Y229748D01*
X21118Y229826D01*
X21023Y229906D01*
X20931Y229990D01*
X20842Y230076D01*
X20756Y230165D01*
X20672Y230257D01*
X20592Y230352D01*
X20514Y230448D01*
X20440Y230548D01*
X20368Y230649D01*
X20300Y230753D01*
X20235Y230859D01*
X20174Y230967D01*
X20116Y231076D01*
X20061Y231188D01*
X20010Y231301D01*
X19962Y231416D01*
X19919Y231532D01*
X19878Y231649D01*
X19842Y231768D01*
X19809Y231887D01*
X19780Y232008D01*
X19755Y232130D01*
X19734Y232252D01*
X19716Y232375D01*
X19703Y232498D01*
X19693Y232622D01*
X19687Y232746D01*
X19685Y232870D01*
X25118Y238179D02*
X25118Y244105D01*
X21661Y248426D02*
X19685Y250896D01*
X28575Y250896D01*
X28575Y253365D02*
X28575Y248426D01*
X158336Y258916D02*
X167226Y252989D01*
X167226Y258916D02*
X158336Y252989D01*
X160312Y262627D02*
X158336Y265097D01*
X167226Y265097D01*
X167226Y267566D02*
X167226Y262627D01*
D16*
X215900Y251460D03*
D14*
X210439Y246225D02*
X210439Y244588D01*
X210437Y244510D01*
X210432Y244432D01*
X210422Y244355D01*
X210409Y244278D01*
X210393Y244202D01*
X210373Y244127D01*
X210349Y244053D01*
X210322Y243980D01*
X210291Y243908D01*
X210257Y243838D01*
X210220Y243770D01*
X210179Y243703D01*
X210135Y243638D01*
X210089Y243576D01*
X210039Y243516D01*
X209987Y243458D01*
X209932Y243403D01*
X209874Y243351D01*
X209814Y243301D01*
X209752Y243255D01*
X209687Y243211D01*
X209621Y243170D01*
X209552Y243133D01*
X209482Y243099D01*
X209410Y243068D01*
X209337Y243041D01*
X209263Y243017D01*
X209188Y242997D01*
X209112Y242981D01*
X209035Y242968D01*
X208958Y242958D01*
X208880Y242953D01*
X208802Y242951D01*
X204710Y242951D01*
X204630Y242953D01*
X204550Y242959D01*
X204470Y242969D01*
X204391Y242982D01*
X204312Y243000D01*
X204235Y243021D01*
X204159Y243047D01*
X204084Y243076D01*
X204010Y243108D01*
X203938Y243144D01*
X203868Y243184D01*
X203801Y243227D01*
X203735Y243273D01*
X203672Y243323D01*
X203611Y243375D01*
X203552Y243430D01*
X203497Y243489D01*
X203445Y243549D01*
X203395Y243613D01*
X203349Y243678D01*
X203306Y243746D01*
X203266Y243816D01*
X203230Y243888D01*
X203198Y243962D01*
X203169Y244036D01*
X203144Y244113D01*
X203122Y244190D01*
X203104Y244269D01*
X203091Y244348D01*
X203081Y244427D01*
X203075Y244508D01*
X203073Y244588D01*
X203073Y246225D01*
X204710Y249070D02*
X203073Y251116D01*
X210439Y251116D01*
X210439Y249070D02*
X210439Y253162D01*
M02*
