G04 EAGLE Gerber RS-274X export*
G75*
%MOMM*%
%FSLAX34Y34*%
%LPD*%
%INSoldermask Top*%
%IPPOS*%
%AMOC8*
5,1,8,0,0,1.08239X$1,22.5*%
G01*
%ADD10R,1.676400X1.676400*%
%ADD11P,1.814519X8X22.500000*%
%ADD12R,0.457200X0.304800*%
%ADD13R,0.558800X0.304800*%
%ADD14R,0.304800X0.304800*%
%ADD15C,1.057200*%
%ADD16R,1.452400X1.652400*%
%ADD17R,0.672400X0.452400*%
%ADD18R,0.642400X0.452400*%
%ADD19C,1.552400*%
%ADD20C,3.372400*%
%ADD21R,0.660400X0.762000*%


D10*
X148000Y60700D03*
D11*
X148000Y86100D03*
X173400Y60700D03*
X173400Y86100D03*
X198800Y60700D03*
X198800Y86100D03*
X224200Y60700D03*
X224200Y86100D03*
X249600Y60700D03*
X249600Y86100D03*
X275000Y60700D03*
X275000Y86100D03*
X300400Y60700D03*
X300400Y86100D03*
X325800Y60700D03*
X325800Y86100D03*
X351200Y60700D03*
X351200Y86100D03*
X376600Y60700D03*
X376600Y86100D03*
X402000Y60700D03*
X402000Y86100D03*
X427400Y60700D03*
X427400Y86100D03*
X452800Y60700D03*
X452800Y86100D03*
X478200Y60700D03*
X478200Y86100D03*
X503600Y60700D03*
X503600Y86100D03*
X529000Y60700D03*
X529000Y86100D03*
X554400Y60700D03*
X554400Y86100D03*
X579800Y60700D03*
X579800Y86100D03*
D10*
X148000Y314700D03*
D11*
X148000Y340100D03*
X173400Y314700D03*
X173400Y340100D03*
X198800Y314700D03*
X198800Y340100D03*
X224200Y314700D03*
X224200Y340100D03*
X249600Y314700D03*
X249600Y340100D03*
X275000Y314700D03*
X275000Y340100D03*
X300400Y314700D03*
X300400Y340100D03*
X325800Y314700D03*
X325800Y340100D03*
X351200Y314700D03*
X351200Y340100D03*
X376600Y314700D03*
X376600Y340100D03*
X402000Y314700D03*
X402000Y340100D03*
X427400Y314700D03*
X427400Y340100D03*
X452800Y314700D03*
X452800Y340100D03*
X478200Y314700D03*
X478200Y340100D03*
X503600Y314700D03*
X503600Y340100D03*
X529000Y314700D03*
X529000Y340100D03*
X554400Y314700D03*
X554400Y340100D03*
X579800Y314700D03*
X579800Y340100D03*
D12*
X558800Y221820D03*
D13*
X558800Y223520D03*
D12*
X558800Y225220D03*
D14*
X555200Y227120D03*
D15*
X370284Y220736D02*
X361236Y220736D01*
X335760Y178260D02*
X335760Y169212D01*
X395760Y169212D02*
X395760Y178260D01*
D16*
X218812Y131064D03*
X201812Y131064D03*
D12*
X508000Y221820D03*
D13*
X508000Y223520D03*
D12*
X508000Y225220D03*
D14*
X504400Y227120D03*
D12*
X609600Y221820D03*
D13*
X609600Y223520D03*
D12*
X609600Y225220D03*
D14*
X606000Y227120D03*
D17*
X269504Y198548D03*
D18*
X269554Y193548D03*
X269554Y188548D03*
X277054Y188548D03*
X277054Y193548D03*
X277054Y198548D03*
D19*
X142600Y238200D03*
X142600Y213200D03*
X142600Y193200D03*
X142600Y168200D03*
D20*
X115499Y268900D03*
X115499Y137500D03*
D21*
X215900Y245872D03*
X215900Y257048D03*
M02*
