G04 EAGLE Gerber RS-274X export*
G75*
%MOMM*%
%FSLAX34Y34*%
%LPD*%
%INSoldermask Bottom*%
%IPPOS*%
%AMOC8*
5,1,8,0,0,1.08239X$1,22.5*%
G01*
%ADD10R,1.676400X1.676400*%
%ADD11P,1.814519X8X22.500000*%
%ADD12C,1.057200*%
%ADD13C,1.552400*%
%ADD14C,3.372400*%


D10*
X148000Y60700D03*
D11*
X148000Y86100D03*
X173400Y60700D03*
X173400Y86100D03*
X198800Y60700D03*
X198800Y86100D03*
X224200Y60700D03*
X224200Y86100D03*
X249600Y60700D03*
X249600Y86100D03*
X275000Y60700D03*
X275000Y86100D03*
X300400Y60700D03*
X300400Y86100D03*
X325800Y60700D03*
X325800Y86100D03*
X351200Y60700D03*
X351200Y86100D03*
X376600Y60700D03*
X376600Y86100D03*
X402000Y60700D03*
X402000Y86100D03*
X427400Y60700D03*
X427400Y86100D03*
X452800Y60700D03*
X452800Y86100D03*
X478200Y60700D03*
X478200Y86100D03*
X503600Y60700D03*
X503600Y86100D03*
X529000Y60700D03*
X529000Y86100D03*
X554400Y60700D03*
X554400Y86100D03*
X579800Y60700D03*
X579800Y86100D03*
D10*
X148000Y314700D03*
D11*
X148000Y340100D03*
X173400Y314700D03*
X173400Y340100D03*
X198800Y314700D03*
X198800Y340100D03*
X224200Y314700D03*
X224200Y340100D03*
X249600Y314700D03*
X249600Y340100D03*
X275000Y314700D03*
X275000Y340100D03*
X300400Y314700D03*
X300400Y340100D03*
X325800Y314700D03*
X325800Y340100D03*
X351200Y314700D03*
X351200Y340100D03*
X376600Y314700D03*
X376600Y340100D03*
X402000Y314700D03*
X402000Y340100D03*
X427400Y314700D03*
X427400Y340100D03*
X452800Y314700D03*
X452800Y340100D03*
X478200Y314700D03*
X478200Y340100D03*
X503600Y314700D03*
X503600Y340100D03*
X529000Y314700D03*
X529000Y340100D03*
X554400Y314700D03*
X554400Y340100D03*
X579800Y314700D03*
X579800Y340100D03*
D12*
X370284Y220736D02*
X361236Y220736D01*
X335760Y178260D02*
X335760Y169212D01*
X395760Y169212D02*
X395760Y178260D01*
D13*
X142600Y238200D03*
X142600Y213200D03*
X142600Y193200D03*
X142600Y168200D03*
D14*
X115499Y268900D03*
X115499Y137500D03*
M02*
