M48
;GenerationSoftware,Autodesk,EAGLE,9.2.2*%
;CreationDate,2018-12-10T07:24:33Z*%
FMAT,2
ICI,OFF
METRIC,TZ,000.000
T7C0.305
T6C0.350
T5C0.600
T4C0.610
T3C0.889
T2C1.000
T1C2.300
%
G90
M71
T1
X11550Y13750
X11550Y26890
T2
X14260Y16820
X14260Y19320
X14260Y21320
X14260Y23820
T3
X57980Y8610
X17340Y31470
X57980Y34010
X57980Y31470
X55440Y34010
X14800Y6070
X14800Y8610
X17340Y6070
X17340Y8610
X19880Y6070
X19880Y8610
X22420Y6070
X22420Y8610
X24960Y6070
X24960Y8610
X27500Y6070
X27500Y8610
X30040Y6070
X30040Y8610
X32580Y6070
X32580Y8610
X35120Y6070
X35120Y8610
X37660Y6070
X37660Y8610
X40200Y6070
X40200Y8610
X42740Y6070
X42740Y8610
X45280Y6070
X45280Y8610
X47820Y6070
X47820Y8610
X50360Y6070
X50360Y8610
X52900Y6070
X52900Y8610
X55440Y6070
X55440Y8610
X57980Y6070
X55440Y31470
X14800Y31470
X14800Y34010
X52900Y34010
X17340Y34010
X19880Y31470
X19880Y34010
X22420Y31470
X22420Y34010
X24960Y31470
X24960Y34010
X27500Y31470
X27500Y34010
X30040Y31470
X30040Y34010
X32580Y31470
X32580Y34010
X35120Y31470
X35120Y34010
X37660Y31470
X37660Y34010
X40200Y31470
X40200Y34010
X42740Y31470
X42740Y34010
X45280Y31470
X45280Y34010
X47820Y31470
X47820Y34010
X50360Y31470
X50360Y34010
X52900Y31470
T4
X59436Y23368
X54102Y23622
X49276Y23368
X17780Y13970
X13970Y11430
X24384Y13208
T5
X36576Y22074
X33576Y17374
X39576Y17374
T6
X24384Y19304
X24638Y21336
X28702Y18288
T7
X21590Y27940
X17780Y25400
M30